<?xml version="1.0" encoding="UTF-8" standalone="no"?>
<!-- Created with Inkscape (http://www.inkscape.org/) -->

<svg
   xmlns:dc="http://purl.org/dc/elements/1.1/"
   xmlns:cc="http://creativecommons.org/ns#"
   xmlns:rdf="http://www.w3.org/1999/02/22-rdf-syntax-ns#"
   xmlns:svg="http://www.w3.org/2000/svg"
   xmlns="http://www.w3.org/2000/svg"
   xmlns:sodipodi="http://sodipodi.sourceforge.net/DTD/sodipodi-0.dtd"
   xmlns:inkscape="http://www.inkscape.org/namespaces/inkscape"
   width="210mm"
   height="297mm"
   viewBox="0 0 210 297"
   version="1.1"
   id="svg8"
   inkscape:version="0.92.4 (5da689c313, 2019-01-14)"
   sodipodi:docname="clownfish.svg">
  <defs
     id="defs2" />
  <sodipodi:namedview
     id="base"
     pagecolor="#ffffff"
     bordercolor="#666666"
     borderopacity="1.0"
     inkscape:pageopacity="0.0"
     inkscape:pageshadow="2"
     inkscape:zoom="0.35"
     inkscape:cx="-1099.6754"
     inkscape:cy="999.4019"
     inkscape:document-units="mm"
     inkscape:current-layer="layer1"
     showgrid="false"
     inkscape:window-width="1920"
     inkscape:window-height="1017"
     inkscape:window-x="-8"
     inkscape:window-y="-8"
     inkscape:window-maximized="1" />
  <metadata
     id="metadata5">
    <rdf:RDF>
      <cc:Work
         rdf:about="">
        <dc:format>image/svg+xml</dc:format>
        <dc:type
           rdf:resource="http://purl.org/dc/dcmitype/StillImage" />
        <dc:title></dc:title>
      </cc:Work>
    </rdf:RDF>
  </metadata>
  <g
     inkscape:label="Ebene 1"
     inkscape:groupmode="layer"
     id="layer1">
    <path
       style="fill:#000000;stroke-width:0.17638889"
       d="m 100.28969,77.546667 c -0.334492,-0.16835 -0.454442,-0.38476 -0.496732,-0.8962 -0.0583,-0.70567 0.399962,-2.28737 0.805542,-2.7801 0.20831,-0.25306 0.17221,-0.29692 -0.30168,-0.36647 -0.29607,-0.0435 -0.582012,-0.0353 -0.635422,0.0181 -0.0534,0.0534 -0.747488,0.11614 -1.542396,0.1394 -2.31113,0.0676 -2.799068,0.15379 -3.82654,0.67577 l -0.970139,0.49286 -1.763889,-0.29546 c -2.087224,-0.34961 -3.324435,-0.89194 -3.409789,-1.49469 -0.0487,-0.34393 -0.131835,-0.39398 -0.500632,-0.30142 -0.720743,0.1809 -1.822217,0.69753 -1.822217,0.85469 0,0.0802 -0.533695,0.38783 -1.185988,0.68359 -1.02434,0.46446 -1.314946,0.5226 -2.132139,0.42655 -0.877967,-0.10318 -1.231992,-0.23754 -2.831446,-1.07456 -0.829947,-0.43432 -1.325682,-1.59656 -1.316649,-3.08686 0.01109,-1.83064 0.502292,-2.67249 2.584259,-4.42906 l 0.674289,-0.5689 1.365779,0.18031 c 0.815082,0.10762 1.740191,0.36838 2.294352,0.64672 1.025758,0.51521 1.626293,0.48449 2.038676,-0.10427 0.1365,-0.19488 0.432304,-0.44575 0.657343,-0.5575 0.365201,-0.18135 0.418638,-0.35773 0.497357,-1.6417 0.07768,-1.26703 0.157118,-1.53606 0.666335,-2.25664 0.797095,-1.12795 1.832298,-1.58403 3.478803,-1.53268 0.679098,0.0212 1.461843,0.12998 1.739431,0.24176 0.407443,0.16408 0.611406,0.14936 1.058333,-0.0764 0.304495,-0.15379 1.029875,-0.41964 1.611958,-0.59078 0.582084,-0.17114 1.177396,-0.46333 1.322917,-0.64932 1.037692,-1.32624 0.954232,-1.27601 1.707234,-1.02749 0.40083,0.13228 0.83876,0.44516 1.03677,0.74071 0.18854,0.28143 0.41808,0.51192 0.51008,0.5122 0.24697,7.4e-4 2.56675,1.58615 2.56675,1.75419 0,0.0791 0.23813,0.24243 0.52917,0.36298 0.29104,0.12056 0.52985,0.26909 0.53069,0.33008 8.9e-4,0.061 0.27602,0.40045 0.61149,0.75435 0.5274,0.55637 0.75541,0.66034 1.68455,0.76818 1.19904,0.13917 1.6645,0.48675 1.86178,1.39033 0.066,0.30218 0.26288,0.73175 0.43756,0.95458 1.07115,1.36648 0.19041,3.82269 -1.86848,5.21082 -0.31102,0.20968 -0.95293,0.69875 -1.42647,1.0868 l -0.86098,0.70556 0.0313,1.5324 c 0.0362,1.76888 -0.0486,1.90276 -1.29357,2.04309 -0.64148,0.0723 -0.86882,0.0273 -1.03929,-0.20588 -0.19936,-0.27263 -0.25034,-0.25757 -0.58994,0.17415 -0.20444,0.25991 -0.37172,0.52542 -0.37172,0.59002 0,0.0934 -1.48337,0.9008 -1.63631,0.8907 -0.0217,-10e-4 -0.23782,-0.10247 -0.48035,-0.22454 z"
       id="path876"
       inkscape:connector-curvature="0" />
  </g>
</svg>
