<?xml version="1.0" encoding="UTF-8" standalone="no"?>
<!-- Created with Inkscape (http://www.inkscape.org/) -->

<svg
   xmlns:dc="http://purl.org/dc/elements/1.1/"
   xmlns:cc="http://creativecommons.org/ns#"
   xmlns:rdf="http://www.w3.org/1999/02/22-rdf-syntax-ns#"
   xmlns:svg="http://www.w3.org/2000/svg"
   xmlns="http://www.w3.org/2000/svg"
   xmlns:sodipodi="http://sodipodi.sourceforge.net/DTD/sodipodi-0.dtd"
   xmlns:inkscape="http://www.inkscape.org/namespaces/inkscape"
   width="210mm"
   height="297mm"
   viewBox="0 0 210 297"
   version="1.1"
   id="svg884"
   inkscape:version="0.92.4 (5da689c313, 2019-01-14)"
   sodipodi:docname="clownfish2.svg">
  <defs
     id="defs878" />
  <sodipodi:namedview
     id="base"
     pagecolor="#ffffff"
     bordercolor="#666666"
     borderopacity="1.0"
     inkscape:pageopacity="0.0"
     inkscape:pageshadow="2"
     inkscape:zoom="1.4"
     inkscape:cx="447.31881"
     inkscape:cy="586.92598"
     inkscape:document-units="mm"
     inkscape:current-layer="layer1"
     showgrid="false"
     inkscape:window-width="1920"
     inkscape:window-height="1017"
     inkscape:window-x="-8"
     inkscape:window-y="-8"
     inkscape:window-maximized="1" />
  <metadata
     id="metadata881">
    <rdf:RDF>
      <cc:Work
         rdf:about="">
        <dc:format>image/svg+xml</dc:format>
        <dc:type
           rdf:resource="http://purl.org/dc/dcmitype/StillImage" />
        <dc:title></dc:title>
      </cc:Work>
    </rdf:RDF>
  </metadata>
  <g
     inkscape:label="Ebene 1"
     inkscape:groupmode="layer"
     id="layer1">
    <path
       style="fill:#000000;stroke-width:0.17638889"
       d="m 105.30622,148.95479 c -0.98539,-0.32517 -1.47463,-0.92429 -1.07836,-1.32056 0.31454,-0.31454 0.20151,-0.39546 -0.44672,-0.31978 -0.52357,0.0611 -0.64471,0.0113 -0.72566,-0.29823 -0.0962,-0.36782 -0.10056,-0.36729 -0.42985,0.0513 -0.18297,0.23261 -0.33267,0.50962 -0.33267,0.61559 0,0.10597 -0.15875,0.19266 -0.35278,0.19266 -0.19402,0 -0.35277,-0.0879 -0.35277,-0.19526 0,-0.10739 -0.11394,-0.15154 -0.25319,-0.0981 -0.13925,0.0534 -0.28854,0.002 -0.33175,-0.11342 -0.0432,-0.11582 -0.15898,-0.0121 -0.25727,0.2304 -0.32082,0.79169 -1.017164,1.27873 -1.957434,1.36908 -0.87004,0.0836 -0.87148,0.0829 -1.50069,-0.775 -0.3464,-0.47227 -0.63178,-0.99757 -0.63419,-1.16735 -0.003,-0.1982 -0.14193,-0.30868 -0.388724,-0.30868 -0.452274,0 -1.243715,-0.23919 -2.702454,-0.81672 -0.582083,-0.23046 -1.194593,-0.41879 -1.361134,-0.41851 -0.16654,3.6e-4 -0.5679,-0.25746 -0.891911,-0.57276 -0.32401,-0.31529 -0.785708,-0.73201 -1.025995,-0.92604 -0.762155,-0.61542 -1.395265,-1.51109 -1.395265,-1.97389 0,-1.13743 1.054831,-2.17937 2.498672,-2.46813 0.322607,-0.0645 0.688683,-0.21944 0.813502,-0.34426 0.124819,-0.12482 0.522049,-0.2798 0.882732,-0.34441 0.360684,-0.0646 0.774851,-0.21746 0.920371,-0.33967 0.617998,-0.51901 2.386588,-1.32061 2.913706,-1.32061 0.92072,0 1.87509,0.50214 2.81893,1.48316 0.923614,0.96 1.991774,1.78734 2.129634,1.64949 0.0445,-0.0445 -0.35699,-0.53651 -0.8921,-1.09344 -1.027524,-1.06939 -1.211904,-1.67996 -0.78641,-2.60417 0.1934,-0.42009 1.40041,-1.37532 1.73783,-1.37532 0.18155,0 0.26866,-0.25157 0.20598,-0.5949 -0.0155,-0.0847 0.0983,-0.10542 0.25285,-0.0461 0.15453,0.0593 0.23803,0.0383 0.18555,-0.0466 -0.14385,-0.23274 0.3869,-0.60136 0.69541,-0.48298 0.25442,0.0976 1.29549,-0.38275 3.07054,-1.41685 0.64642,-0.3766 0.9223,-0.43647 1.62671,-0.35304 0.97822,0.11585 1.75243,0.62252 2.18847,1.4322 0.2813,0.52235 0.28318,0.60647 0.0241,1.08144 -0.15451,0.28326 -0.43887,0.84904 -0.63191,1.25728 -0.19304,0.40825 -0.51398,0.84406 -0.71319,0.96848 -0.45074,0.28149 -0.45201,0.41251 -0.009,0.97515 0.53945,0.68581 0.48296,1.86041 -0.11198,2.32839 -0.25562,0.20107 -0.5673,0.36558 -0.69262,0.36558 -0.39524,0 -0.36038,0.58624 0.0619,1.04194 0.38373,0.41406 0.40003,0.53096 0.29609,2.12347 -0.13449,2.06052 -0.15395,2.12626 -0.62946,2.12626 -0.34692,0 -0.37244,0.0679 -0.28121,0.74801 0.0749,0.5587 0.025,0.83151 -0.19726,1.0779 -0.16368,0.18144 -0.29759,0.53936 -0.29759,0.79539 0,0.59243 -0.38258,0.64347 -1.66105,0.22158 z m -1.60215,-7.95263 c 0,-0.094 -0.11906,-0.12516 -0.26458,-0.0693 -0.14552,0.0558 -0.26458,0.13273 -0.26458,0.17085 0,0.0381 0.11906,0.0693 0.26458,0.0693 0.14552,0 0.26458,-0.0769 0.26458,-0.17086 z"
       id="path1451"
       inkscape:connector-curvature="0" />
  </g>
</svg>
