<?xml version="1.0" encoding="UTF-8" standalone="no"?>
<!-- Created with Inkscape (http://www.inkscape.org/) -->

<svg
   xmlns:dc="http://purl.org/dc/elements/1.1/"
   xmlns:cc="http://creativecommons.org/ns#"
   xmlns:rdf="http://www.w3.org/1999/02/22-rdf-syntax-ns#"
   xmlns:svg="http://www.w3.org/2000/svg"
   xmlns="http://www.w3.org/2000/svg"
   xmlns:sodipodi="http://sodipodi.sourceforge.net/DTD/sodipodi-0.dtd"
   xmlns:inkscape="http://www.inkscape.org/namespaces/inkscape"
   width="210mm"
   height="297mm"
   viewBox="0 0 210 297"
   version="1.1"
   id="svg884"
   inkscape:version="0.92.4 (5da689c313, 2019-01-14)"
   sodipodi:docname="surgeonfish4.svg">
  <defs
     id="defs878" />
  <sodipodi:namedview
     id="base"
     pagecolor="#ffffff"
     bordercolor="#666666"
     borderopacity="1.0"
     inkscape:pageopacity="0.0"
     inkscape:pageshadow="2"
     inkscape:zoom="3.959798"
     inkscape:cx="663.7831"
     inkscape:cy="-261.20704"
     inkscape:document-units="mm"
     inkscape:current-layer="layer1"
     showgrid="false"
     inkscape:window-width="958"
     inkscape:window-height="1008"
     inkscape:window-x="-7"
     inkscape:window-y="0"
     inkscape:window-maximized="0" />
  <metadata
     id="metadata881">
    <rdf:RDF>
      <cc:Work
         rdf:about="">
        <dc:format>image/svg+xml</dc:format>
        <dc:type
           rdf:resource="http://purl.org/dc/dcmitype/StillImage" />
        <dc:title></dc:title>
      </cc:Work>
    </rdf:RDF>
  </metadata>
  <g
     inkscape:label="Ebene 1"
     inkscape:groupmode="layer"
     id="layer1">
    <path
       style="fill:#000000;stroke-width:0.17638887"
       d="m 195.77137,365.41997 c -0.53357,-0.19108 -1.44639,-0.51216 -2.02847,-0.71351 -2.03329,-0.70335 -3.54281,-1.99813 -4.50765,-3.86643 -0.32451,-0.62838 -0.41214,-1.08772 -0.42057,-2.20486 l -0.0108,-1.41111 -0.88194,-0.4932 c -1.0441,-0.58386 -2.20726,-1.67146 -2.19902,-2.05613 0.007,-0.31447 2.53977,-2.00016 3.06355,-2.03874 0.19253,-0.0143 0.38104,-0.11876 0.41891,-0.23241 0.0379,-0.11363 0.17283,-0.2066 0.29988,-0.2066 0.12707,0 0.2767,-0.11906 0.33254,-0.26459 0.13014,-0.33912 0.53633,-0.33958 0.81739,-0.002 0.12035,0.14501 0.3581,0.79902 0.52834,1.45336 l 0.30953,1.1897 1.22071,-0.0564 c 1.26907,-0.0586 2.96401,0.36878 3.96618,1.00016 1.06403,0.67033 2.92033,3.2318 2.77837,3.83382 -0.0214,0.0908 0.007,0.28407 0.0636,0.42959 0.67996,1.755 0.68883,1.96353 0.15033,3.53404 -0.78611,2.29276 -0.70677,2.16359 -1.15048,1.87284 -0.34392,-0.22533 -0.43046,-0.20843 -0.87048,0.17006 -0.5846,0.50287 -0.64193,0.50474 -1.88004,0.0613 z m -19.22639,-5.30983 c -0.33954,-0.0906 -1.08417,-0.15909 -1.65472,-0.1523 -1.26728,0.0152 -2.0728,-0.23264 -3.09194,-0.95084 -0.80757,-0.56912 -2.1325,-2.39831 -2.1325,-2.94412 0,-0.24896 -0.20682,-0.33765 -1.01424,-0.43493 -0.55783,-0.0672 -1.27806,-0.23006 -1.60052,-0.36191 -0.67149,-0.27455 -0.66391,-0.4009 0.11917,-1.98621 0.43122,-0.87295 1.25769,-1.78841 1.61458,-1.78841 0.21039,0 0.62068,0.43311 1.44686,1.52741 0.3912,0.51812 0.755,0.94204 0.80846,0.94204 0.0535,0 0.22254,-0.10675 0.37569,-0.23723 0.59731,-0.50883 1.76479,-0.80294 3.30142,-0.83165 2.6938,-0.0504 4.00391,0.28091 4.57837,1.15764 0.15646,0.23881 0.54587,0.59573 0.86535,0.79318 0.66618,0.41173 1.13917,1.06451 1.33447,1.84175 0.0746,0.29672 0.21595,0.79736 0.31422,1.11254 0.13068,0.41924 0.12123,0.63228 -0.0353,0.79375 -0.11765,0.12139 -0.39331,0.47589 -0.61258,0.78778 -0.24857,0.35356 -0.64486,0.63544 -1.05253,0.74867 -0.78885,0.21909 -2.71306,0.20981 -3.56428,-0.0171 z m 7.59286,-8.19494 c -2.16528,-0.58198 -3.55066,-1.76726 -3.80159,-3.25249 -0.1285,-0.76061 -0.0348,-0.72478 -2.02738,-0.77488 -1.28501,-0.0323 -1.32184,-0.3281 -0.29584,-2.37615 1.02662,-2.0493 1.11651,-2.0826 2.3273,-0.86212 l 0.9882,0.99612 0.63145,-0.42852 c 1.51215,-1.02617 4.9962,-0.1122 6.72603,1.76442 l 0.74806,0.81157 -0.0504,1.70571 -0.0505,1.7057 -0.79375,0.48234 c -0.67675,0.41125 -0.98873,0.48269 -2.11667,0.48461 -0.7276,0.002 -1.75583,-0.11411 -2.28492,-0.25631 z m -16.10201,-2.70597 c -1.61779,-0.43631 -3.0524,-1.16547 -3.83727,-1.95035 -0.51779,-0.51779 -0.67838,-0.838 -0.77123,-1.53802 l -0.11728,-0.88408 -1.32623,-0.12017 c -0.72944,-0.0661 -1.44251,-0.1648 -1.58463,-0.21934 -0.5359,-0.20565 -0.11181,-3.15756 0.54185,-3.77165 l 0.37564,-0.35291 0.81261,0.62047 c 0.44691,0.34126 0.87063,0.62047 0.94158,0.62047 0.0709,0 0.27414,0.13135 0.45155,0.29192 0.30217,0.27347 0.32256,0.26984 0.32256,-0.0575 0,-0.40541 0.53335,-0.93624 1.41112,-1.40446 0.51835,-0.27651 0.99922,-0.32773 2.99861,-0.31939 2.06107,0.009 2.52354,0.0653 3.43958,0.42199 1.21232,0.47204 2.38125,1.55627 2.38125,2.20875 0,0.23151 0.12455,0.54548 0.27677,0.69772 0.64924,0.64923 1.60874,3.80536 1.15688,3.80536 -0.10941,0 -0.19893,0.1439 -0.19893,0.31978 0,0.17587 -0.23211,0.54214 -0.51578,0.81392 -0.4345,0.41628 -0.66385,0.49359 -1.4552,0.49059 -0.5167,-0.002 -1.09818,0.0617 -1.29221,0.14147 -0.54875,0.22562 -1.96432,0.52844 -2.41526,0.51668 -0.22384,-0.006 -0.94202,-0.15491 -1.59598,-0.3313 z"
       id="path1581"
       inkscape:connector-curvature="0"
       sodipodi:nodetypes="cccccccccsccccccccccccccccscccscscccccccccccccccccccccccccccccccccccscscccscsscccccc" />
  </g>
</svg>
