<?xml version="1.0" encoding="UTF-8" standalone="no"?>
<!-- Created with Inkscape (http://www.inkscape.org/) -->

<svg
   xmlns:dc="http://purl.org/dc/elements/1.1/"
   xmlns:cc="http://creativecommons.org/ns#"
   xmlns:rdf="http://www.w3.org/1999/02/22-rdf-syntax-ns#"
   xmlns:svg="http://www.w3.org/2000/svg"
   xmlns="http://www.w3.org/2000/svg"
   xmlns:sodipodi="http://sodipodi.sourceforge.net/DTD/sodipodi-0.dtd"
   xmlns:inkscape="http://www.inkscape.org/namespaces/inkscape"
   width="210mm"
   height="297mm"
   viewBox="0 0 210 297"
   version="1.1"
   id="svg8"
   inkscape:version="0.92.4 (5da689c313, 2019-01-14)"
   sodipodi:docname="bicycle.svg">
  <defs
     id="defs2" />
  <sodipodi:namedview
     id="base"
     pagecolor="#ffffff"
     bordercolor="#666666"
     borderopacity="1.0"
     inkscape:pageopacity="0.0"
     inkscape:pageshadow="2"
     inkscape:zoom="0.7"
     inkscape:cx="96.459225"
     inkscape:cy="610.4356"
     inkscape:document-units="mm"
     inkscape:current-layer="layer1"
     showgrid="false"
     inkscape:window-width="1440"
     inkscape:window-height="837"
     inkscape:window-x="1912"
     inkscape:window-y="166"
     inkscape:window-maximized="1" />
  <metadata
     id="metadata5">
    <rdf:RDF>
      <cc:Work
         rdf:about="">
        <dc:format>image/svg+xml</dc:format>
        <dc:type
           rdf:resource="http://purl.org/dc/dcmitype/StillImage" />
        <dc:title></dc:title>
      </cc:Work>
    </rdf:RDF>
  </metadata>
  <g
     inkscape:label="Ebene 1"
     inkscape:groupmode="layer"
     id="layer1">
    <path
       style="fill:#000000;stroke-width:0.17638889"
       d="m 64.711461,174.81484 c -0.66417,-0.14937 -1.65636,-0.44307 -2.20486,-0.65266 -0.5485,-0.20959 -1.0432,-0.38421 -1.09935,-0.38805 -0.42246,-0.0289 -2.640915,-1.7427 -3.628969,-2.80352 -1.461741,-1.56938 -2.359693,-3.05038 -2.879983,-4.74998 -0.21432,-0.7001 -0.473803,-1.44935 -0.576628,-1.665 -0.272052,-0.57054 -0.03862,-4.10061 0.378153,-5.71865 0.892664,-3.46559 3.295163,-6.64221 6.163497,-8.14948 2.25406,-1.18447 6.30422,-1.72023 8.91192,-1.17888 1.21751,0.25276 3.2646,1.07382 4.02212,1.61321 l 0.54477,0.38791 0.28638,-0.35948 c 0.15751,-0.19771 0.58414,-0.71466 0.94807,-1.14878 1.21847,-1.45342 1.21998,-1.43664 -0.4353,-4.82216 -0.80361,-1.64362 -1.6354,-3.23213 -1.84842,-3.53004 -0.51695,-0.72295 -1.54484,-3.11373 -1.82721,-4.24993 -0.22617,-0.91001 -0.23027,-0.91404 -1.03475,-1.01553 -0.44422,-0.056 -1.30581,-0.1393 -1.91464,-0.18501 -2.19557,-0.16485 -3.127,-1.17681 -2.47052,-2.68412 0.72698,-1.66919 2.02033,-2.66326 3.21321,-2.46968 l 0.58314,0.0946 0.0213,-0.92342 c 0.0206,-0.89155 -2.9e-4,-0.9337 -0.6037,-1.22145 -0.91123,-0.43454 -2.29634,-1.79738 -3.02259,-2.974 -0.34802,-0.56383 -0.73092,-1.02514 -0.8509,-1.02514 -0.25562,0 -2.09854,-1.08718 -2.57716,-1.52032 -0.19409,-0.17566 -0.32956,-0.53584 -0.32956,-0.87626 0,-0.69205 0.39769,-1.01544 2.20487,-1.79294 1.6579,-0.71328 2.25228,-0.87731 3.68539,-1.01707 1.13365,-0.11056 1.26914,-0.17103 2.00201,-0.89353 0.48937,-0.48245 1.06199,-0.84925 1.51707,-0.97179 0.40205,-0.10826 1.02209,-0.45982 1.37787,-0.78124 0.35577,-0.32142 0.79279,-0.66556 0.97115,-0.76475 0.17835,-0.0992 1.37338,-1.20998 2.65562,-2.46841 1.58196,-1.55259 2.53971,-2.35682 2.97959,-2.50199 1.1416,-0.37676 3.04893,-1.39285 3.21469,-1.71255 0.1187,-0.22897 -0.1715,-1.09033 -1.11457,-3.30818 l -1.27506,-2.99861 -1.44538,-0.0514 c -0.79496,-0.0283 -1.89774,0.0438 -2.45063,0.16013 -0.55289,0.11633 -1.45638,0.24545 -2.00776,0.28694 l -1.00251,0.0754 -0.46593,-0.76473 c -0.25627,-0.4206 -0.81828,-1.08223 -1.24891,-1.47028 -0.76833,-0.69236 -0.77881,-0.71662 -0.56004,-1.29681 0.18298,-0.485254 0.45073,-0.69945 1.49342,-1.194703 l 1.27047,-0.603443 1.28717,0.462018 c 0.70794,0.254111 2.16029,0.655756 3.22745,0.892546 4.12101,0.914412 4.26639,1.009952 5.19815,3.416082 1.26636,3.27017 1.6392,4.06156 1.83816,3.90159 0.47454,-0.38154 3.02064,-1.25575 3.6573,-1.25575 0.83482,0 1.68162,-0.40372 2.17623,-1.03752 1.07099,-1.37241 1.28545,-1.53419 1.69859,-1.28137 0.34321,0.21004 0.41108,0.19943 0.56413,-0.0882 0.0957,-0.17982 0.59482,-0.74073 1.10919,-1.24647 0.51437,-0.50574 0.93891,-1.06137 0.94342,-1.23473 0.004,-0.17335 0.0553,-0.79144 0.11289,-1.373525 0.0633,-0.640245 0.007,-1.523751 -0.14151,-2.236477 -0.29397,-1.406685 -0.11167,-2.384482 0.64925,-3.482492 0.74689,-1.077769 1.76411,-1.49641 3.3454,-1.376818 1.523379,0.115213 2.447309,0.47105 3.278659,1.262711 1.26492,1.204544 2.01165,1.292609 2.8045,0.330746 0.29542,-0.358399 0.56617,-0.616368 0.60166,-0.573263 0.0355,0.0431 0.24313,0.455243 0.46142,0.915864 0.31343,0.661415 0.37062,0.99518 0.27198,1.587501 -0.16163,0.970616 -0.66241,1.948392 -1.22423,2.390316 -0.47268,0.371815 -0.54848,0.826511 -0.28876,1.732127 0.17586,0.61319 -0.0173,1.98835 -0.30413,2.16565 -0.10258,0.0634 -0.27456,0.50814 -0.38217,0.9883 -0.22175,0.98951 -0.40246,1.16305 -1.07174,1.02919 -0.38557,-0.0771 -0.55599,0.0172 -0.93959,0.52016 -0.25773,0.3379 -0.56861,0.96096 -0.69086,1.38459 -0.16942,0.58712 -0.31892,0.78415 -0.62886,0.82879 -0.50496,0.0727 -1.28976,-0.23112 -2.278139,-0.88199 -0.76814,-0.50584 -1.1924,-0.62065 -1.29937,-0.35162 -0.0323,0.0813 -0.67378,0.68195 -1.42542,1.33473 -0.75164,0.65278 -1.41088,1.36325 -1.46499,1.57881 -0.11611,0.46264 0.13965,1.20549 0.63821,1.85358 0.35068,0.45587 2.30052,3.4481 4.221879,6.47891 0.53357,0.84167 1.43114,2.00962 1.99459,2.59544 1.22368,1.27224 1.39888,1.56837 1.25858,2.12738 -0.0587,0.23394 -0.0229,0.47719 0.0796,0.54054 0.10251,0.0634 0.47308,0.6078 0.82348,1.20987 0.35041,0.60207 1.14333,1.92811 1.76204,2.94676 0.61872,1.01864 1.45485,2.43203 1.85806,3.14086 0.73309,1.28876 1.30907,1.84409 1.9626,1.89224 0.19118,0.0141 0.39984,0.10583 0.46368,0.20388 0.0639,0.098 0.29468,0.27231 0.51296,0.38726 0.52714,0.2776 0.50066,0.64789 -0.12952,1.81139 -0.51429,0.94954 -1.23763,1.51356 -1.63006,1.27103 -0.2922,-0.18059 -3.02108,-0.2075 -3.24786,-0.032 -0.11681,0.0904 -0.52278,0.0812 -0.97014,-0.022 -0.42311,-0.0976 -0.81078,-0.17932 -0.86149,-0.18169 -0.0507,-0.002 -0.0475,0.49178 0.007,1.09812 0.0774,0.85903 0.25796,1.37503 0.81788,2.33715 0.86828,1.49196 2.32231,3.93862 2.85756,4.80832 0.1067,0.17337 0.36686,0.14038 1.18362,-0.15009 0.81126,-0.28851 1.62647,-0.39334 3.62232,-0.46582 2.34974,-0.0853 2.68211,-0.0584 3.79236,0.3069 4.87713,1.6048 8.06721,5.10941 9.06501,9.95881 0.48641,2.364 0.46175,3.96789 -0.0878,5.70743 -1.82264,5.76968 -6.87248,9.53722 -12.80331,9.55216 -1.91465,0.005 -3.70013,-0.44268 -5.69671,-1.4278 -2.50334,-1.23515 -4.07436,-2.92233 -5.48312,-5.88852 -0.85069,-1.79117 -1.17895,-3.33699 -1.1658,-5.49002 0.0241,-3.94718 1.25787,-6.95954 3.92597,-9.58565 l 1.22767,-1.20835 -0.84188,-1.26607 -0.84188,-1.26606 -0.48799,0.58863 c -0.26839,0.32374 -0.8673,1.14084 -1.33091,1.81576 -0.9731,1.41662 -3.574669,4.91243 -4.993839,6.71037 -0.53603,0.6791 -1.27686,1.68711 -1.64628,2.24004 -0.36943,0.55292 -1.15852,1.5848 -1.75354,2.29305 -0.59502,0.70826 -1.77487,2.20056 -2.62188,3.31622 l -1.54002,2.02847 0.82923,0.3729 c 1.02496,0.46092 1.52612,0.99975 1.80273,1.93824 0.45844,1.55543 -0.55046,2.14897 -4.04244,2.37818 -1.31951,0.0866 -2.72226,0.20492 -3.11721,0.26291 -1.23131,0.1808 -2.78002,-0.49145 -3.10935,-1.34966 -0.0714,-0.18613 -0.41222,-0.27579 -1.16064,-0.30535 l -1.05953,-0.0418 -0.0917,0.66537 c -0.28653,2.07989 -1.37622,4.22518 -3.08208,6.06771 -1.32391,1.42998 -2.51919,2.29575 -4.37639,3.16993 -1.48051,0.69686 -1.57795,0.71734 -3.75071,0.78816 -1.59879,0.0521 -2.5728,-0.004 -3.4383,-0.19887 z m 5.06527,-1.22552 c 1.80358,-0.46978 4.06032,-1.78069 5.51728,-3.20493 1.08848,-1.06404 1.45298,-1.57448 2.10071,-2.94186 0.43105,-0.90995 0.83412,-2.02212 0.89571,-2.47151 0.10277,-0.74977 0.0812,-0.81706 -0.2614,-0.81706 -0.26364,0 -0.40504,0.14258 -0.48107,0.48507 -0.79145,3.56534 -2.52736,5.92163 -5.39208,7.31912 -2.21117,1.07867 -2.83841,1.22518 -5.13835,1.20024 -2.93551,-0.0318 -4.87882,-0.65192 -6.39014,-2.03904 -3.422174,-3.14092 -4.281898,-4.7921 -4.448473,-8.54369 -0.10169,-2.29026 0.100013,-3.14588 1.307382,-5.54589 0.857043,-1.70364 2.928361,-3.78348 4.500781,-4.5193 3.06447,-1.43404 6.83586,-1.39737 9.64401,0.0938 0.83336,0.44252 1.18469,0.55153 1.28007,0.3972 0.50766,-0.82142 -3.22792,-2.21922 -6.11016,-2.28635 -3.03448,-0.0707 -5.97135,1.12402 -7.909631,3.21754 -1.367808,1.47736 -2.80807,4.13226 -3.098567,5.71172 -0.274026,1.48992 -0.23802,4.07942 0.07384,5.31041 0.62035,2.44867 2.426942,5.2141 4.301148,6.58395 2.65685,1.94188 6.70756,2.80633 9.60894,2.05062 z m -1.56007,-1.10098 c -0.067,-0.26679 -0.18524,-1.98152 -0.26266,-3.81052 -0.12667,-2.99228 -0.17642,-3.36109 -0.49662,-3.68129 l -0.35585,-0.35585 -0.32383,0.49423 c -0.37375,0.57042 -0.53635,2.65801 -0.45599,5.85456 l 0.0499,1.98394 h 0.98348 0.98349 z m -2.207,-2.64584 c 0.001,-1.62498 0.0465,-3.15295 0.10033,-3.39548 0.0794,-0.35738 0.0625,-0.38604 -0.0888,-0.15115 -0.16647,0.25836 -0.89114,2.85333 -1.50585,5.39224 -0.2497,1.03133 -0.21816,1.07291 0.83047,1.09498 l 0.66145,0.0139 0.002,-2.95452 z m 3.7964,2.77568 c 0.34977,-0.13298 0.43888,-0.25737 0.34754,-0.48507 -0.0676,-0.16843 -0.32382,-1.25873 -0.56945,-2.4229 -0.38905,-1.84393 -1.08262,-3.61597 -1.41526,-3.61597 -0.0993,0 0.0521,3.33596 0.25011,5.51215 0.0994,1.09197 0.14184,1.19063 0.51251,1.19063 0.22229,0 0.61584,-0.0805 0.87455,-0.17884 z m -5.30271,-2.07012 c 0.70987,-2.76955 0.72006,-2.83365 0.39943,-2.51354 -0.32734,0.32681 -2.42331,3.66909 -2.42331,3.86426 0,0.13213 0.90315,0.48705 1.3422,0.52745 0.10762,0.01 0.41438,-0.83527 0.68168,-1.87817 z m 7.19415,1.33112 0.48678,-0.1762 -0.36073,-0.46721 c -0.19841,-0.25697 -0.76981,-1.0806 -1.2698,-1.83028 -0.49998,-0.74967 -0.92746,-1.34464 -0.94995,-1.32215 -0.0768,0.0768 0.63367,3.38953 0.81599,3.80494 0.1306,0.29757 0.26751,0.37939 0.48635,0.29064 0.16752,-0.0679 0.52363,-0.20283 0.79136,-0.29974 z m -9.17744,-0.80195 c 1.99931,-2.99646 3.02664,-4.74641 3.13531,-5.34065 0.0696,-0.38071 0.0578,-0.64874 -0.0264,-0.59674 -0.084,0.0519 -0.74367,0.82369 -1.46589,1.71503 -0.72223,0.89134 -1.77949,2.12929 -2.34948,2.75101 l -1.03633,1.13039 0.52447,0.5012 c 0.28845,0.27567 0.58127,0.50122 0.6507,0.50122 0.0694,0 0.32485,-0.29766 0.56758,-0.66146 z m 11.09804,-0.34189 c 0.12464,-0.14896 -0.041,-0.40413 -0.57246,-0.88195 -0.41131,-0.36979 -1.46092,-1.50153 -2.33246,-2.51498 l -1.58462,-1.84263 0.0884,0.7843 c 0.0672,0.59593 0.37721,1.20796 1.29085,2.54819 2.02873,2.97599 1.82229,2.76969 2.42039,2.41865 0.28297,-0.16609 0.59343,-0.3963 0.68989,-0.51158 z m -12.36234,-0.98103 c 0.32957,-0.41231 1.03739,-1.23333 1.57292,-1.8245 1.64146,-1.81195 3.17857,-3.76707 3.17857,-4.04296 0,-0.17252 -0.17757,-0.26205 -0.51971,-0.26205 -0.43509,0 -0.99597,0.4702 -3.44461,2.88773 l -2.924895,2.88773 0.628525,0.55185 c 0.34569,0.30352 0.69185,0.55185 0.76925,0.55185 0.0774,0 0.41038,-0.33734 0.73995,-0.74965 z m 13.56804,-0.0882 0.55196,-0.66146 -0.66109,-0.52917 c -0.3636,-0.29104 -1.38011,-1.16645 -2.25891,-1.94535 -2.50478,-2.22005 -3.14171,-2.72895 -3.4155,-2.72895 -0.50866,0 -0.0417,1.09881 0.9664,2.27422 1.23294,1.43751 3.97471,4.25216 4.14206,4.25216 0.0677,0 0.3715,-0.29765 0.67508,-0.66145 z m -12.87578,-3.4722 c 1.40545,-1.41302 2.46581,-2.56912 2.35637,-2.56912 -0.31799,0 -3.27464,1.79904 -4.91331,2.98961 l -1.502911,1.09194 0.48633,0.67657 c 0.35782,0.49779 0.556598,0.63741 0.752249,0.52835 0.146252,-0.0815 1.415832,-1.30433 2.821272,-2.71735 z m 14.04957,0.87046 c -0.23192,-0.19403 -0.80853,-0.56879 -1.28135,-0.8328 -0.47283,-0.264 -1.29625,-0.79109 -1.82982,-1.1713 -0.61842,-0.44066 -1.25691,-0.73342 -1.76112,-0.80749 l -0.79099,-0.11621 0.5264,0.55677 c 0.28952,0.30622 1.47132,1.35123 2.62623,2.32225 l 2.09982,1.76547 0.41625,-0.68196 0.41625,-0.68195 z M 58.98405,166.51032 c 0.585141,-0.45026 1.789581,-1.25267 2.676531,-1.78314 0.88695,-0.53047 1.64051,-0.99031 1.67456,-1.02186 0.0341,-0.0315 -1.07719,-0.0319 -2.46944,-8.8e-4 -1.39225,0.0311 -2.937838,0.0655 -3.434636,0.0766 l -0.903268,0.0201 0.140506,0.75209 c 0.197403,1.05665 0.863012,2.77568 1.074741,2.77568 0.09741,0 0.655865,-0.36839 1.241006,-0.81864 z m 17.783431,-0.15303 c 0.11234,-0.3404 0.17213,-0.71528 0.13286,-0.83308 -0.0615,-0.1845 -3.65298,-0.90805 -3.79623,-0.7648 -0.0278,0.0278 0.42943,0.35939 1.0161,0.73681 0.58668,0.37742 1.32299,0.85801 1.63624,1.06798 0.75976,0.50927 0.77575,0.506 1.01103,-0.20691 z m 39.510599,-0.0621 c 3.26825,-1.04905 6.10203,-3.74693 7.38711,-7.03286 0.589,-1.50604 0.81984,-3.74215 0.55684,-5.3939 -0.69819,-4.38488 -3.45683,-7.81225 -7.43275,-9.23454 -1.14272,-0.40879 -1.59001,-0.46889 -3.598,-0.48345 -1.80487,-0.0131 -2.50899,0.0542 -3.3073,0.31619 -0.55783,0.18305 -1.01423,0.40134 -1.01423,0.48507 0,0.20136 0.30524,0.19547 0.43119,-0.008 0.18371,-0.29726 2.62162,-0.5931 4.00709,-0.48626 2.6436,0.20386 5.54123,1.48585 7.12136,3.15068 2.04511,2.15473 2.99478,3.90198 3.14507,5.78642 0.0503,0.63059 0.0545,0.94809 0.009,0.70555 -0.18249,-0.98034 -0.47985,-1.94027 -0.60103,-1.94027 -0.0708,0 -0.75496,0.29004 -1.52048,0.64454 -0.76552,0.35451 -1.98717,0.86376 -2.71477,1.13167 -0.72761,0.26792 -1.20386,0.52588 -1.05834,0.57325 0.14552,0.0474 0.41199,0.13421 0.59216,0.19297 0.26602,0.0867 2.63396,-0.26962 4.65541,-0.70064 0.21828,-0.0466 0.39688,-0.012 0.39688,0.0768 0,0.0888 -0.79469,0.30103 -1.76598,0.47164 -0.97128,0.17061 -1.72788,0.34829 -1.68133,0.39485 0.0465,0.0465 0.85911,0.26727 1.80569,0.49049 1.23233,0.2906 1.7849,0.35285 1.94592,0.21922 0.35526,-0.29484 0.28446,0.97154 -0.13995,2.50307 -0.58772,2.12084 -1.46376,3.61518 -3.01848,5.14888 -1.49417,1.47398 -2.74851,2.19153 -4.71648,2.69807 -1.33267,0.34302 -3.80264,0.38067 -5.04535,0.0769 -2.8722,-0.70206 -6.18105,-3.07767 -7.30432,-5.2442 -1.34905,-2.60199 -1.71057,-5.05871 -1.16017,-7.88379 0.42591,-2.18609 1.25123,-3.72274 2.87597,-5.35474 0.7106,-0.71378 1.255,-1.33479 1.20977,-1.38001 -0.15788,-0.15789 -1.0901,0.44913 -1.71982,1.11986 -1.40929,1.50108 -1.9916,2.68308 -2.72272,5.52669 -0.58773,2.28589 5.3e-4,6.26147 1.24149,8.39153 0.90615,1.55526 2.8968,3.40205 4.60815,4.27511 0.39612,0.20209 1.42616,0.56651 2.28898,0.80982 1.96408,0.55387 4.43022,0.53557 6.24307,-0.0463 z m -47.448609,-0.54391 c 0,-0.30092 -0.18311,-0.72747 -0.4354,-1.01424 -0.53573,-0.60895 -0.57802,-0.27245 -0.0985,0.78392 0.40073,0.88281 0.53392,0.94027 0.53392,0.23032 z m 47.305689,-0.17058 c 0.62918,-0.17993 1.35021,-0.43565 1.60229,-0.56827 l 0.45832,-0.24113 -0.71037,-1.67569 c -0.39071,-0.92163 -0.92881,-2.23132 -1.19579,-2.91042 -0.98066,-2.49448 -1.46489,-3.53691 -1.82307,-3.92465 -0.47455,-0.51371 -0.57208,-0.50075 -0.82488,0.10956 -0.18553,0.44792 -0.10394,0.83006 0.70617,3.30729 0.50377,1.54047 1.14734,3.38638 1.43015,4.10202 0.28281,0.71564 0.47135,1.34403 0.41896,1.39642 -0.0524,0.0524 -0.12378,0.0622 -0.15864,0.0218 -0.16283,-0.18876 -1.55301,-3.97737 -2.0807,-5.67045 -0.32446,-1.04103 -0.64947,-1.89431 -0.72223,-1.89618 -0.25787,-0.007 -0.1266,1.78828 0.29315,4.0083 0.53427,2.82575 0.68778,4.10219 0.49334,4.10219 -0.0834,0 -0.28724,-0.89297 -0.45288,-1.98437 -0.16565,-1.09141 -0.40201,-2.53893 -0.52526,-3.21673 l -0.22408,-1.23235 -0.48844,2.1143 c -0.26865,1.16286 -0.62914,2.64601 -0.8011,3.2959 l -0.31265,1.1816 0.63413,0.0776 c 1.07819,0.13191 3.08509,-0.0539 4.28358,-0.39668 z m -4.98814,-0.50072 c 0.53715,-2.03959 1.27164,-5.54981 1.18037,-5.64108 -0.0584,-0.0584 -0.10625,-0.009 -0.10625,0.10929 0,0.29318 -2.06606,4.56841 -2.50699,5.18765 -0.39397,0.55328 -0.39053,0.56593 0.22039,0.8098 0.80447,0.32112 1.02787,0.23532 1.21248,-0.46566 z m -0.9831,-1.79784 c 0.54432,-1.06157 1.31487,-2.7086 1.71233,-3.66007 0.65352,-1.56443 0.71134,-1.82275 0.60434,-2.70007 -0.14849,-1.21756 -0.17955,-1.26357 -0.6946,-1.0289 -0.31069,0.14157 -0.47908,0.43163 -0.63613,1.09578 -0.11748,0.49679 -0.75494,2.48793 -1.41658,4.42474 -1.15565,3.38292 -1.22579,3.78201 -0.66718,3.79596 0.0595,0.001 0.5535,-0.86586 1.09782,-1.92744 z m -43.320849,0.998 c -0.11195,-0.33583 -0.39772,-0.10782 -0.44294,0.35339 -0.0462,0.47164 -0.0376,0.47723 0.22287,0.14491 0.14902,-0.19011 0.24805,-0.41434 0.22007,-0.4983 z m 10.346,0.47674 c 0.0589,-0.15346 0.10707,-0.34115 0.10707,-0.41709 0,-0.0759 -1.01203,-0.19391 -2.24896,-0.26215 -1.23693,-0.0682 -2.43939,-0.16994 -2.67214,-0.226 -0.25661,-0.0618 -0.38082,-0.0334 -0.31556,0.0722 0.11291,0.18269 1.99883,0.65689 3.64916,0.91756 1.3902,0.21957 1.36314,0.22112 1.48043,-0.0845 z m -9.53345,-0.34596 c -0.0575,-0.14971 -0.14228,-0.23436 -0.18852,-0.18813 -0.0462,0.0462 -0.0317,0.16873 0.0322,0.2722 0.17393,0.28142 0.27559,0.22675 0.15632,-0.0841 z m 41.908509,-3.49861 c 0.68524,-2.07393 1.24337,-3.84003 1.24029,-3.92465 -0.0116,-0.31739 -0.58389,0.61268 -1.52609,2.48005 -0.53513,1.06059 -1.28853,2.44778 -1.67422,3.08265 -0.3857,0.63487 -0.71512,1.21419 -0.73205,1.28738 -0.0367,0.15847 0.93735,0.81403 1.23686,0.83248 0.11976,0.007 0.74238,-1.60047 1.45521,-3.75791 z m 9.70633,3.10934 0.5285,-0.48507 -1.05261,-1.4993 c -0.57893,-0.82462 -1.53834,-2.21368 -2.13201,-3.08681 -0.59368,-0.87312 -1.10619,-1.61612 -1.13892,-1.65111 -0.0542,-0.0579 0.85012,2.17423 2.16955,5.35528 0.28167,0.67909 0.56311,1.37363 0.62542,1.5434 0.157,0.4278 0.38574,0.38746 1.00007,-0.17639 z m -10.81003,-3.66007 0.79903,-1.5875 -1.95321,2.02025 -1.95322,2.02024 0.56774,0.47744 0.56773,0.47743 0.58645,-0.91018 c 0.32254,-0.5006 0.94601,-1.62455 1.38548,-2.49768 z m -43.841069,2.5411 0.54867,-0.39068 -0.41824,-0.3179 c -0.36945,-0.28082 -0.88741,-0.32394 -4.44028,-0.36965 -3.948468,-0.0508 -4.02031,-0.0453 -3.927062,0.30102 0.05224,0.19403 0.09607,0.58345 0.09739,0.86538 l 0.0024,0.5126 3.794222,-0.10504 c 3.54368,-0.0981 3.83045,-0.13084 4.34289,-0.49573 z m 0.70483,0.0759 c 0.21952,-0.2661 0.20509,-0.27375 -0.15479,-0.082 -0.41045,0.2187 -0.51151,0.37545 -0.24208,0.37545 0.0851,0 0.26373,-0.13206 0.39687,-0.29346 z m 55.496099,-0.38909 c 0.3637,-0.3754 0.84139,-1.00409 1.06155,-1.39709 l 0.40028,-0.71456 -2.28986,-1.50745 c -1.87024,-1.23119 -3.73061,-2.32124 -4.65775,-2.72908 -0.0824,-0.0363 -0.01,0.14797 0.1616,0.40937 0.17129,0.26141 1.42933,1.37096 2.79566,2.46568 1.36632,1.09471 2.63544,2.16008 2.82025,2.36748 0.58146,0.65253 0.004,0.40975 -0.89021,-0.37425 -1.29843,-1.13845 -3.54843,-2.95283 -3.66178,-2.95283 -0.0552,0 0.0374,0.2193 0.20571,0.48734 0.5479,0.87234 3.24037,4.62794 3.31788,4.62794 0.0415,0 0.37298,-0.30715 0.73667,-0.68255 z m -10.98215,-5.0115 c 0.17276,-0.26981 0.28219,-0.5225 0.24317,-0.56152 -0.0975,-0.0975 -6.03618,3.7079 -6.10402,3.91141 -0.03,0.0899 0.18525,0.49439 0.47826,0.89887 l 0.53273,0.73543 2.26787,-2.24681 c 1.24733,-1.23574 2.40922,-2.46756 2.58199,-2.73738 z m -44.183669,4.37113 c 0,-0.14552 -0.12878,-0.26458 -0.28618,-0.26458 -0.23438,0 -0.24644,0.0479 -0.0666,0.26458 0.12077,0.14552 0.24955,0.26459 0.28618,0.26459 0.0366,0 0.0666,-0.11907 0.0666,-0.26459 z m 15.74509,-1.36921 c 0.54906,-1.43795 0.59071,-1.83262 0.23567,-2.23287 -0.13586,-0.15316 -0.4464,-0.75564 -0.69009,-1.33884 -0.36633,-0.87673 -2.68494,-5.47998 -2.87645,-5.71077 -0.0312,-0.0376 -0.47575,0.35098 -0.9879,0.86351 l -0.93118,0.93186 0.79902,0.81542 c 1.29502,1.32159 2.85228,4.83842 3.10875,7.02063 0.0937,0.79743 0.16337,0.93176 0.48214,0.92988 0.29933,-0.002 0.46844,-0.25322 0.86004,-1.27882 z m -3.14011,-0.64376 c -0.64766,-2.44121 -2.37517,-5.48356 -3.11369,-5.48356 -0.31868,0 -0.10563,0.57096 0.52296,1.40147 1.16986,1.54565 2.15659,3.94191 2.15659,5.23724 0,0.44179 0.58055,0.66466 0.67989,0.261 0.0344,-0.13976 -0.0762,-0.77703 -0.24575,-1.41615 z m -14.84762,1.37547 c -0.24388,-0.24388 -4.365489,-1.29863 -5.732608,-1.46702 -1.116022,-0.13746 -0.979203,-0.26727 -1.288527,1.22258 l -0.09155,0.44097 h 3.654615 c 2.68607,0 3.60252,-0.0521 3.45808,-0.19653 z m 13.93176,0.0808 c -0.11942,-0.0483 -0.35754,-0.0513 -0.52916,-0.007 -0.17163,0.0447 -0.0739,0.0842 0.21713,0.0878 0.29104,0.004 0.43145,-0.033 0.31203,-0.0813 z m -11.73894,-1.09276 c -0.12784,-0.49954 -0.30784,-0.97652 -0.39999,-1.05997 -0.0921,-0.0834 -1.43755,-0.80993 -2.98977,-1.61442 -1.55222,-0.80448 -2.78254,-1.43065 -2.73403,-1.39148 0.0485,0.0392 1.1753,1.13465 2.50398,2.4344 2.00489,1.96124 2.52991,2.38326 3.0868,2.48121 0.36907,0.0649 0.69227,0.10464 0.71824,0.0883 0.026,-0.0164 -0.0574,-0.43847 -0.18523,-0.93801 z m 4.45954,0.74862 c 0,-0.0381 -0.11906,-0.0693 -0.26458,-0.0693 -0.14552,0 -0.26458,0.0769 -0.26458,0.17086 0,0.094 0.11906,0.12516 0.26458,0.0693 0.14552,-0.0558 0.26458,-0.13273 0.26458,-0.17085 z m 7.40834,-0.44267 c 0,-0.31483 -0.076,-0.35708 -0.48507,-0.26961 -0.26679,0.0571 -1.47413,0.18886 -2.68298,0.2929 -1.20885,0.10404 -2.23411,0.22536 -2.27836,0.26961 -0.0443,0.0442 1.1631,0.0804 2.68298,0.0804 2.69657,0 2.76343,-0.009 2.76343,-0.37334 z m -14.27918,-0.32052 c -0.46921,-0.65895 -4.34918,-4.24503 -4.592919,-4.24503 -0.200843,0 -0.881744,1.03176 -0.882799,1.3377 -3.71e-4,0.10514 0.852622,0.6797 1.895518,1.27681 1.0429,0.5971 2.25337,1.31957 2.68993,1.60549 1.04914,0.68712 1.36811,0.69609 0.89027,0.025 z m 44.132999,-2.00996 c 1.81901,-1.16659 3.30729,-2.2261 3.30729,-2.35446 0,-0.50609 -1.02734,-0.1687 -4.19568,1.37792 -1.81547,0.88622 -3.3291,1.63546 -3.36363,1.66498 -0.16112,0.13775 0.56785,1.64485 0.74684,1.54406 0.10884,-0.0613 1.68617,-1.06591 3.50518,-2.2325 z m -45.905209,1.79454 c -1.06705,-0.65471 -3.874271,-2.26572 -3.948067,-2.26572 -0.115257,0 -0.659637,1.44832 -0.575867,1.53209 0.04232,0.0423 0.541733,0.1482 1.109812,0.2353 0.568079,0.0871 1.628182,0.31165 2.355792,0.49901 1.73068,0.44565 1.7857,0.44562 1.05833,-7.1e-4 z m 4.60764,-0.0917 c -0.15373,-0.26437 -0.18815,-0.27199 -0.19255,-0.0426 -0.006,0.29705 0.17977,0.56451 0.30478,0.4395 0.0412,-0.0412 -0.009,-0.21982 -0.11223,-0.39687 z m 5.01192,0.29303 c 0.61018,-0.23199 2.13714,-1.23262 3.73142,-2.44523 l 1.26835,-0.96471 -0.4746,-0.6713 c -0.26102,-0.36922 -0.52431,-0.67301 -0.58508,-0.67508 -0.0608,-0.002 -1.0377,0.98453 -2.17097,2.19245 -1.13326,1.20792 -2.21464,2.24514 -2.40305,2.30494 -0.39775,0.12624 -0.46142,0.43774 -0.0895,0.43774 0.1392,0 0.46474,-0.0805 0.72341,-0.17881 z m 3.87419,-0.01 c 1.16417,-0.1017 2.17862,-0.24618 2.25433,-0.32106 0.0757,-0.0749 0.0757,-0.29907 0,-0.49819 l -0.13766,-0.36204 -1.23473,0.33694 c -4.31164,1.1766 -4.27411,1.14067 -0.88194,0.84435 z m 48.108999,-1.75409 c 0.0396,-0.34232 -0.15115,-0.46216 -1.54234,-0.96914 -0.87312,-0.31818 -2.34156,-0.91076 -3.26319,-1.31683 -0.92163,-0.40608 -1.75507,-0.74452 -1.85208,-0.75209 -0.55681,-0.0435 -1.14653,0.0645 -1.14653,0.20988 0,0.0925 0.69453,0.53046 1.5434,0.97335 0.84887,0.4429 2.45622,1.42745 3.57188,2.1879 l 2.02847,1.38263 0.30761,-0.66254 c 0.16919,-0.36439 0.32794,-0.83832 0.35278,-1.05316 z m -55.252749,1.24715 c 0,-0.0915 -0.17347,-0.46031 -0.38548,-0.81965 -0.33761,-0.5722 -0.40179,-0.61179 -0.51677,-0.31876 -0.20696,0.52743 -0.17642,1.09073 0.0644,1.1879 0.3767,0.152 0.83785,0.12477 0.83785,-0.0495 z m 7.04008,-0.3959 c 1.12417,-0.30921 2.06742,-0.57742 2.09611,-0.59603 0.0287,-0.0186 -0.12275,-0.39386 -0.33654,-0.83391 l -0.38871,-0.80007 -1.43073,1.08743 c -0.78691,0.59809 -1.62765,1.22217 -1.86832,1.38686 -0.6159,0.42144 -0.38637,0.39236 1.92819,-0.24428 z m -8.4523,-1.06939 c -10e-4,-1.01327 -0.0956,-1.28485 -1.16926,-3.35806 -0.64248,-1.24059 -1.19099,-2.23278 -1.21891,-2.20485 -0.082,0.0819 0.77976,3.65261 1.18287,4.90145 0.35849,1.11063 0.75008,1.76389 1.05736,1.76389 0.082,0 0.14855,-0.49609 0.14794,-1.10243 z m 2.7103,-3.8577 c 0.56445,-2.48378 0.56357,-2.4482 0.0608,-2.4482 -0.37287,0 -0.46881,0.22757 -1.20839,2.86632 l -0.80335,2.86632 0.44416,0.88194 0.44415,0.88195 0.29842,-1.49931 c 0.16413,-0.82462 0.50803,-2.42167 0.76422,-3.54902 z m -4.37764,3.70186 c -0.25579,-0.304 -0.61153,-0.83978 -0.79052,-1.19063 -0.62742,-1.22983 -2.30463,-3.71154 -2.51398,-3.71985 -0.24774,-0.01 -2.435386,1.96562 -2.435386,2.19916 0,0.13291 0.141871,0.28668 0.315266,0.34172 0.1734,0.055 1.50293,0.73344 2.95452,1.50758 1.45158,0.77414 2.70583,1.40915 2.78721,1.41113 0.0814,0.002 -0.0613,-0.24512 -0.31711,-0.54911 z m 4.85081,-0.79189 c 0.52953,-0.73954 1.41726,-1.92564 1.97273,-2.63578 l 1.00996,-1.29116 -1.25794,-0.62932 c -0.69187,-0.34613 -1.28909,-0.59817 -1.32716,-0.5601 -0.0834,0.0834 -0.87743,3.51434 -1.12783,4.87347 -0.0983,0.53357 -0.21935,1.10904 -0.26898,1.27882 -0.0496,0.16977 -0.0617,0.30868 -0.0269,0.30868 0.0348,0 0.49659,-0.60508 1.02612,-1.34461 z m 38.415789,-1.10972 c 0.76359,-0.38956 0.96036,-0.72152 0.4265,-0.71952 -0.16978,7.1e-4 -1.14212,0.23141 -2.16076,0.51282 -1.01865,0.28142 -2.30551,0.60341 -2.85969,0.71553 -1.00757,0.20386 -1.0076,0.20388 -0.9012,0.766 0.23783,1.25643 0.20171,1.25464 2.58476,0.12832 1.19637,-0.56545 2.50604,-1.19687 2.91039,-1.40315 z m 15.46651,0.84991 c 0.0671,-0.39736 0.0543,-0.78132 -0.0286,-0.85325 -0.26647,-0.23132 -4.18345,-1.07717 -4.91316,-1.06098 -1.41078,0.0313 -1.47871,0.23804 -0.24877,0.7571 1.75794,0.74188 4.6362,1.84436 4.86348,1.86289 0.11274,0.009 0.25991,-0.3084 0.32704,-0.70576 z m -59.291849,-2.09234 c -0.33529,-1.40262 -0.64425,-2.58486 -0.68658,-2.6272 -0.11362,-0.11362 -1.69896,0.51926 -1.63658,0.65334 0.0293,0.0629 0.49996,0.79348 1.04599,1.6235 0.54603,0.83002 1.16655,1.84975 1.37893,2.26605 0.21238,0.41631 0.41353,0.72938 0.447,0.69573 0.0335,-0.0336 -0.21348,-1.20879 -0.54876,-2.61142 z m 3.53094,-0.27199 c 0.35017,-1.26118 0.63665,-2.43196 0.6366,-2.60174 -6e-5,-0.24824 -0.15549,-0.30868 -0.79382,-0.30868 h -0.79375 v 2.76931 c 0,1.62789 0.0648,2.70023 0.15714,2.60173 0.0864,-0.0922 0.44365,-1.19944 0.79383,-2.46062 z m 45.341749,1.61301 c -0.17176,-0.68434 -0.37271,-0.56869 -0.28703,0.16518 0.0458,0.39255 0.13627,0.56914 0.23893,0.46649 0.0909,-0.0909 0.11249,-0.3751 0.0481,-0.63167 z m -23.271329,-0.74219 c 0.55222,-0.73373 0.97597,-1.3582 0.94167,-1.38772 -0.0343,-0.0295 -0.35772,-0.10705 -0.7187,-0.17229 -0.61364,-0.11091 -0.66334,-0.0866 -0.76399,0.37348 -0.0592,0.27065 -0.17389,0.69053 -0.25483,0.93307 -0.18714,0.56071 -0.36587,1.5875 -0.27634,1.5875 0.0375,0 0.51998,-0.60032 1.07219,-1.33404 z m -15.52487,0.2757 c 0.37893,-0.38805 0.61332,-0.70412 0.52087,-0.70237 -0.1514,0.003 -1.42099,1.40793 -1.27218,1.40793 0.0343,0 0.37239,-0.3175 0.75131,-0.70556 z m 30.526749,0.24129 c 1.01905,-0.25535 1.81958,-0.4975 1.77897,-0.53811 -0.0406,-0.0406 -0.99586,-0.21336 -2.12277,-0.38388 l -2.04892,-0.31003 v 0.84815 c 0,1.01767 -0.0833,1.0043 2.39272,0.38387 z m -38.376049,-2.02796 v -2.31584 l -1.10136,0.12461 c -0.60575,0.0685 -1.12303,0.14628 -1.14953,0.17277 -0.0498,0.0498 2.12841,4.32455 2.20679,4.33079 0.0242,0.002 0.0441,-1.03862 0.0441,-2.31233 z m 41.511579,1.10486 c 0.32061,-0.12621 -0.5981,-0.53906 -4.15122,-1.86549 l -1.18061,-0.44074 -0.11946,0.79662 c -0.0657,0.43814 -0.0872,0.82886 -0.0478,0.86827 0.0613,0.0613 4.49517,0.73604 4.99793,0.76058 0.097,0.005 0.32253,-0.0489 0.50116,-0.11924 z m 3.11481,-0.0237 c 0,-0.221 -0.1872,-0.221 -0.52917,0 -0.21395,0.13827 -0.18864,0.1715 0.13229,0.17369 0.21828,0.001 0.39688,-0.0767 0.39688,-0.17369 z m 4.49791,0 c 0.1388,-0.22458 -0.26985,-0.22458 -0.61736,0 -0.2151,0.13901 -0.19231,0.17149 0.12188,0.17369 0.21256,0.001 0.43552,-0.0767 0.49548,-0.17369 z m -5.38497,-0.1695 c 0.14271,-0.0902 0.21361,-0.20997 0.15754,-0.26603 -0.13895,-0.13896 -0.6816,0.0824 -0.6816,0.27801 0,0.20105 0.19424,0.19661 0.52406,-0.012 z m 4.59122,-0.18328 c 0,-0.097 -0.0841,-0.17639 -0.1868,-0.17639 -0.10274,0 -0.13774,0.0794 -0.0778,0.17639 0.06,0.097 0.14402,0.17639 0.1868,0.17639 0.0428,0 0.0778,-0.0794 0.0778,-0.17639 z m 2.5306,-0.0165 c -0.3404,-0.0986 -0.71682,-0.0968 -0.97014,0.005 -0.33221,0.13309 -0.22239,0.1649 0.55621,0.16111 0.87734,-0.004 0.91694,-0.0201 0.41393,-0.16584 z m -7.84824,-0.13987 c 0.15686,-0.0994 -0.44184,-0.31047 -1.74773,-0.61613 -1.09248,-0.25571 -2.01557,-0.43568 -2.05132,-0.39994 -0.0994,0.0994 2.80638,1.14922 3.20766,1.15882 0.19403,0.005 0.46015,-0.0596 0.59139,-0.14275 z m 6.36128,-0.0832 c -0.0404,-0.0349 -0.31162,-0.11665 -0.60267,-0.18175 -0.38645,-0.0864 -0.45781,-0.0701 -0.26458,0.0607 0.23819,0.16119 1.04425,0.27371 0.86725,0.12107 z m -5.28331,-0.4217 c -0.004,-0.0728 -0.183,-0.34798 -0.39892,-0.6116 -0.30299,-0.36994 -1.03608,-0.69862 -3.21275,-1.4404 -3.50004,-1.19278 -3.43755,-1.16767 -3.43755,-1.38123 0,-0.0992 0.13507,-0.12032 0.30868,-0.0483 0.90756,0.37671 5.39568,1.84878 5.45519,1.78926 0.22642,-0.22641 -4.57436,-3.37883 -4.93489,-3.24048 -0.32092,0.12314 -1.30349,2.02031 -1.4469,2.7937 l -0.11851,0.63912 0.76509,0.11618 c 0.4208,0.0639 1.99541,0.42466 3.49912,0.80169 2.77171,0.69496 3.53288,0.82076 3.52144,0.58202 z m 8.52317,-0.65089 c 1.08807,-0.43075 2.42709,-0.98201 2.97561,-1.22501 l 0.9973,-0.44182 -0.36963,-0.80347 c -0.41589,-0.90403 -0.56255,-0.94769 -1.52834,-0.45499 -0.37568,0.19166 -1.18611,0.54305 -1.80095,0.78087 -3.17246,1.22707 -4.55749,2.01227 -4.55749,2.58372 0,0.13547 0.61362,0.24176 1.81406,0.31423 0.27013,0.0163 1.38138,-0.32278 2.46944,-0.75353 z m -6.07922,0.22374 c -0.0713,-0.48474 -0.49733,-0.64766 -0.49733,-0.19021 0,0.36609 0.14255,0.57327 0.39444,0.57327 0.0876,0 0.13389,-0.17238 0.10289,-0.38306 z M 83.722691,151.5464 c 0.15192,-1.15846 0.27623,-2.6875 0.27623,-3.39787 v -1.29158 l -2.79518,-2.81679 c -1.53735,-1.54923 -2.8809,-2.81678 -2.98568,-2.81678 -0.27558,0 -0.35125,0.53532 -0.16205,1.14652 0.0901,0.29105 0.99332,2.27542 2.00717,4.40973 1.01385,2.1343 2.1707,4.573 2.57079,5.41933 0.40009,0.84633 0.74657,1.51965 0.76996,1.49625 0.0234,-0.0234 0.16683,-0.99035 0.31876,-2.14881 z m 26.558169,1.23732 c 0,-0.14926 -0.7696,-0.80062 -0.94595,-0.80062 -0.0956,0 0.0125,0.19844 0.24039,0.44097 0.37599,0.40022 0.70556,0.56822 0.70556,0.35965 z m 5.11528,-0.44784 c 0.10384,-0.19403 0.15862,-0.35278 0.12174,-0.35278 -0.0369,0 -0.21073,0.15875 -0.38633,0.35278 -0.17559,0.19402 -0.23037,0.35277 -0.12173,0.35277 0.10863,0 0.28248,-0.15875 0.38632,-0.35277 z m -0.97639,0.0662 c 0.35253,-0.13528 0.88087,-1.16215 2.05017,-3.98466 0.49375,-1.19182 0.93487,-2.25574 0.98029,-2.36428 0.0867,-0.2072 -1.13287,-0.7728 -1.66636,-0.7728 -0.21961,0 -0.38056,0.24561 -0.54901,0.83785 -0.13108,0.46081 -0.58497,1.77597 -1.00865,2.92256 -0.85574,2.31587 -0.90979,2.68318 -0.46165,3.13758 0.37356,0.37878 0.30883,0.35667 0.65521,0.22375 z m 4.94434,-1.42228 c 1.26074,-0.52415 2.34597,-1.00892 2.41162,-1.07727 0.0657,-0.0684 -0.13299,-0.42261 -0.44142,-0.78724 l -0.56078,-0.66297 -2.11405,1.43626 c -1.72227,1.17009 -2.91054,2.22021 -2.91054,2.57215 0,0.031 0.29765,-0.0752 0.66145,-0.23582 0.36381,-0.16066 1.69298,-0.72096 2.95372,-1.24511 z m -10.34222,-0.36369 c -0.39932,-0.65485 -0.88671,-1.41817 -1.0831,-1.69628 -0.19639,-0.27811 -0.57069,-0.89627 -0.83177,-1.3737 -0.46902,-0.85767 -0.47924,-0.86428 -0.85417,-0.55269 l -0.37946,0.31537 1.40213,2.02848 c 1.20658,1.74557 1.79519,2.34176 2.43019,2.46149 0.0232,0.004 -0.28451,-0.52783 -0.68382,-1.18267 z m 8.18889,-0.76876 c 1.15045,-1.46931 2.06593,-2.73736 2.06593,-2.86158 0,-0.11017 -1.21388,-0.82348 -1.40136,-0.82348 -0.0806,0 -0.40757,0.65484 -0.72668,1.4552 -0.3191,0.80037 -0.84381,2.04026 -1.16602,2.75533 -0.54778,1.21567 -0.56007,1.28317 -0.18929,1.03922 0.2181,-0.14348 0.85594,-0.8476 1.41742,-1.56469 z m -4.33822,0.9485 c -0.0447,-0.17162 -0.0842,-0.0739 -0.0879,0.21713 -0.004,0.29104 0.033,0.43146 0.0813,0.31204 0.0483,-0.11942 0.0513,-0.35755 0.007,-0.52917 z m -17.952059,-2.45433 c 0.33155,-0.47097 1.29049,-1.72944 2.13099,-2.7966 1.78458,-2.26583 4.130279,-5.54236 4.035019,-5.63622 -0.10284,-0.10134 -6.172739,0.21884 -6.285439,0.33155 -0.1318,0.13179 -0.70464,1.68443 -1.11113,3.01162 -1.08011,3.52649 -1.95941,5.19021 -2.94413,5.5706 -0.37829,0.14613 -0.55827,0.51482 -0.25132,0.51482 0.19933,0 2.22033,1.57574 2.2989,1.79242 0.0348,0.0959 0.39195,-0.29958 0.79375,-0.87878 0.4018,-0.57919 1.00181,-1.43843 1.33336,-1.90941 z m 11.969929,0.96446 c -0.6091,-0.89034 -1.19515,-1.64717 -1.30232,-1.68185 -0.10717,-0.0347 -0.40323,0.21014 -0.65791,0.54404 l -0.46304,0.60709 1.62804,1.06719 c 0.89542,0.58696 1.68984,1.07061 1.76537,1.07477 0.0755,0.004 -0.36103,-0.7209 -0.97014,-1.61124 z m 7.64085,-2.07248 c 0.7172,-2.07552 0.71272,-2.29627 -0.0467,-2.30324 -0.16184,-0.001 -0.40873,-0.0466 -0.54865,-0.10032 -0.28449,-0.10917 -0.3276,0.0735 -0.74605,3.16044 -0.14286,1.05395 -0.20775,2.1235 -0.14418,2.37677 0.111,0.44226 0.12891,0.42923 0.45235,-0.32878 0.18523,-0.4341 0.6502,-1.69629 1.03327,-2.80487 z m -2.556,0.99239 c -0.90752,-2.61006 -1.26184,-3.29833 -1.69798,-3.29833 -0.42963,0 -0.43088,-0.0622 0.0335,1.65879 0.24326,0.90156 0.67634,1.88335 1.18877,2.69497 1.161,1.83888 1.34225,1.43676 0.47572,-1.05543 z m 6.95542,1.10685 c 0.8694,-0.58459 1.57634,-1.12037 1.57098,-1.19063 -0.005,-0.0703 -0.22529,-0.29729 -0.48871,-0.50453 l -0.47895,-0.37678 -1.18456,1.56741 c -0.65151,0.86207 -1.14292,1.56741 -1.09203,1.56741 0.0509,0 0.80387,-0.4783 1.67327,-1.06288 z m -5.75065,-3.39094 0.22985,-1.19063 -1.25583,0.003 c -0.69071,0.001 -1.17645,0.061 -1.07944,0.1323 0.097,0.0713 0.1918,0.24865 0.21063,0.39417 0.0188,0.14552 0.33634,1.09162 0.70556,2.10244 l 0.67131,1.83786 0.14403,-1.04411 c 0.0792,-0.57426 0.24747,-1.57989 0.37389,-2.23473 z m -3.41818,-0.19377 c -0.0978,-0.25723 -0.25915,-0.46769 -0.35857,-0.46769 -0.2505,0 -0.22807,0.13006 0.12574,0.729 0.35155,0.59514 0.49657,0.43238 0.23283,-0.26131 z m -20.725859,-8.26819 c 0.11156,-0.11156 -0.62792,-0.47822 -1.52466,-0.75599 -0.23409,-0.0725 -0.73096,-0.28593 -1.10416,-0.47428 -0.3732,-0.18835 -0.716,-0.305 -0.76177,-0.25923 -0.0458,0.0458 0.19564,0.47137 0.53646,0.94578 l 0.61969,0.86256 1.05906,-0.10126 c 0.58248,-0.0557 1.1114,-0.1536 1.17538,-0.21758 z m 11.749119,-0.81396 c 0.0646,-0.0642 0.14318,-0.7033 0.17463,-1.42015 0.0516,-1.17554 0.0222,-1.31632 -0.29995,-1.43548 -0.4493,-0.1662 -0.726679,-0.51107 -0.776409,-0.96533 -0.10994,-1.00419 -0.057,-1.69835 0.160689,-2.10501 0.13307,-0.24865 0.20876,-0.47436 0.16819,-0.50158 -0.927559,-0.62234 -2.927139,-2.24526 -3.325859,-2.69938 -0.3474,-0.39567 -0.68697,-0.60305 -0.98744,-0.60305 -0.73905,0 -1.10637,-0.27809 -3.5351,-2.67632 -2.04629,-2.02059 -4.18315,-3.84296 -4.51232,-3.84822 -0.27035,-0.004 -2.13663,1.68423 -3.95514,3.57849 l -1.9546,2.03601 0.60263,0.11306 c 0.33144,0.0622 1.84601,0.59427 3.36571,1.18242 1.5197,0.58816 3.26255,1.25497 3.87301,1.48182 0.61046,0.22684 1.32483,0.5578 1.5875,0.73546 0.26266,0.17766 1.03685,0.49752 1.72042,0.71082 1.4366,0.44825 2.14498,1.07085 2.75238,2.4191 0.41703,0.92565 0.55944,2.89619 0.27408,3.79236 l -0.14042,0.44097 2.34528,-0.0596 c 1.2899,-0.0328 2.398129,-0.11216 2.462719,-0.17639 z m 5.1484,-4.48332 c -0.27585,-0.31579 -0.76228,-0.80192 -1.08095,-1.08029 l -0.57942,-0.50612 -0.7885,0.30113 c -0.54972,0.20994 -0.7885,0.40217 -0.7885,0.63479 0,0.57947 1.46678,1.15676 3.06008,1.20438 l 0.67883,0.0203 z m -5.65415,-6.74597 c -0.308739,-0.64745 -0.373349,-0.68629 -0.842149,-0.5064 -0.23848,0.0915 -0.18689,0.19849 0.29425,0.6102 0.774609,0.66282 0.901969,0.63869 0.547899,-0.1038 z"
       id="path826"
       inkscape:connector-curvature="0"
       sodipodi:nodetypes="csccccssccccccccccsccccsscsccccccsccsccccccscsccsscscccscccssssccccccsccccccsccccccccccccccccccsccccscccssccccccccccccscccccccccccccccsssccscccccscsccccscccccccccccscccccccscscscscssccccccscccscccscccccccscccccsssccsccccsssscssccscsccccccccccccscccccscccccsccccccccscscccscccccsccccccscccccccccccccccccccccccsssccccscccscccccccsccccccccccccccccscccccccccccccccccccccccccccccccccccccscsccccccsccccccccsccscsccccccccsscsscscccccccccscsccccccscccccccccccsccccssscssccscscccscccccsssscscscscccccccccccccscsccccccccccccscccccccccccccccccccsccsccsscccscccccscscccscccccsccccccsccccscccccccccccscscscscccccccccscccscccccsccccccccccccscccsccsccccccsccsscssccccccscccccccccscscccscccccccccccscccsscsscssccccssscscscscsccscccsscccsscscccccccccsscscccscccccccscscccscccccscccccccccscccccccccsccccccscccccscccccccccccccccccscccccccccccccccccssccccccc" />
  </g>
</svg>
