<?xml version="1.0" encoding="UTF-8" standalone="no"?>
<!-- Created with Inkscape (http://www.inkscape.org/) -->

<svg
   xmlns:dc="http://purl.org/dc/elements/1.1/"
   xmlns:cc="http://creativecommons.org/ns#"
   xmlns:rdf="http://www.w3.org/1999/02/22-rdf-syntax-ns#"
   xmlns:svg="http://www.w3.org/2000/svg"
   xmlns="http://www.w3.org/2000/svg"
   xmlns:sodipodi="http://sodipodi.sourceforge.net/DTD/sodipodi-0.dtd"
   xmlns:inkscape="http://www.inkscape.org/namespaces/inkscape"
   width="210mm"
   height="297mm"
   viewBox="0 0 210 297"
   version="1.1"
   id="svg8"
   inkscape:version="0.92.4 (5da689c313, 2019-01-14)"
   sodipodi:docname="cow.svg">
  <defs
     id="defs2" />
  <sodipodi:namedview
     id="base"
     pagecolor="#ffffff"
     bordercolor="#666666"
     borderopacity="1.0"
     inkscape:pageopacity="0.0"
     inkscape:pageshadow="2"
     inkscape:zoom="0.98994949"
     inkscape:cx="362.88781"
     inkscape:cy="654.44953"
     inkscape:document-units="mm"
     inkscape:current-layer="layer1"
     showgrid="false"
     inkscape:window-width="1920"
     inkscape:window-height="1017"
     inkscape:window-x="-8"
     inkscape:window-y="-8"
     inkscape:window-maximized="1" />
  <metadata
     id="metadata5">
    <rdf:RDF>
      <cc:Work
         rdf:about="">
        <dc:format>image/svg+xml</dc:format>
        <dc:type
           rdf:resource="http://purl.org/dc/dcmitype/StillImage" />
        <dc:title></dc:title>
      </cc:Work>
    </rdf:RDF>
  </metadata>
  <g
     inkscape:label="Ebene 1"
     inkscape:groupmode="layer"
     id="layer1">
    <path
       style="fill:#000000;stroke-width:0.17638889"
       d="m 69.956749,162.14488 c -0.152451,-0.15245 -0.277183,-0.33417 -0.277183,-0.40383 0,-0.0696 -0.208223,-0.12351 -0.462719,-0.11969 -0.81393,0.0122 -0.903384,-0.44295 -0.351266,-1.78739 0.271,-0.65989 0.734767,-1.558 1.030596,-1.99579 0.735392,-1.08829 0.84273,-1.57113 0.650704,-2.92708 -0.09079,-0.64107 -0.197411,-1.4557 -0.236941,-1.81029 -0.515209,-4.6214 -1.1504,-9.0848 -1.307464,-9.18738 -0.32489,-0.21217 -0.590101,-1.49649 -0.577964,-2.79886 0.01464,-1.57047 -0.236363,-2.26729 -0.421406,-1.16989 -0.318463,1.88867 -0.622566,3.47073 -0.687264,3.57541 -0.03966,0.0642 -0.123655,0.98978 -0.186651,2.0569 -0.063,1.06712 -0.182538,2.33709 -0.265648,2.82216 -0.187863,1.09645 -0.228662,4.10427 -0.05938,4.37817 0.06895,0.11157 0.103001,0.46253 0.07566,0.7799 -0.02937,0.34092 0.09265,0.81111 0.298205,1.14907 0.515548,0.84763 0.66457,2.27886 0.295866,2.84157 -0.161795,0.24693 -0.244955,0.5286 -0.184799,0.62594 0.06016,0.0973 0.0082,0.33895 -0.11542,0.53692 -0.180854,0.28959 -0.181434,0.42939 -0.003,0.71515 0.195151,0.31248 0.169107,0.37921 -0.216622,0.55496 -0.241144,0.10987 -0.399951,0.26205 -0.352903,0.33817 0.16861,0.27282 -0.348555,0.41255 -2.343236,0.63311 -0.838833,0.0928 -0.936972,0.0663 -1.067962,-0.28779 -0.128868,-0.34836 -0.168859,-0.36028 -0.37509,-0.11179 -0.126963,0.15298 -0.299584,0.23566 -0.3836,0.18374 -0.08402,-0.0519 -0.311319,-0.01 -0.505117,0.0942 -0.258549,0.13837 -0.447365,0.12925 -0.709202,-0.0343 -0.469942,-0.29349 -0.451136,-0.77394 0.05654,-1.44426 0.360604,-0.47613 1.350518,-2.68838 1.350518,-3.01812 0,-0.0655 0.15688,-0.33939 0.348622,-0.60867 0.332982,-0.46763 0.336901,-0.55086 0.08736,-1.8551 -0.143695,-0.75103 -0.291817,-2.28921 -0.329162,-3.41819 -0.03735,-1.12897 -0.07666,-2.23596 -0.08736,-2.45997 -0.01109,-0.23219 -0.09787,-0.35882 -0.201859,-0.29455 -0.113887,0.0704 -0.152319,-0.0532 -0.102315,-0.32892 0.04809,-0.2652 -0.01251,-0.47717 -0.151655,-0.53057 -0.254716,-0.0977 -1.15113,-2.61856 -1.15113,-3.23711 0,-0.21313 -0.107803,-0.45098 -0.239562,-0.52856 -0.349677,-0.2059 -0.686224,-1.83525 -0.703155,-3.40424 l -0.01475,-1.36589 -1.350817,-0.0926 c -1.50282,-0.103 -2.782755,-0.57921 -3.572387,-1.32911 -1.288316,-1.22351 -2.136511,-3.74674 -2.073018,-6.16685 0.05721,-2.18065 0.07355,-2.15807 -1.561677,-2.15807 -1.273192,0 -1.488944,-0.0569 -2.844199,-0.74966 -1.108903,-0.56685 -1.54069,-0.89285 -1.770752,-1.33692 -0.167339,-0.323 -0.419878,-0.71987 -0.561197,-0.88194 -0.66348,-0.76091 -0.822143,-2.9379 -0.286995,-3.93784 0.205012,-0.38307 0.0075,-1.2203 -0.534624,-2.26587 -0.39196,-0.75599 -0.58037,-1.93397 -0.606564,-3.79236 l -0.01989,-1.41111 -0.529166,0.0208 c -1.316875,0.0518 -3.29326,-0.2828 -3.79953,-0.64329 l -0.521998,-0.3717 v -2.72461 -2.72461 l 0.573264,-0.35849 c 0.488389,-0.30542 0.812767,-0.35074 2.190933,-0.30609 1.49495,0.0484 1.678509,0.0953 2.419661,0.61803 0.815808,0.57536 1.132537,0.5256 1.019803,-0.16023 -0.02714,-0.1651 0.07218,-0.48564 0.220716,-0.71233 0.148531,-0.22669 0.258713,-0.64724 0.244849,-0.93456 -0.01386,-0.28731 0.03352,-0.65433 0.105299,-0.8156 0.09884,-0.22205 -0.110589,-0.47523 -0.863112,-1.04339 -0.54649,-0.4126 -1.109973,-0.97519 -1.252184,-1.2502 -0.142212,-0.275 -0.339953,-0.50001 -0.439426,-0.50001 -0.341425,0 -0.692026,-1.22434 -0.692898,-2.419683 -0.0011,-1.50775 0.415191,-2.69184 1.299605,-3.69659 0.81461,-0.92545 1.434927,-1.27144 2.613562,-1.45776 1.119815,-0.17701 1.188117,-0.0227 0.683895,1.54546 -0.486789,1.51392 -0.498516,2.42891 -0.04237,3.3058 0.433333,0.833023 1.191167,1.664443 1.517134,1.664443 0.129717,0 0.327519,0.11046 0.439562,0.24546 0.172666,0.20805 0.341125,0.19325 1.105313,-0.0971 1.20501,-0.45787 4.242341,-0.65777 4.663616,-0.30693 0.162985,0.13573 0.899753,0.34537 1.637263,0.46586 0.737511,0.12049 1.605141,0.26196 1.928068,0.31436 0.53789,0.0873 0.676921,0.002 1.657398,-1.01282 1.320165,-1.366873 1.629001,-2.022173 1.378352,-2.924643 -0.410661,-1.47861 -0.20108,-2.1528 0.668967,-2.15194 0.615746,6.1e-4 2.203355,1.31096 2.633571,2.17365 0.567925,1.13883 0.647903,1.79302 0.399355,3.266583 -0.24774,1.46878 -0.816137,2.30356 -2.253687,3.3099 -1.009786,0.70689 -1.060685,0.79596 -0.649743,1.13701 0.443835,0.36835 0.809533,1.2136 0.689159,1.59287 -0.06113,0.19259 -0.397703,0.53152 -0.747949,0.75319 -0.561261,0.35521 -0.638092,0.4905 -0.647603,1.14034 -0.0059,0.40553 0.01413,0.73731 0.04461,0.7373 0.03047,-1e-5 0.477737,-0.1932 0.993926,-0.42931 1.934512,-0.88486 4.281394,-0.94506 6.447201,-0.16535 0.727604,0.26194 1.506799,0.61769 1.731543,0.79056 0.4041,0.31083 1.342277,1.41883 1.617315,1.91008 0.11419,0.20395 0.761767,0.26101 3.291447,0.29 1.7321,0.0199 4.17441,0.124 5.42735,0.23144 2.24676,0.19267 2.72393,0.15714 2.21474,-0.16488 -0.17563,-0.11107 0.11259,-0.16497 0.8919,-0.1668 0.72872,-0.002 1.28656,0.092 1.51964,0.25524 0.29514,0.20672 1.48503,0.28115 5.99237,0.37481 4.8261,0.10028 5.73987,0.16219 6.43992,0.43635 0.4487,0.17572 1.123384,0.31639 1.499314,0.3126 1.36111,-0.0137 4.2273,0.2017 4.91667,0.36952 0.44597,0.10857 0.76709,0.11004 0.87312,0.004 0.25111,-0.25111 0.90736,-0.20214 1.1461,0.0855 0.20969,0.25266 0.48897,0.33276 1.90559,0.54656 0.47461,0.0716 0.74965,0.20453 0.74965,0.36222 0,0.137 -0.0841,0.24908 -0.1868,0.24908 -0.34457,0 0.0475,0.38629 0.64584,0.63628 0.3258,0.13613 0.70567,0.42569 0.84415,0.64346 0.30966,0.48697 1.60482,3.84059 1.85594,4.80568 0.10097,0.38805 0.34429,1.01999 0.5407,1.40431 0.19641,0.38431 0.35711,0.8788 0.35711,1.09886 0,0.22006 0.11051,0.69937 0.24557,1.06513 0.28907,0.78287 0.97498,3.04434 1.06559,3.51332 0.17631,0.91253 1.65396,3.87279 2.17707,4.36145 0.22078,0.20624 0.69703,0.64141 1.05833,0.96703 0.36131,0.32563 0.86956,0.78962 1.12945,1.0311 0.49916,0.46379 1.51719,0.61647 2.15756,0.32358 0.28584,-0.13073 0.32208,-0.097 0.2386,0.22225 -0.0718,0.2745 -0.002,0.40715 0.25954,0.49001 0.24926,0.0791 0.29275,0.15392 0.1432,0.24634 -0.11812,0.073 -0.20798,0.20323 -0.19969,0.2894 0.008,0.0862 -0.0643,0.16659 -0.16133,0.17871 -0.82299,0.10288 -0.80925,0.0958 -0.44097,0.22566 0.82632,0.29126 1.6757,0.73848 1.6757,0.88232 0,0.20598 -0.51732,0.39743 -0.72578,0.26859 -0.0906,-0.056 -0.40307,-0.0495 -0.69431,0.0145 l -0.52953,0.11631 0.44564,0.35054 c 0.2451,0.19279 0.44564,0.46384 0.44564,0.60232 0,0.29849 0.0495,0.29193 -0.66217,0.0878 -0.53121,-0.15235 -0.55876,-0.13987 -0.3895,0.17639 0.10018,0.18718 0.25872,0.34034 0.35232,0.34034 0.0936,0 0.17019,0.11906 0.17019,0.26458 0,0.3442 -0.52164,0.33842 -1.02094,-0.0113 -0.21663,-0.15173 -0.5424,-0.22874 -0.72392,-0.17113 -0.2065,0.0655 -0.36836,0.005 -0.43244,-0.16212 -0.0563,-0.14677 -0.21475,-0.22375 -0.35205,-0.17106 -0.17464,0.067 -0.28368,-0.0856 -0.36292,-0.50799 -0.0623,-0.33208 -0.27224,-0.79325 -0.46655,-1.02481 -0.1943,-0.23157 -0.61308,-0.77822 -0.93063,-1.21478 -0.31755,-0.43656 -0.80435,-0.90321 -1.08177,-1.03699 -0.81313,-0.39212 -1.97802,-1.67654 -2.52579,-2.78497 -0.59377,-1.20152 -1.29892,-3.44086 -1.71252,-5.43846 -0.1607,-0.77611 -0.44037,-1.92705 -0.62151,-2.55764 -0.18113,-0.63059 -0.37799,-1.38465 -0.43746,-1.67569 -0.19613,-0.95979 -1.17791,-2.7609 -1.44839,-2.6571 -0.13676,0.0525 -0.2016,0.0193 -0.14409,-0.0738 0.0575,-0.0931 -0.0335,-0.42949 -0.20217,-0.74763 l -0.30672,-0.57844 -0.22077,1.6757 c -0.12143,0.92163 -0.33089,2.11225 -0.46548,2.64583 -0.15859,0.62879 -0.19236,1.15633 -0.096,1.49931 0.0834,0.29664 0.0703,1.73054 -0.0297,3.26319 -0.1462,2.23932 -0.13565,2.76595 0.0583,2.91042 0.13022,0.097 0.29232,0.526 0.36021,0.95331 0.0679,0.42731 0.17785,0.86387 0.24434,0.97014 0.0665,0.10627 0.1381,0.27259 0.15914,0.3696 0.021,0.097 0.19487,0.65264 0.3863,1.23472 0.35976,1.09396 0.91538,2.98507 1.37335,4.67431 0.14466,0.53358 0.22085,1.18534 0.16933,1.44837 -0.0515,0.26303 -0.0169,0.52568 0.0769,0.58367 0.31309,0.1935 0.19087,2.62158 -0.19177,3.80991 -0.19931,0.61898 -0.47191,1.58965 -0.60578,2.15706 -0.13387,0.5674 -0.35394,1.16272 -0.48905,1.32291 -0.13511,0.1602 -0.39186,0.80721 -0.57057,1.4378 -0.1787,0.63059 -0.39087,1.22194 -0.47148,1.3141 -0.0806,0.0922 -0.14657,0.66058 -0.14657,1.26314 0,0.97756 -0.0523,1.14001 -0.48507,1.50813 -0.26679,0.2269 -0.58267,0.63101 -0.70196,0.89802 -0.44764,1.00199 -2.30057,1.72269 -4.6779,1.81946 -1.51609,0.0617 -1.5434,0.0556 -1.5434,-0.34761 0,-0.22574 0.16419,-0.61918 0.36487,-0.87431 0.27299,-0.34705 0.29521,-0.43713 0.0882,-0.35769 -0.3978,0.15265 -0.34129,-0.15915 0.0761,-0.4198 0.19403,-0.12117 0.35278,-0.34339 0.35278,-0.49381 0,-0.15043 0.0799,-0.2241 0.17763,-0.16372 0.0977,0.0604 0.22683,-0.0341 0.28696,-0.21007 0.0601,-0.17593 0.29769,-0.73167 0.52792,-1.23498 0.23023,-0.50332 0.4186,-0.99941 0.4186,-1.10243 0,-0.10303 0.0841,-0.18732 0.1868,-0.18732 0.10274,0 0.13974,-0.0761 0.0822,-0.16921 -0.0575,-0.0931 -0.035,-0.31135 0.05,-0.48507 0.54749,-1.11894 0.96466,-2.11602 1.52674,-3.64908 0.35203,-0.96015 0.75543,-1.91047 0.89646,-2.11182 0.35278,-0.50366 0.31481,-1.17306 -0.0964,-1.69871 -0.18972,-0.24253 -0.3467,-0.57031 -0.34886,-0.7284 -0.002,-0.15809 -0.38095,-0.5879 -0.84177,-0.95515 -0.46082,-0.36724 -0.93707,-0.78885 -1.05833,-0.93691 -0.18596,-0.22703 -0.22139,-0.17414 -0.22625,0.33779 -0.003,0.33384 -0.16702,1.04354 -0.36413,1.57712 -0.19711,0.53358 -0.57976,1.77777 -0.85034,2.76488 -0.27058,0.9871 -0.62266,1.92543 -0.7824,2.08517 -0.2316,0.2316 -0.33962,0.68193 -0.28576,1.19127 0.003,0.0242 -0.20671,0.63941 -0.46505,1.36701 -0.63485,1.78801 -0.93147,3.24469 -0.82394,4.04634 0.12909,0.96248 -0.16456,1.36689 -1.220164,1.68037 -1.57029,0.46632 -2.91968,0.29187 -2.67497,-0.34584 0.0576,-0.15005 -0.0485,-0.19512 -0.33189,-0.14095 -0.60783,0.11619 -0.94089,-0.65 -0.58322,-1.34167 0.16771,-0.32432 0.19593,-0.5541 0.082,-0.668 -0.1139,-0.11389 0.0409,-0.40781 0.45001,-0.85445 0.34299,-0.37447 0.63024,-0.76456 0.63832,-0.86686 0.046,-0.58141 0.15049,-0.98973 0.47663,-1.86172 0.19957,-0.53357 0.41838,-1.32291 0.48623,-1.75407 0.0679,-0.43117 0.27237,-1.217 0.45447,-1.74629 0.22898,-0.66554 0.27587,-1.02887 0.15205,-1.17807 -0.0985,-0.11866 -0.14462,-0.32502 -0.10254,-0.45858 0.0421,-0.13357 0.12484,-0.46315 0.18391,-0.7324 0.0986,-0.44925 0.0719,-0.48065 -0.32379,-0.38133 -0.64238,0.16123 -0.99221,-0.47145 -0.89663,-1.62162 0.0723,-0.86965 0.0563,-0.90854 -0.40968,-1.00175 -0.45616,-0.0912 -1.42162,-0.72573 -2.25832,-1.48417 -0.33533,-0.30396 -0.43682,-0.31375 -1.05833,-0.10214 -0.3781,0.12872 -0.80651,0.2854 -0.95203,0.34816 -0.14552,0.0628 -0.32411,0.1015 -0.39687,0.0861 -0.0728,-0.0154 -0.13229,0.0464 -0.13229,0.13742 0,0.091 -0.13891,0.16646 -0.30868,0.16772 -0.16978,0.001 -0.98337,0.13372 -1.80799,0.29435 -0.82462,0.16063 -1.65806,0.28354 -1.85208,0.27313 -0.19403,-0.0104 -0.86872,-0.0559 -1.49931,-0.10107 -0.63059,-0.0452 -2.15377,-0.12074 -3.38485,-0.16791 -1.95451,-0.0749 -2.35185,-0.14328 -3.13361,-0.53943 -0.8374,-0.42435 -2.9659,-1.0736 -3.09533,-0.94416 -0.032,0.032 -0.18521,1.03435 -0.34042,2.2274 -0.30467,2.34182 -0.61945,3.73983 -0.84209,3.73983 -0.0769,0 -0.13981,0.51125 -0.13981,1.13611 0,0.62487 -0.0794,1.18518 -0.17639,1.24514 -0.097,0.06 -0.17639,0.48901 -0.17639,0.95344 0,0.46444 -0.12639,1.09779 -0.28087,1.40745 -0.15447,0.30966 -0.23731,0.6765 -0.18409,0.8152 0.0532,0.13871 0.0322,0.29213 -0.0468,0.34095 -0.079,0.0488 -0.0375,0.74588 0.0921,1.54905 0.53535,3.31711 0.58661,3.79119 0.49922,4.61766 -0.0503,0.47537 -0.14468,0.95053 -0.20981,1.05592 -0.0651,0.10539 -0.14234,0.62926 -0.17156,1.16416 -0.0697,1.27549 -0.28919,1.77444 -0.98058,2.22901 -1.771769,1.16489 -3.353203,1.57922 -3.908422,1.024 z m -7.67159,-9.5271 c 0.0085,-0.20548 0.05026,-0.24728 0.106567,-0.10657 0.05095,0.12733 0.04469,0.27947 -0.01392,0.33808 -0.05861,0.0586 -0.100302,-0.0456 -0.09264,-0.23151 z m -0.176389,-2.46944 c 0.0085,-0.20549 0.05026,-0.24728 0.106567,-0.10657 0.05095,0.12733 0.04469,0.27947 -0.01392,0.33808 -0.05861,0.0586 -0.100301,-0.0456 -0.09264,-0.23151 z m 31.118706,-10.30405 c 0.06,-0.097 0.14402,-0.17639 0.1868,-0.17639 0.0428,0 0.0778,0.0794 0.0778,0.17639 0,0.097 -0.0841,0.17638 -0.1868,0.17638 -0.10274,0 -0.13774,-0.0794 -0.0778,-0.17638 z"
       id="path826"
       inkscape:connector-curvature="0"
       sodipodi:nodetypes="csccscccccccccssccccccccccccsscscccccscccccsscccccscccccccccccccccssscccscccsccccsssccccscccccccccsccccccssccccsccscccccccccsccccsccssccccccscccccccccccccccccccccsccccscccscccscccsscscccccccscscccccccccccccccccccccccscsccccccsscscccccccscccccccccccccsssc" />
  </g>
</svg>
