<?xml version="1.0" encoding="UTF-8" standalone="no"?>
<!-- Created with Inkscape (http://www.inkscape.org/) -->

<svg
   xmlns:dc="http://purl.org/dc/elements/1.1/"
   xmlns:cc="http://creativecommons.org/ns#"
   xmlns:rdf="http://www.w3.org/1999/02/22-rdf-syntax-ns#"
   xmlns:svg="http://www.w3.org/2000/svg"
   xmlns="http://www.w3.org/2000/svg"
   xmlns:sodipodi="http://sodipodi.sourceforge.net/DTD/sodipodi-0.dtd"
   xmlns:inkscape="http://www.inkscape.org/namespaces/inkscape"
   width="210mm"
   height="297mm"
   viewBox="0 0 210 297"
   version="1.1"
   id="svg8"
   inkscape:version="0.92.4 (5da689c313, 2019-01-14)"
   sodipodi:docname="fox.svg">
  <defs
     id="defs2" />
  <sodipodi:namedview
     id="base"
     pagecolor="#ffffff"
     bordercolor="#666666"
     borderopacity="1.0"
     inkscape:pageopacity="0.0"
     inkscape:pageshadow="2"
     inkscape:zoom="7.9195959"
     inkscape:cx="215.82387"
     inkscape:cy="508.73335"
     inkscape:document-units="mm"
     inkscape:current-layer="layer1"
     showgrid="false"
     inkscape:window-width="1920"
     inkscape:window-height="1017"
     inkscape:window-x="-8"
     inkscape:window-y="-8"
     inkscape:window-maximized="1" />
  <metadata
     id="metadata5">
    <rdf:RDF>
      <cc:Work
         rdf:about="">
        <dc:format>image/svg+xml</dc:format>
        <dc:type
           rdf:resource="http://purl.org/dc/dcmitype/StillImage" />
        <dc:title></dc:title>
      </cc:Work>
    </rdf:RDF>
  </metadata>
  <g
     inkscape:label="Ebene 1"
     inkscape:groupmode="layer"
     id="layer1">
    <path
       style="fill:#000000;stroke-width:0.17638889"
       d="m 60.463589,170.22679 c -0.192239,-0.3153 -0.349822,-0.66875 -0.350185,-0.78546 -5.99e-4,-0.19331 -1.020141,-0.57819 -1.537924,-0.58057 -0.399721,-0.002 -1.42345,-1.06034 -1.704259,-1.76215 -0.386363,-0.96561 -0.207686,-1.65539 0.610136,-2.35542 l 0.673428,-0.57643 -0.248,-0.6962 c -0.1364,-0.38291 -0.251484,-1.11376 -0.255742,-1.62411 -0.0087,-1.04114 0.558041,-3.78814 0.985099,-4.7749 0.154053,-0.35595 0.309267,-1.1832 0.344919,-1.83833 0.03565,-0.65513 0.189847,-1.43291 0.342656,-1.72841 0.263008,-0.5086 0.253886,-0.58957 -0.170949,-1.51754 -0.24683,-0.53914 -0.404939,-1.0512 -0.351354,-1.13791 0.251914,-0.4076 1.786559,0.0852 2.55375,0.81998 0.376281,0.36041 0.535302,0.4049 0.985637,0.27574 0.295333,-0.0847 1.248588,-0.11342 2.118344,-0.0638 1.247586,0.0711 1.698548,0.0296 2.136505,-0.1969 0.593859,-0.3071 1.40174,-0.37121 1.765787,-0.14012 0.176477,0.11202 0.164817,0.25818 -0.05589,0.7006 -0.153388,0.30747 -0.300166,0.75862 -0.326173,1.00255 -0.02601,0.24393 -0.100076,0.49631 -0.164597,0.56083 -0.223253,0.22325 -0.13123,2.84572 0.103176,2.9403 0.176389,0.0712 0.176389,0.0918 0,0.1029 -0.324481,0.0205 -0.273293,0.3118 0.238657,1.35819 0.410037,0.83808 0.469313,1.21015 0.554236,3.47884 0.06219,1.66136 0.02676,2.7364 -0.102371,3.10684 -0.165432,0.47456 -0.140887,0.67733 0.15132,1.25011 0.19183,0.37601 0.348783,0.93782 0.348783,1.24846 0,0.69995 -0.712811,1.95175 -1.264203,2.22011 -0.773406,0.37641 -4.189631,0.57604 -5.120001,0.29918 -0.18361,-0.0546 -0.496949,0.11844 -0.812846,0.449 -0.657301,0.6878 -1.012309,0.67913 -1.447939,-0.0354 z"
       id="path826"
       inkscape:connector-curvature="0"
       sodipodi:nodetypes="ccccccscccccccccccccccccsccsccccc" />
  </g>
</svg>
