<?xml version="1.0" encoding="UTF-8" standalone="no"?>
<!-- Created with Inkscape (http://www.inkscape.org/) -->

<svg
   xmlns:dc="http://purl.org/dc/elements/1.1/"
   xmlns:cc="http://creativecommons.org/ns#"
   xmlns:rdf="http://www.w3.org/1999/02/22-rdf-syntax-ns#"
   xmlns:svg="http://www.w3.org/2000/svg"
   xmlns="http://www.w3.org/2000/svg"
   xmlns:sodipodi="http://sodipodi.sourceforge.net/DTD/sodipodi-0.dtd"
   xmlns:inkscape="http://www.inkscape.org/namespaces/inkscape"
   width="210mm"
   height="297mm"
   viewBox="0 0 210 297"
   version="1.1"
   id="svg8"
   inkscape:version="0.92.4 (5da689c313, 2019-01-14)"
   sodipodi:docname="hedgehog.svg">
  <defs
     id="defs2" />
  <sodipodi:namedview
     id="base"
     pagecolor="#ffffff"
     bordercolor="#666666"
     borderopacity="1.0"
     inkscape:pageopacity="0.0"
     inkscape:pageshadow="2"
     inkscape:zoom="1.979899"
     inkscape:cx="264.59603"
     inkscape:cy="566.15665"
     inkscape:document-units="mm"
     inkscape:current-layer="layer1"
     showgrid="false"
     inkscape:window-width="1920"
     inkscape:window-height="1017"
     inkscape:window-x="-8"
     inkscape:window-y="-8"
     inkscape:window-maximized="1" />
  <metadata
     id="metadata5">
    <rdf:RDF>
      <cc:Work
         rdf:about="">
        <dc:format>image/svg+xml</dc:format>
        <dc:type
           rdf:resource="http://purl.org/dc/dcmitype/StillImage" />
        <dc:title></dc:title>
      </cc:Work>
    </rdf:RDF>
  </metadata>
  <g
     inkscape:label="Ebene 1"
     inkscape:groupmode="layer"
     id="layer1">
    <path
       style="fill:#000000;stroke-width:0.17638889"
       d="m 71.977257,161.87255 c -0.37714,-0.29894 -0.73105,-0.66929 -0.78647,-0.82299 -0.12936,-0.35875 -1.07241,-0.41158 -1.32603,-0.0743 -0.14471,0.19246 -0.27383,0.20968 -0.52371,0.0698 -0.24483,-0.13701 -0.4634,-0.11747 -0.83485,0.0746 -0.35443,0.18328 -0.5685,0.206 -0.724123,0.0769 -0.121515,-0.10085 -0.790501,-0.2363 -1.486635,-0.301 -0.99612,-0.0926 -1.265631,-0.17798 -1.265377,-0.40098 2.64e-4,-0.23003 -0.207203,-0.28336 -1.102431,-0.28336 -1.077546,0 -1.104051,-0.0113 -1.159571,-0.49548 -0.03125,-0.27252 -0.170156,-0.53898 -0.30868,-0.59214 -0.138524,-0.0532 -0.251862,-0.32628 -0.251862,-0.60694 0,-0.28066 -0.08321,-0.5103 -0.184904,-0.5103 -0.101697,0 -0.283085,-0.2335 -0.403083,-0.51889 -0.165132,-0.39274 -0.281,-0.47917 -0.476555,-0.35548 -0.142106,0.0899 -0.436969,0.16463 -0.65525,0.16612 -0.295571,0.002 -0.396185,-0.0986 -0.394174,-0.39418 0.0015,-0.21828 0.07632,-0.51327 0.166299,-0.65554 0.103496,-0.16364 0.09525,-0.34102 -0.02243,-0.48282 -0.102318,-0.12329 -0.139957,-0.34423 -0.08364,-0.49099 0.05632,-0.14675 0.02551,-0.26683 -0.06846,-0.26683 -0.421106,0 -0.122733,-1.18075 0.495055,-1.95908 0.26184,-0.32988 0.07931,-0.54628 -0.715785,-0.84857 -0.500299,-0.19022 -0.612728,-0.51613 -0.289537,-0.83932 0.135411,-0.13541 0.03438,-0.24392 -0.352777,-0.37888 -0.551837,-0.19237 -0.69136,-0.44746 -0.357577,-0.65375 0.128848,-0.0796 0.12847,-0.18236 -0.0012,-0.33866 -0.285869,-0.34445 0.254719,-1.50813 0.700604,-1.50813 0.42736,0 0.447458,-0.15473 0.05717,-0.44011 -0.440205,-0.32189 -0.170302,-0.79461 0.453686,-0.79461 0.571725,0 0.896641,-0.31191 0.548835,-0.52687 -0.343601,-0.21235 -0.05887,-0.77371 0.523104,-1.03132 0.489199,-0.21654 0.511222,-0.26322 0.279961,-0.59339 -0.308045,-0.4398 -0.178034,-0.84703 0.270418,-0.84703 0.408948,0 0.421124,-0.14043 0.04793,-0.55281 -0.405686,-0.44827 -0.185366,-0.8583 0.461195,-0.8583 0.412705,0 0.578369,-0.10337 0.706725,-0.44097 0.102644,-0.26998 0.306149,-0.44098 0.524801,-0.44098 0.196429,0 0.357144,-0.10565 0.357144,-0.23477 0,-0.12913 0.199371,-0.34148 0.443046,-0.47189 0.291885,-0.15621 0.410889,-0.33843 0.348795,-0.53407 -0.135162,-0.42586 0.3487,-0.76143 0.898826,-0.62335 0.335757,0.0843 0.438413,0.0538 0.378904,-0.1126 -0.04489,-0.1255 -0.0075,-0.37218 0.0832,-0.54818 0.123916,-0.24058 0.287458,-0.29306 0.658985,-0.21146 0.453902,0.0997 0.487192,0.0721 0.408564,-0.33927 -0.104984,-0.54919 0.312895,-0.76309 0.936074,-0.47915 0.34822,0.15866 0.42972,0.1471 0.42972,-0.0609 0,-0.14121 0.19371,-0.38366 0.43046,-0.53879 0.23675,-0.15512 0.45504,-0.45461 0.48507,-0.66552 0.0341,-0.23937 0.18718,-0.39053 0.40739,-0.40223 0.19403,-0.0103 0.49269,-0.0787 0.6637,-0.15203 0.17101,-0.0733 0.41241,-0.049 0.53644,0.0539 0.16645,0.13814 0.28329,0.0946 0.44617,-0.16618 0.1505,-0.241 0.33045,-0.31849 0.56599,-0.24373 0.26798,0.085 0.34534,0.0267 0.34534,-0.2606 0,-0.41011 0.55328,-0.72774 0.66803,-0.3835 0.0554,0.1663 0.12917,0.1679 0.32304,0.007 0.13816,-0.11466 0.54087,-0.2404 0.8949,-0.27941 0.35404,-0.039 0.74921,-0.20648 0.87817,-0.37215 0.21983,-0.2824 0.25057,-0.28039 0.49241,0.0321 0.24223,0.313 0.28485,0.31569 0.69935,0.0441 0.54421,-0.35658 0.8066,-0.36798 0.8066,-0.035 0,0.41087 0.38747,0.53102 0.63238,0.19609 0.14454,-0.19768 0.30985,-0.25609 0.45831,-0.16194 0.22812,0.14465 0.32068,0.17473 0.6732,0.2188 0.097,0.0121 0.17639,0.19576 0.17639,0.40808 v 0.38604 l 0.35965,-0.38604 c 0.1978,-0.21232 0.43313,-0.38603 0.52295,-0.38603 0.21894,0 0.56931,0.67322 0.45045,0.86553 -0.14279,0.23105 0.62035,0.37458 0.97692,0.18374 0.46502,-0.24887 0.65268,-0.20573 0.77448,0.17805 0.10501,0.33084 0.13528,0.33314 0.71921,0.0547 0.64903,-0.3095 0.8867,-0.21481 0.98819,0.39369 0.0812,0.48692 0.40592,0.79375 0.83999,0.79375 0.28786,0 0.36538,0.11155 0.36538,0.52581 0,0.40957 0.0947,0.54956 0.42821,0.63328 0.44875,0.11263 0.67197,0.45215 0.54261,0.82529 -0.0421,0.12126 0.2855,0.48666 0.72788,0.812 1.01695,0.74787 1.46726,1.70076 1.47242,3.11573 0.004,1.02312 -0.0254,1.09197 -0.8074,1.90806 -0.4462,0.46565 -0.75705,0.90082 -0.69079,0.96705 0.0663,0.0662 0.56358,0.12042 1.10514,0.12042 1.17094,0 1.30422,0.20002 0.67925,1.01939 -0.49103,0.64377 -1.84687,1.18547 -2.96718,1.18547 -0.48975,0 -0.64669,0.0815 -0.72363,0.37569 -0.0656,0.25095 -0.18958,0.34063 -0.37335,0.27012 -0.2213,-0.0849 -0.27775,0.04 -0.2886,0.63855 -0.007,0.40926 -0.0399,0.88197 -0.0722,1.05046 -0.0489,0.25483 1e-4,0.27486 0.29114,0.1191 0.28897,-0.15465 0.366,-0.12566 0.44241,0.16651 0.0557,0.2129 0.19095,0.316 0.33971,0.25891 0.14302,-0.0549 0.24721,0.0146 0.24721,0.16481 0,0.14281 0.14781,0.44896 0.32846,0.68033 0.18066,0.23136 0.38266,0.85988 0.4489,1.39671 0.10789,0.87443 0.0783,1.01552 -0.28437,1.35526 -0.49053,0.45953 -1.34632,0.80422 -1.67937,0.67642 -0.13398,-0.0514 -0.41307,0.0644 -0.62021,0.25738 -0.20713,0.19297 -0.4807,0.35086 -0.60792,0.35086 -0.13788,0 -0.24218,0.23158 -0.25819,0.57327 -0.0403,0.86008 -0.0445,0.8776 -0.37632,1.57688 -0.16955,0.3573 -0.63076,0.92567 -1.0249,1.26304 -0.68168,0.58349 -0.70387,0.63348 -0.45514,1.02545 0.1799,0.28349 0.21356,0.53589 0.1079,0.80893 -0.13591,0.35121 -0.27698,0.39688 -1.22581,0.39688 -1.00185,0 -1.09179,-0.0341 -1.37038,-0.51953 -0.164,-0.28573 -0.45796,-0.56246 -0.65326,-0.61495 -0.44609,-0.11989 -2.72725,-0.10431 -2.42766,0.0166 0.12127,0.0489 0.22049,0.23642 0.22049,0.41663 0,0.18022 0.0807,0.37753 0.17926,0.43846 0.43735,0.27031 -0.13502,0.43921 -1.48833,0.43921 -1.37005,0 -1.50893,-0.0351 -2.15036,-0.54355 z"
       id="path826"
       inkscape:connector-curvature="0"
       sodipodi:nodetypes="ccccccccsccsscccccccsccccccscscccscscsscccccccsscccccccsccccccscccsccscccccssccccccscscccccccscccccsscccsscccscscc" />
  </g>
</svg>
