<?xml version="1.0" encoding="UTF-8" standalone="no"?>
<!-- Created with Inkscape (http://www.inkscape.org/) -->

<svg
   xmlns:dc="http://purl.org/dc/elements/1.1/"
   xmlns:cc="http://creativecommons.org/ns#"
   xmlns:rdf="http://www.w3.org/1999/02/22-rdf-syntax-ns#"
   xmlns:svg="http://www.w3.org/2000/svg"
   xmlns="http://www.w3.org/2000/svg"
   xmlns:sodipodi="http://sodipodi.sourceforge.net/DTD/sodipodi-0.dtd"
   xmlns:inkscape="http://www.inkscape.org/namespaces/inkscape"
   width="210mm"
   height="297mm"
   viewBox="0 0 210 297"
   version="1.1"
   id="svg834"
   inkscape:version="0.92.4 (5da689c313, 2019-01-14)"
   sodipodi:docname="tractor.svg">
  <defs
     id="defs828" />
  <sodipodi:namedview
     id="base"
     pagecolor="#ffffff"
     bordercolor="#666666"
     borderopacity="1.0"
     inkscape:pageopacity="0.0"
     inkscape:pageshadow="2"
     inkscape:zoom="1.979899"
     inkscape:cx="459.85801"
     inkscape:cy="734.83398"
     inkscape:document-units="mm"
     inkscape:current-layer="layer1"
     showgrid="false"
     inkscape:window-width="1920"
     inkscape:window-height="1017"
     inkscape:window-x="-8"
     inkscape:window-y="-8"
     inkscape:window-maximized="1" />
  <metadata
     id="metadata831">
    <rdf:RDF>
      <cc:Work
         rdf:about="">
        <dc:format>image/svg+xml</dc:format>
        <dc:type
           rdf:resource="http://purl.org/dc/dcmitype/StillImage" />
        <dc:title></dc:title>
      </cc:Work>
    </rdf:RDF>
  </metadata>
  <g
     inkscape:label="Ebene 1"
     inkscape:groupmode="layer"
     id="layer1">
    <path
       style="fill:#000000;stroke-width:0.17638889"
       d="m 85.863597,122.69107 c -1.26628,-0.086 -1.663795,-0.19419 -2.557639,-0.69588 -1.861589,-1.04485 -3.814969,-2.53224 -3.704304,-2.82063 0.05971,-0.1556 -0.145791,-0.51855 -0.505716,-0.89318 -0.333463,-0.34709 -0.81755,-0.94857 -1.075748,-1.33663 -0.297981,-0.44784 -0.642504,-0.73805 -0.943231,-0.79452 -0.391204,-0.0735 -0.483976,-0.19631 -0.532287,-0.70485 -0.03218,-0.33873 -0.124065,-0.69557 -0.204188,-0.79297 -0.280719,-0.34127 -1.412998,-2.70862 -1.412998,-2.95429 0,-0.13646 -0.207393,-0.44055 -0.460872,-0.67575 l -0.460871,-0.42762 0.122645,0.91149 c 0.105683,0.78545 0.07185,0.96229 -0.244685,1.27882 -0.202031,0.20203 -0.545922,0.36986 -0.764203,0.37294 -0.572832,0.008 -1.026763,0.41532 -1.086393,0.97462 -0.04762,0.4466 -0.499652,0.96005 -0.845228,0.96005 -0.07942,0 -0.280328,-0.15875 -0.446459,-0.35278 -0.406767,-0.47507 -0.892255,-0.44417 -1.385632,0.0882 -0.264885,0.28581 -0.599161,0.44097 -0.95005,0.44097 -0.406291,0 -0.591503,-0.11003 -0.74229,-0.44097 -0.148774,-0.32652 -0.337111,-0.44098 -0.725646,-0.44098 -0.333132,0 -0.673945,0.16102 -0.933403,0.44098 -0.224774,0.24253 -0.558917,0.44097 -0.742542,0.44097 -0.183624,0 -0.477528,0.15875 -0.653121,0.35278 -0.175593,0.19402 -0.417589,0.35277 -0.53777,0.35277 -0.350909,0 -3.758089,-1.35125 -5.1388,-2.038 -1.519478,-0.75576 -3.630969,-2.62236 -3.252568,-2.87533 0.147802,-0.0988 0.186513,-0.25404 0.09876,-0.39602 -0.07938,-0.12844 -0.127773,-0.47929 -0.107544,-0.77967 0.02648,-0.39313 -0.09311,-0.66682 -0.426816,-0.97683 -0.878002,-0.81565 -1.659568,-2.23348 -1.659568,-3.01061 0,-0.56842 0.05599,-0.69952 0.264584,-0.61947 0.213815,0.0821 0.266069,-0.0751 0.272325,-0.81898 0.0043,-0.50627 0.122776,-1.238 0.263373,-1.62606 0.239627,-0.66138 0.233621,-0.7207 -0.09594,-0.94755 -0.193362,-0.1331 -0.351568,-0.38924 -0.351568,-0.5692 0,-0.41274 0.77459,-0.93372 1.216459,-0.81817 0.228339,0.0597 0.39229,-0.0409 0.518626,-0.31813 0.257239,-0.564583 2.347044,-2.750433 3.184293,-3.330653 0.381341,-0.26427 0.737224,-0.65323 0.790852,-0.86436 0.05363,-0.21114 0.266193,-0.48814 0.472369,-0.61557 0.311233,-0.19235 0.436859,-0.19052 0.740081,0.0108 0.317817,0.21102 0.526752,0.18958 1.609866,-0.16519 0.684558,-0.22423 1.407209,-0.40769 1.605892,-0.40769 0.205025,0 0.436538,-0.17118 0.53536,-0.39585 0.209298,-0.47582 0.703182,-0.60258 1.091628,-0.28018 0.15576,0.12928 0.622676,0.23724 1.03759,0.23992 0.87332,0.006 0.802425,0.19365 1.13238,-3.00348 0.443343,-4.29582 0.722396,-6.17406 0.974436,-6.55872 0.27732,-0.42325 1.241152,-0.97828 2.422793,-1.39519 0.383999,-0.13548 1.979217,-0.41368 3.54493,-0.61823 2.310442,-0.30184 3.486437,-0.35792 6.242237,-0.29769 l 3.395486,0.0742 0.01607,-0.62927 c 0.138082,-5.40589 0.278578,-7.78545 0.471036,-7.97791 0.120149,-0.12014 0.218451,-0.63634 0.218451,-1.1471 0,-0.74813 -0.06858,-0.96536 -0.352778,-1.11746 -0.511221,-0.27359 -0.470996,-1.11184 0.06718,-1.39986 0.597517,-0.31978 1.157705,-0.0779 1.452271,0.62712 0.272189,0.65143 0.39001,4.637 0.266843,9.02663 -0.03619,1.28967 -0.0343,2.37635 0.0042,2.41485 0.07042,0.0704 2.623779,0.12131 5.097937,0.1016 l 1.332186,-0.0106 0.189904,-0.83785 c 0.53283,-2.35081 1.542529,-6.16315 2.040701,-7.7051 0.336806,-1.0425 0.33673,-1.04746 -0.02043,-1.32292 -1.12802,-0.86998 -0.587372,-3.47938 0.792665,-3.82575 0.246325,-0.0618 0.636023,-0.30056 0.865993,-0.53053 0.491829,-0.49183 1.332768,-0.55266 1.758234,-0.12719 0.2599,0.25989 0.45416,0.26814 1.820595,0.0773 0.8413,-0.1175 1.92652,-0.28881 2.41159,-0.38071 0.48507,-0.0919 1.75507,-0.28498 2.82222,-0.42908 2.85452,-0.38545 3.14419,-0.45314 3.49055,-0.81568 0.42083,-0.44047 2.02228,-0.47228 2.18685,-0.0434 0.0936,0.24386 0.27119,0.26571 1.18509,0.14582 0.59125,-0.0776 1.48906,-0.12598 1.99511,-0.10759 0.95872,0.0348 3.4088,0.81737 4.86297,1.55319 1.81024,0.91598 3.25414,2.72407 3.04011,3.80687 -0.1934,0.97846 -0.46807,1.53046 -0.81658,1.64107 -0.39296,0.12472 -0.38762,0.2402 0.31289,6.76678 0.24363,2.26985 0.40703,4.31495 0.36312,4.54466 -0.0606,0.3169 0.0101,0.43756 0.29308,0.50014 0.20511,0.0454 0.92251,0.20499 1.59423,0.35471 1.44202,0.32141 2.2253,0.76719 2.88351,1.64102 0.26471,0.35143 0.86006,1.01242 1.32299,1.46885 0.93678,0.92366 1.44322,1.93441 1.60388,3.201 0.12288,0.96877 -0.0807,1.15954 -0.92363,0.86568 -0.49347,-0.17202 -0.51446,-0.15643 -0.61382,0.4559 -0.12398,0.76399 0.0858,1.05891 0.80478,1.13118 0.76523,0.0769 1.09111,0.61544 0.75938,1.25486 -0.32193,0.62052 -0.21281,0.88685 0.4902,1.19637 0.70026,0.30833 0.8435,0.9924 0.30906,1.47606 -0.53726,0.48622 -0.46467,1.03766 0.16804,1.27648 0.63803,0.24084 0.72593,0.947313 0.17639,1.417843 -0.4825,0.41313 -0.44393,1.00531 0.0882,1.35396 0.66194,0.43373 0.58689,1.08856 -0.17639,1.5389 -0.66344,0.39144 -0.85732,1.13034 -0.34788,1.32583 0.71731,0.27526 0.66585,1.32034 -0.0766,1.55599 -0.47323,0.1502 -0.59199,0.58499 -0.28103,1.02895 0.39166,0.55916 0.32349,0.96012 -0.22052,1.29702 -0.74478,0.46124 -0.90786,0.74141 -0.80403,1.38126 0.0799,0.49269 0.0211,0.6332 -0.37356,0.89178 -0.36432,0.23872 -0.55849,0.26593 -0.87348,0.12241 -0.55302,-0.25197 -1.5208,0.34219 -1.5208,0.93369 0,0.60913 -0.62232,0.73981 -1.26398,0.26541 -0.55635,-0.41133 -1.2765,-0.3754 -2.00186,0.0999 -0.30337,0.19878 -0.43871,0.19575 -0.85281,-0.0191 -0.43382,-0.22507 -0.54187,-0.22282 -0.91083,0.0189 -0.68023,0.4457 -3.76167,1.02187 -4.25734,0.79603 -0.22801,-0.10389 -0.41457,-0.25805 -0.41457,-0.34258 0,-0.0845 -0.59124,-0.11573 -1.31387,-0.0694 -1.27426,0.0818 -1.32984,0.0684 -1.84344,-0.44524 -0.68258,-0.68259 -1.37222,-0.82051 -1.92571,-0.38513 -0.36922,0.29043 -0.47787,0.30209 -0.88793,0.0953 -0.43545,-0.21956 -0.82795,-0.30403 -2.82492,-0.60795 -0.72007,-0.10959 -0.81475,-0.19179 -1.45559,-1.26374 -0.78166,-1.30753 -1.69011,-2.22879 -2.36474,-2.39811 -1.05746,-0.26541 -1.75111,0.65087 -1.34433,1.7758 0.28397,0.78532 0.25485,2.83284 -0.0485,3.40919 -0.13788,0.26197 -0.41352,0.61258 -0.61253,0.77913 -0.57371,0.48013 -0.65455,1.14195 -0.21251,1.73984 0.44463,0.6014 0.25803,0.65649 -0.5516,0.16286 -1.03148,-0.62889 -1.52046,-0.36759 -0.91901,0.49111 0.52305,0.74676 -0.23214,1.69913 -0.977985,1.23334 -0.58754,-0.36692 -0.98377,0.0208 -0.92577,0.90581 0.0632,0.96428 -0.19876,1.42603 -0.808964,1.42603 -0.483348,0 -1.620108,0.97945 -1.620108,1.39592 0,0.20313 -0.0832,0.22638 -1.058333,0.29585 -0.339548,0.0242 -1.212673,0.1652 -1.940278,0.31335 -0.727604,0.14816 -1.62579,0.27355 -1.99597,0.27865 -0.370181,0.005 -0.824142,0.0901 -1.008804,0.18897 -0.220299,0.1179 -0.686371,0.12343 -1.355418,0.0161 -0.611724,-0.0982 -1.086709,-0.0995 -1.187238,-0.003 -0.09216,0.0882 -0.211226,0.14663 -0.264583,0.1299 -0.05336,-0.0167 -0.771702,-0.0763 -1.59632,-0.13229 z M 118.39362,85.305167 c 0.0524,-0.0848 0.53171,-0.3608 1.06513,-0.61337 0.88637,-0.41967 0.96246,-0.50129 0.88402,-0.94826 -0.11009,-0.62726 -0.96528,-7.95925 -0.96528,-8.27582 0,-0.37279 -1.22988,-0.26108 -6.48844,0.58934 l -0.57941,0.0937 0.0503,1.69457 0.0502,1.69457 0.74416,0.14679 c 0.73219,0.14443 1.4607,0.78503 1.4607,1.28444 0,0.1247 -0.31126,1.14361 -0.69169,2.26425 l -0.69168,2.03752 2.32328,0.0547 c 1.27781,0.0301 2.41782,0.072 2.53336,0.0932 0.11554,0.0212 0.25295,-0.0309 0.30536,-0.11565 z m -18.469745,-2.97683 c 0.135505,-0.17077 0.175165,-0.55102 0.108325,-1.03865 -0.05961,-0.43478 -0.0337,-0.76924 0.0595,-0.76924 0.0907,0 0.26567,-0.27857 0.38878,-0.61905 0.14032,-0.38804 0.43329,-0.72779 0.78509,-0.91043 0.57336,-0.29768 2.18319,-0.39246 2.87555,-0.1693 0.35312,0.11381 0.3754,0.0576 0.39846,-1.00557 l 0.0244,-1.12613 -1.80957,-0.74938 c -2.05096,-0.84934 -4.49911,-1.77014 -4.706328,-1.77014 -0.162723,0 -0.751768,1.93156 -1.237197,4.05694 -0.188339,0.82462 -0.463515,1.97556 -0.6115,2.55764 -0.441083,1.73495 -0.415627,1.82192 0.556216,1.90049 1.392299,0.11257 2.933404,-0.0612 3.168264,-0.35718 z m 4.460565,-0.80944 c 0,-1.0271 -0.0366,-1.13489 -0.44928,-1.32292 -0.49431,-0.22522 -1.46888,-0.2698 -1.94064,-0.0888 -0.23463,0.09 -0.16891,0.15898 0.29425,0.30868 0.48098,0.15546 0.60627,0.29513 0.64759,0.72192 0.10029,1.036 0.39086,1.49931 0.94031,1.49931 0.50603,0 0.50777,-0.004 0.50777,-1.11822 z m 3.67757,-1.68978 c 0.1959,-0.10484 0.55334,-0.19062 0.79432,-0.19062 0.93211,0 0.99616,-0.10823 0.99616,-1.68347 v -1.46935 l -0.66146,0.0866 c -0.3638,0.0476 -0.90556,0.12302 -1.2039,0.16751 l -0.54245,0.0809 -0.31087,2.10626 c -0.33886,2.29587 -0.24942,2.92752 0.25501,1.80085 0.17435,-0.38944 0.47729,-0.79385 0.67319,-0.8987 z"
       id="path1390"
       inkscape:connector-curvature="0"
       sodipodi:nodetypes="ccccccccsccccccsccscscscscccccsccccscccccccscccscccccccsccccccccccccccsccccccccccccccccccccccccccccccccscccccscccccccccccccccssccccccccccccscccccscccsccccsccccccscsccccccscscccsscccccccc" />
  </g>
</svg>
