<?xml version="1.0" encoding="UTF-8" standalone="no"?>
<!-- Created with Inkscape (http://www.inkscape.org/) -->

<svg
   xmlns:dc="http://purl.org/dc/elements/1.1/"
   xmlns:cc="http://creativecommons.org/ns#"
   xmlns:rdf="http://www.w3.org/1999/02/22-rdf-syntax-ns#"
   xmlns:svg="http://www.w3.org/2000/svg"
   xmlns="http://www.w3.org/2000/svg"
   xmlns:sodipodi="http://sodipodi.sourceforge.net/DTD/sodipodi-0.dtd"
   xmlns:inkscape="http://www.inkscape.org/namespaces/inkscape"
   width="210mm"
   height="297mm"
   viewBox="0 0 210 297"
   version="1.1"
   id="svg1398"
   inkscape:version="0.92.4 (5da689c313, 2019-01-14)"
   sodipodi:docname="tree.svg">
  <defs
     id="defs1392" />
  <sodipodi:namedview
     id="base"
     pagecolor="#ffffff"
     bordercolor="#666666"
     borderopacity="1.0"
     inkscape:pageopacity="0.0"
     inkscape:pageshadow="2"
     inkscape:zoom="1.4"
     inkscape:cx="17.430002"
     inkscape:cy="746.9968"
     inkscape:document-units="mm"
     inkscape:current-layer="layer1"
     showgrid="false"
     inkscape:window-width="1920"
     inkscape:window-height="1017"
     inkscape:window-x="-8"
     inkscape:window-y="-8"
     inkscape:window-maximized="1" />
  <metadata
     id="metadata1395">
    <rdf:RDF>
      <cc:Work
         rdf:about="">
        <dc:format>image/svg+xml</dc:format>
        <dc:type
           rdf:resource="http://purl.org/dc/dcmitype/StillImage" />
        <dc:title></dc:title>
      </cc:Work>
    </rdf:RDF>
  </metadata>
  <g
     inkscape:label="Ebene 1"
     inkscape:groupmode="layer"
     id="layer1">
    <path
       style="fill:#000000;stroke-width:0.17638889"
       d="m 85.743906,160.03265 c -0.72051,-0.25558 -2.41716,-1.45502 -2.69832,-1.90756 -0.32107,-0.51681 -0.1321,-0.94058 0.56841,-1.27463 0.53023,-0.25285 0.61249,-0.25526 0.70253,-0.0206 0.0561,0.14615 0.18007,0.21747 0.27553,0.15847 0.26917,-0.16635 1.59923,0.24915 1.70842,0.5337 0.18345,0.47805 3.71661,1.31852 5.66114,1.34667 0.21828,0.003 0.39687,0.10047 0.39687,0.21624 0,0.31841 -0.98223,0.59272 -2.60273,0.72687 -0.8009,0.0663 -1.50012,0.19162 -1.55381,0.27849 -0.13227,0.21402 -1.80266,0.17486 -2.45804,-0.0576 z M 62.13189,158.7478 c -0.157286,-0.15728 -0.354264,-0.24377 -0.43773,-0.19218 -0.220868,0.1365 -0.806579,-0.33854 -0.676637,-0.54879 0.307193,-0.49705 2.185736,-1.53543 3.905498,-2.15881 1.863547,-0.67549 1.990799,-0.6971 3.527778,-0.59919 1.465567,0.0934 1.722856,0.0576 3.181994,-0.4427 1.212284,-0.41562 1.700598,-0.68105 2.066006,-1.12297 0.263179,-0.31828 0.646859,-0.76666 0.852623,-0.99638 0.205763,-0.22973 0.659596,-0.93706 1.008518,-1.57184 0.52345,-0.9523 0.657518,-1.09519 0.766577,-0.81704 0.201085,0.51287 0.180095,1.13006 -0.06112,1.79713 -0.204583,0.56577 -0.188197,0.62884 0.264583,1.0183 0.575617,0.49513 0.584987,0.54059 0.135633,0.6581 -0.47764,0.1249 -1.052619,1.32694 -0.730078,1.52628 0.315625,0.19507 0.08189,1.23799 -0.306528,1.3677 -0.160625,0.0536 -0.609547,0.24369 -0.997603,0.42233 -1.705603,0.78517 -2.286798,0.90326 -4.850694,0.98556 -2.165981,0.0695 -6.390449,0.58733 -7.140772,0.87526 -0.122141,0.0469 -0.350763,-0.0435 -0.508048,-0.20076 z m 36.885276,-1.35044 c -0.26679,-0.0974 -0.48507,-0.27257 -0.48507,-0.38918 0,-0.28898 -2.24276,-1.38325 -2.96087,-1.44464 -0.31879,-0.0273 -0.83473,0.03 -1.14653,0.12733 -1.31709,0.41096 -1.79164,0.45651 -3.08437,0.29601 -1.1218,-0.13927 -1.52744,-0.11725 -2.29658,0.12468 -1.01528,0.31934 -2.09611,0.25158 -2.85887,-0.17924 -0.24253,-0.13699 -0.69894,-0.36884 -1.01424,-0.51523 -0.38036,-0.1766 -0.57326,-0.39084 -0.57326,-0.63669 0,-0.58187 -0.47692,-1.35655 -0.90389,-1.4682 -0.33584,-0.0878 -0.35658,-0.14057 -0.15215,-0.38689 0.30283,-0.36489 0.32883,-2.85017 0.0354,-3.37995 -0.11703,-0.21125 -0.1613,-0.51823 -0.0984,-0.68217 0.0788,-0.20536 0.26238,0.10611 0.59025,1.00146 0.46946,1.28203 1.4034,2.8639 1.93283,3.27375 0.14943,0.11568 0.6079,0.3401 1.01883,0.4987 0.71288,0.27515 0.78163,0.27172 1.49931,-0.0746 1.12056,-0.54079 2.95979,-0.90052 4.04298,-0.79075 2.08248,0.21102 4.91194,0.99034 6.02713,1.66004 0.59895,0.35968 1.26874,0.71 1.488434,0.77847 0.21969,0.0685 0.35535,0.19582 0.30147,0.28301 -0.0539,0.0872 0.0839,0.20102 0.30612,0.25297 0.53296,0.12457 1.22419,0.23926 1.54023,0.25556 0.18499,0.01 0.16128,0.081 -0.0871,0.26265 -0.1877,0.13725 -0.3832,0.18171 -0.43444,0.0988 -0.0512,-0.0829 -0.28409,0.12788 -0.51743,0.46841 -0.29335,0.42812 -0.52341,0.59324 -0.74562,0.53513 -0.17675,-0.0462 -0.36581,-0.0121 -0.42014,0.0758 -0.121394,0.1964 -0.373634,0.18505 -1.004014,-0.0452 z m -21.77416,-9.05934 c -0.207751,-0.15131 -0.176664,-0.33584 0.19314,-1.14653 0.559471,-1.22647 1.095486,-3.68499 1.248989,-5.7287 0.06558,-0.87312 0.243543,-2.02406 0.395474,-2.55764 0.431493,-1.5154 0.404225,-6.70394 -0.05997,-11.40961 l -0.09021,-0.91448 -0.738406,0.51134 c -0.406121,0.28123 -1.29403,0.66877 -1.973127,0.86119 -1.596656,0.4524 -2.581245,0.81499 -2.482148,0.91409 0.110116,0.11012 -1.163987,0.0114 -2.659453,-0.20602 -0.693575,-0.10085 -1.563639,-0.33763 -1.933476,-0.52618 -0.369837,-0.18855 -0.774471,-0.34283 -0.899187,-0.34283 -0.124716,0 -0.811684,-0.55562 -1.526597,-1.23472 -1.2641,-1.20077 -1.324832,-1.23472 -2.208706,-1.23472 -0.970955,0 -3.011494,-0.63056 -3.982455,-1.23065 -0.950814,-0.58764 -1.797586,-2.01312 -2.237692,-3.767 -0.359777,-1.43375 -0.369521,-1.60263 -0.122129,-2.11666 0.147863,-0.30724 0.648263,-1.35792 1.112001,-2.33486 0.706772,-1.48894 1.082216,-2.02352 2.321015,-3.30483 1.485086,-1.53603 1.810312,-2.20431 1.23564,-2.53897 -0.133219,-0.0776 -0.449209,-0.55216 -0.702202,-1.05462 -0.252992,-0.50245 -0.527118,-0.95505 -0.609169,-1.00576 -0.152303,-0.0941 -0.119435,-2.49225 0.05035,-3.67393 0.165121,-1.1492 2.615461,-4.19633 3.374466,-4.19633 0.121129,0 0.325123,-0.101679 0.453319,-0.225952 0.70445,-0.682889 2.398067,-1.332513 4.228515,-1.621942 0.629308,-0.0995 0.642008,-0.116982 0.555224,-0.764004 -0.07691,-0.573423 0.0057,-0.781718 0.616261,-1.554159 1.377878,-1.743146 3.10851,-2.711755 5.658007,-3.166701 2.531888,-0.451805 5.956016,-0.04466 7.858706,0.934445 0.28357,0.14592 1.05434,0.668493 1.71284,1.161274 1.2044,0.901305 1.91673,1.992131 1.91673,2.935177 0,0.501121 0.86923,0.996135 2.14325,1.22055 1.99781,0.351907 4.72534,2.500592 5.69809,4.488822 0.44547,0.91051 0.47033,1.08536 0.38641,2.71778 -0.10076,1.95992 -0.37779,2.8268 -1.36697,4.27747 -0.63336,0.92886 -0.75342,1.48348 -0.22646,1.04613 0.20183,-0.1675 0.23313,-0.15832 0.15493,0.0455 -0.0693,0.18051 0.28328,0.44634 1.20269,0.90689 0.71538,0.35835 1.37457,0.65154 1.46488,0.65154 0.38662,0 1.54171,1.17471 1.84051,1.87178 1.047864,2.44456 1.239664,3.96809 0.71599,5.6874 -0.86652,2.84492 -2.78655,4.76188 -6.51435,6.50389 -1.84706,0.86313 -3.04992,1.16273 -5.87255,1.46266 -2.28687,0.24301 -3.02815,0.0884 -3.80999,-0.79471 -1.02977,-1.16315 -1.27696,-0.78677 -1.27263,1.93773 0.001,0.87312 0.0493,2.71131 0.10645,4.08486 0.10144,2.43761 0.11375,2.49924 0.5145,2.57584 0.27715,0.053 0.74259,-0.14798 1.43229,-0.61841 0.56194,-0.38329 1.62554,-1.00183 2.36355,-1.37454 1.0496,-0.53004 1.40496,-0.81062 1.6316,-1.28824 0.15936,-0.33583 0.28975,-0.64769 0.28975,-0.69302 0,-0.0453 -0.33286,-0.12705 -0.73968,-0.18162 -1.41397,-0.18965 -1.82266,-1.47711 -0.7951,-2.50467 0.50016,-0.50016 0.74761,-0.59963 1.76186,-0.70825 2.2631,-0.24236 3.44288,0.22417 2.94055,1.1628 -0.38279,0.71525 -0.0904,0.86172 0.83187,0.4167 0.46816,-0.22591 1.00995,-0.4312 1.20397,-0.4562 0.50728,-0.0654 2.20453,0.76763 2.20666,1.08302 0.001,0.14609 0.31849,0.39863 0.70555,0.5612 0.67109,0.28185 0.87015,0.65012 0.69832,1.29192 -0.026,0.097 -0.0346,0.77519 -0.0191,1.50705 0.0275,1.30266 0.0152,1.34319 -0.58536,1.9253 -0.51151,0.49577 -0.77717,0.6082 -1.59801,0.67627 -0.81133,0.0673 -1.05279,0.0195 -1.37268,-0.27191 -0.21349,-0.19445 -0.66673,-0.40306 -1.00721,-0.46357 -0.75751,-0.13463 -1.1179,-0.63144 -0.89099,-1.22825 0.20597,-0.54173 -0.0578,-0.82198 -0.77357,-0.82198 -0.70502,0 -6.28172,2.7733 -7.34466,3.65251 -1.30265,1.0775 -1.47053,1.59714 -1.34086,4.15055 0.0604,1.1896 0.23144,2.79791 0.38008,3.57403 0.14863,0.77611 0.26927,1.49048 0.26808,1.5875 -0.001,0.097 -0.29882,0.37386 -0.66142,0.61523 -0.61655,0.4104 -0.80668,0.43898 -2.933843,0.44097 -1.274112,0.001 -2.383471,-0.0772 -2.522167,-0.1782 z m 13.49479,-15.6526 c 0.0403,-0.20933 -0.0537,-0.30665 -0.29624,-0.30665 -0.40452,0 -0.62854,0.26344 -0.45828,0.53893 0.17167,0.27777 0.68684,0.11918 0.75452,-0.23228 z"
       id="path1954"
       inkscape:connector-curvature="0"
       sodipodi:nodetypes="cccccccsccccccccccccccccccccccccsccccccscccccccccccccccccccccccssscccccsscscccccccccsccccsccssscccccssccccccccccscscccccccccccccscccccccccscc" />
  </g>
</svg>
