<?xml version="1.0" encoding="UTF-8" standalone="no"?>
<!-- Created with Inkscape (http://www.inkscape.org/) -->

<svg
   xmlns:dc="http://purl.org/dc/elements/1.1/"
   xmlns:cc="http://creativecommons.org/ns#"
   xmlns:rdf="http://www.w3.org/1999/02/22-rdf-syntax-ns#"
   xmlns:svg="http://www.w3.org/2000/svg"
   xmlns="http://www.w3.org/2000/svg"
   xmlns:sodipodi="http://sodipodi.sourceforge.net/DTD/sodipodi-0.dtd"
   xmlns:inkscape="http://www.inkscape.org/namespaces/inkscape"
   width="210mm"
   height="297mm"
   viewBox="0 0 210 297"
   version="1.1"
   id="svg8"
   inkscape:version="0.92.4 (5da689c313, 2019-01-14)"
   sodipodi:docname="Zeichnung.svg">
  <defs
     id="defs2" />
  <sodipodi:namedview
     id="base"
     pagecolor="#ffffff"
     bordercolor="#666666"
     borderopacity="1.0"
     inkscape:pageopacity="0.0"
     inkscape:pageshadow="2"
     inkscape:zoom="1.979899"
     inkscape:cx="405.97968"
     inkscape:cy="754.37837"
     inkscape:document-units="mm"
     inkscape:current-layer="layer1"
     showgrid="false"
     inkscape:window-width="958"
     inkscape:window-height="1008"
     inkscape:window-x="-7"
     inkscape:window-y="0"
     inkscape:window-maximized="0" />
  <metadata
     id="metadata5">
    <rdf:RDF>
      <cc:Work
         rdf:about="">
        <dc:format>image/svg+xml</dc:format>
        <dc:type
           rdf:resource="http://purl.org/dc/dcmitype/StillImage" />
        <dc:title></dc:title>
      </cc:Work>
    </rdf:RDF>
  </metadata>
  <g
     inkscape:label="Ebene 1"
     inkscape:groupmode="layer"
     id="layer1">
    <path
       style="fill:#000000;stroke-width:0.26458332"
       d="m 104.8317,122.64416 c -1.23693,-0.3618 -3.55865,-1.06419 -5.159375,-1.56087 -1.60073,-0.49668 -3.505729,-1.04258 -4.233334,-1.21311 -0.727604,-0.17053 -3.585104,-0.95955 -6.349999,-1.75339 -7.898869,-2.26786 -10.815585,-2.92109 -18.717866,-4.19205 -2.532253,-0.40727 -6.044724,-1.29263 -6.920288,-1.74434 -0.892826,-0.46061 -1.481513,-1.06246 -1.483267,-1.51642 -7.94e-4,-0.2321 -0.166458,-0.73792 -0.367914,-1.12404 -0.201459,-0.38611 -0.512146,-1.16002 -0.690422,-1.71979 -0.759577,-2.38502 -4.789681,-10.053382 -5.678231,-10.804362 -1.195059,-1.01003 -4.10972,-6.26792 -4.10972,-7.41371 0,-0.83624 0.60093,-2.49485 1.03279,-2.85058 0.232331,-0.19137 1.077262,-0.62924 1.877627,-0.97306 3.740917,-1.607 7.837146,-3.73641 8.140062,-4.23158 0.344754,-0.56356 0.127283,-1.10551 -0.996313,-2.48284 -0.786384,-0.96397 -3.897944,-4.0258 -4.748995,-4.67309 -0.478324,-0.3638 -1.183055,-0.9074 -1.566071,-1.20798 -0.60659,-0.47604 -1.342385,-0.89179 -3.388961,-1.91488 -0.45167,-0.22579 -1.226047,-0.62864 -2.940008,-1.52949 -1.02303,-0.5377 -4.50171,-0.23114 -5.1595,0.45468 -0.655987,0.68395 -1.418251,0.61651 -1.934327,-0.17112 -0.534867,-0.81631 -1.057388,-8.89873 -0.772109,-11.94308 0.15317,-1.63455 0.284431,-2.02875 0.784675,-2.35652 0.330404,-0.21649 0.767906,-0.32947 0.972227,-0.25106 0.204321,0.0784 1.222388,1.07277 2.262371,2.2097 1.545449,1.68951 6.194851,5.33267 6.80556,5.33267 0.08079,0 0.917995,0.35317 1.860462,0.78483 3.824465,1.75164 4.814356,2.10515 8.499316,3.03528 2.228406,0.56247 6.418996,1.18478 8.096777,1.20238 0.340338,0.004 0.478856,-0.36131 0.626014,-1.64906 0.554863,-4.85549 2.690154,-11.02958 4.57526,-13.22916 0.694902,-0.81083 2.036125,-0.59095 3.297282,0.54054 0.615212,0.55196 1.416225,1.20929 1.780027,1.46075 0.363802,0.25145 1.435365,0.98982 2.38125,1.64082 0.945885,0.65099 2.255573,1.59722 2.910417,2.10272 1.461137,1.12792 10.970881,5.87763 12.815022,6.40056 0.737102,0.20901 1.578311,0.49003 1.869351,0.62448 0.29104,0.13445 1.60073,0.59052 2.91042,1.01347 l 2.38125,0.76902 0.17323,-0.95925 c 0.0953,-0.52759 0.3129,-2.03082 0.48359,-3.34051 0.1707,-1.30969 0.5285,-3.03609 0.79511,-3.83646 0.26661,-0.80036 0.57368,-1.9306 0.68238,-2.51164 0.1087,-0.58103 0.53615,-1.87733 0.94989,-2.88066 0.41374,-1.00332 0.75225,-1.92061 0.75225,-2.03841 0,-0.11779 0.42753,-1.10239 0.95007,-2.18799 1.33773,-2.7792 2.26547,-2.91986 4.00977,-0.60792 1.93622,2.5663 3.63914,4.8568 4.16829,5.60652 0.63666,0.90205 1.66861,2.17642 2.34861,2.90031 0.2734,0.29104 0.81331,1.01787 1.1998,1.61518 0.3865,0.59731 1.685,2.14512 2.88555,3.43958 1.75123,1.88822 2.23258,2.2751 2.43444,1.9567 0.13839,-0.21828 0.25345,-0.62631 0.25567,-0.90672 0.002,-0.28041 0.47201,-1.47104 1.04395,-2.64583 1.11446,-2.28915 4.20552,-5.97716 5.00081,-5.96657 0.72098,0.01 1.47357,0.79953 2.82141,2.96139 0.69995,1.12268 1.35491,1.99039 1.45546,1.92825 0.81628,-0.50449 3.16435,-2.13823 3.94023,-2.74153 0.52565,-0.40874 1.13479,-0.80749 1.35363,-0.88611 0.51019,-0.1833 3.50381,-2.59089 3.78244,-3.04199 0.11637,-0.18841 0.33736,-0.34256 0.49109,-0.34256 0.6645,0 7.9355,-6.21571 9.46319,-8.08972 0.91215,-1.11894 1.33382,-1.43528 1.91319,-1.43528 0.83835,0 1.21372,0.81804 0.87094,1.89805 -0.2421,0.7628 -2.64162,3.30361 -4.74791,5.02748 -6.06146,4.96096 -8.74256,7.0297 -11.50938,8.88067 -1.23692,0.82749 -2.36802,1.5995 -2.51354,1.71558 -0.14552,0.11609 -0.592,0.45654 -0.99219,0.75655 -0.40018,0.30003 -0.7276,0.78089 -0.7276,1.0686 0,0.67022 0.75638,2.14392 1.04449,2.03505 0.12083,-0.0457 0.91751,-0.71255 1.77041,-1.48198 0.8529,-0.76943 2.72325,-2.40464 4.15633,-3.63381 3.04078,-2.60809 5.86898,-5.58585 6.24524,-6.57549 0.45276,-1.19085 2.39395,-0.75155 2.39395,0.54176 0,1.16302 -3.68093,5.27492 -7.81198,8.72663 -2.80389,2.3428 -4.8762,4.22103 -5.39757,4.89208 l -0.54397,0.70013 0.65571,1.48269 c 0.36065,0.81547 0.71271,1.48268 0.78237,1.48268 0.19992,0 1.95896,-0.79128 4.0399,-1.81729 2.88206,-1.42099 5.149,-3.22462 10.26246,-8.16502 2.55709,-2.47055 4.94103,-4.64807 5.29766,-4.83893 0.50062,-0.26793 0.79966,-0.27809 1.31212,-0.0446 0.90047,0.41029 0.88182,1.45616 -0.0398,2.23373 -1.56897,1.3237 -4.05798,3.66714 -6.98985,6.58104 -1.70281,1.69238 -3.19848,3.12139 -3.32371,3.17558 -0.12523,0.0542 -1.23972,0.76374 -2.47665,1.57679 -2.71465,1.78438 -5.96058,3.41537 -6.79714,3.41537 -0.72577,0 -0.73473,0.0566 -0.19067,1.20307 l 0.42052,0.88618 1.10083,-0.45909 c 1.25832,-0.52475 2.31864,-1.12067 4.24591,-2.38624 0.74407,-0.4886 2.24581,-1.35524 3.33722,-1.92587 2.23831,-1.17027 1.93937,-0.98315 5.23682,-3.27797 1.35228,-0.94111 2.84056,-1.90849 3.30729,-2.14975 0.94607,-0.48904 2.25732,-1.51773 4.08059,-3.20127 1.33755,-1.23505 2.27146,-1.43554 2.72648,-0.58532 0.38042,0.71082 0.18222,1.24282 -0.90178,2.4205 -0.7641,0.83014 -7.61744,5.77159 -8.00467,5.77159 -0.0727,0 -0.86791,0.52155 -1.76711,1.15901 -0.8992,0.63745 -2.23022,1.45791 -2.95783,1.82323 -0.7276,0.36532 -2.39448,1.33618 -3.70417,2.15747 -1.30968,0.82128 -3.18197,1.87606 -4.16063,2.34395 -1.22054,0.58353 -1.78144,1.00159 -1.78594,1.33113 -0.0187,1.37043 -1.12868,1.86898 -2.77097,1.24459 -0.37521,-0.14266 -1.36523,-0.37646 -2.20003,-0.51955 -0.83481,-0.1431 -3.12519,-0.57144 -5.08972,-0.95186 -10.07759,-1.95146 -15.62419,-2.35547 -29.46754,-2.14642 -5.693735,0.086 -10.888027,0.25042 -11.54287,0.36541 -1.071457,0.18815 -1.182002,0.27506 -1.104474,0.86825 0.104862,0.80235 3.41123,6.15763 5.715994,9.25812 2.79342,3.75786 3.7108,5.6998 3.06194,6.48164 -0.52365,0.63095 -1.775218,0.49705 -2.259276,-0.24171 -0.478904,-0.7309 -0.758751,-0.86882 -2.768351,-1.36434 -1.830387,-0.45133 -1.852083,-0.45156 -1.852083,-0.0191 0,0.54921 5.053224,3.87479 5.88776,3.87479 0.11188,0 0.70814,0.23269 1.32502,0.51708 3.50837,1.61741 9.9147,2.66852 25.72784,4.221262 8.44178,0.82892 10.17239,0.91426 10.28331,0.5071 0.0525,-0.19286 0.23646,-0.945962 0.40874,-1.673562 0.81124,-3.42633 4.92205,-9.08987 9.01941,-12.42622 0.94589,-0.77021 2.07698,-1.71551 2.51354,-2.10069 1.5839,-1.39744 2.49432,-1.25076 3.86647,0.62296 l 0.95606,1.30553 2.8804,-2.52701 c 3.47042,-3.04464 4.60463,-4.07815 5.12936,-4.67397 1.67361,-1.90035 3.99701,-3.88081 4.5528,-3.88081 1.41691,0 1.67612,1.29169 0.5044,2.51354 -2.3782,2.47995 -9.82965,9.34288 -11.14238,10.26235 -0.68869,0.48237 -0.63373,0.73352 0.806,3.68346 0.54748,1.12176 1.2546,2.8184 1.57137,3.77032 0.53721,1.61432 0.6289,1.73074 1.36303,1.73074 0.66031,0 1.34117,-0.56457 4.2278,-3.50572 1.89241,-1.92816 4.41329,-4.66659 5.60196,-6.08542 2.59245,-3.09442 3.09836,-3.26587 3.09836,-1.05004 0,1.46074 -0.0566,1.5899 -1.25677,2.86712 -2.39698,2.55088 -4.43696,4.76879 -5.4614,5.93774 -1.76315,2.01186 -4.73427,4.48216 -5.39088,4.48216 -0.52068,0 -0.56963,0.0746 -0.33568,0.511772 0.60005,1.1212 0.33698,1.84112 -0.97734,2.67464 -1.78025,1.129 -3.31851,1.49827 -8.27377,1.98618 -2.40109,0.23642 -5.11715,0.59806 -6.03568,0.80363 -0.91854,0.20558 -1.99606,0.37378 -2.39448,0.37378 -0.39843,0 -0.83753,0.1 -0.97577,0.22217 -0.13825,0.1222 -0.66808,0.38027 -1.1774,0.5735 -1.25678,0.47679 -4.23458,2.17606 -6.48229,3.6991 l -1.85208,1.25496 -3.70417,0.15845 c -4.81384,0.20592 -7.06398,0.86647 -9.07897,2.66522 -0.95595,0.85337 -2.79738,3.79635 -3.74086,5.97868 -0.47185,1.09141 -1.04762,2.1332 -1.2795,2.3151 -0.29305,0.22989 -1.5155,0.32511 -4.00905,0.3123 -3.00571,-0.0154 -3.95215,-0.12511 -5.83641,-0.67625 z m 54.12619,-29.883592 c -0.81674,-0.81674 -0.34956,-1.69788 1.83318,-3.45753 1.42575,-1.14939 3.47155,-3.01702 6.59826,-6.0236 4.13506,-3.97618 5.17525,-4.91976 5.42353,-4.91976 0.16529,0 0.28134,0.61222 0.28134,1.48428 v 1.48429 l -2.47442,2.41832 c -3.95697,3.86726 -5.50736,5.29997 -7.19113,6.64532 -0.86858,0.694 -1.9127,1.60442 -2.32026,2.02314 -0.82923,0.85195 -1.53129,0.96475 -2.1505,0.34554 z"
       id="path31"
       inkscape:connector-curvature="0" />
  </g>
</svg>
