<?xml version="1.0" encoding="UTF-8" standalone="no"?>
<!-- Created with Inkscape (http://www.inkscape.org/) -->

<svg
   xmlns:dc="http://purl.org/dc/elements/1.1/"
   xmlns:cc="http://creativecommons.org/ns#"
   xmlns:rdf="http://www.w3.org/1999/02/22-rdf-syntax-ns#"
   xmlns:svg="http://www.w3.org/2000/svg"
   xmlns="http://www.w3.org/2000/svg"
   xmlns:sodipodi="http://sodipodi.sourceforge.net/DTD/sodipodi-0.dtd"
   xmlns:inkscape="http://www.inkscape.org/namespaces/inkscape"
   width="210mm"
   height="297mm"
   viewBox="0 0 210 297"
   version="1.1"
   id="svg8"
   inkscape:version="0.92.4 (5da689c313, 2019-01-14)"
   sodipodi:docname="boot.svg">
  <defs
     id="defs2" />
  <sodipodi:namedview
     id="base"
     pagecolor="#ffffff"
     bordercolor="#666666"
     borderopacity="1.0"
     inkscape:pageopacity="0.0"
     inkscape:pageshadow="2"
     inkscape:zoom="0.35"
     inkscape:cx="-85.714286"
     inkscape:cy="560"
     inkscape:document-units="mm"
     inkscape:current-layer="layer1"
     showgrid="false"
     inkscape:window-width="1920"
     inkscape:window-height="1017"
     inkscape:window-x="-8"
     inkscape:window-y="-8"
     inkscape:window-maximized="1" />
  <metadata
     id="metadata5">
    <rdf:RDF>
      <cc:Work
         rdf:about="">
        <dc:format>image/svg+xml</dc:format>
        <dc:type
           rdf:resource="http://purl.org/dc/dcmitype/StillImage" />
        <dc:title></dc:title>
      </cc:Work>
    </rdf:RDF>
  </metadata>
  <g
     inkscape:label="Ebene 1"
     inkscape:groupmode="layer"
     id="layer1">
    <path
       style="fill:#000000;stroke-width:0.1763889"
       d="m 63.203909,120.61652 -16.712848,-0.045 v -14.1112 -14.111203 l 60.810069,0.0157 c 56.97321,0.0147 60.75871,0.0342 59.99605,0.30966 -0.83842,0.30277 -2.6853,1.69361 -4.38944,3.30559 -1.36505,1.29122 -3.79357,3.20857 -4.84433,3.82467 -0.48857,0.286473 -1.20581,0.776473 -1.59387,1.088893 -0.38806,0.31242 -1.61837,1.1804 -2.73403,1.92884 -3.50675,2.35252 -5.72364,4.42458 -8.2132,7.67662 -0.99607,1.30114 -1.65406,2.36398 -2.19642,3.54782 -0.20001,0.43657 -0.71559,1.50813 -1.14573,2.38125 -0.43014,0.87313 -0.95076,2.16297 -1.15693,2.86632 l -0.37486,1.27882 -4.70122,0.021 c -11.05612,0.0494 -57.369581,0.0636 -72.743241,0.0222 z"
       id="path826"
       inkscape:connector-curvature="0" />
  </g>
</svg>
