<?xml version="1.0" encoding="UTF-8" standalone="no"?>
<!-- Created with Inkscape (http://www.inkscape.org/) -->

<svg
   xmlns:dc="http://purl.org/dc/elements/1.1/"
   xmlns:cc="http://creativecommons.org/ns#"
   xmlns:rdf="http://www.w3.org/1999/02/22-rdf-syntax-ns#"
   xmlns:svg="http://www.w3.org/2000/svg"
   xmlns="http://www.w3.org/2000/svg"
   xmlns:sodipodi="http://sodipodi.sourceforge.net/DTD/sodipodi-0.dtd"
   xmlns:inkscape="http://www.inkscape.org/namespaces/inkscape"
   width="210mm"
   height="297mm"
   viewBox="0 0 210 297"
   version="1.1"
   id="svg8"
   inkscape:version="0.92.4 (5da689c313, 2019-01-14)"
   sodipodi:docname="clownfish1.svg">
  <defs
     id="defs2" />
  <sodipodi:namedview
     id="base"
     pagecolor="#ffffff"
     bordercolor="#666666"
     borderopacity="1.0"
     inkscape:pageopacity="0.0"
     inkscape:pageshadow="2"
     inkscape:zoom="0.35"
     inkscape:cx="-1099.6754"
     inkscape:cy="999.4019"
     inkscape:document-units="mm"
     inkscape:current-layer="layer1"
     showgrid="false"
     inkscape:window-width="1920"
     inkscape:window-height="1017"
     inkscape:window-x="-8"
     inkscape:window-y="-8"
     inkscape:window-maximized="1" />
  <metadata
     id="metadata5">
    <rdf:RDF>
      <cc:Work
         rdf:about="">
        <dc:format>image/svg+xml</dc:format>
        <dc:type
           rdf:resource="http://purl.org/dc/dcmitype/StillImage" />
        <dc:title></dc:title>
      </cc:Work>
    </rdf:RDF>
  </metadata>
  <g
     inkscape:label="Ebene 1"
     inkscape:groupmode="layer"
     id="layer1">
    <path
       style="fill:#000000;stroke-width:0.17638889"
       d="m 24.988166,204.21678 c 0,-6.36324 0.0075,-6.41059 0.86865,-5.49391 0.47385,0.50438 1.598868,0.71527 3.501214,0.65632 0.959426,-0.0297 1.414744,0.038 1.805136,0.26864 0.598896,0.35379 1.056944,1.20015 1.056944,1.953 0,0.50281 0.03312,0.52241 1.171343,0.6925 0.918494,0.13727 1.373872,0.11869 2.109581,-0.0861 l 0.938238,-0.26115 0.808764,0.66273 c 1.126789,0.92333 1.39093,1.39197 1.40137,2.48638 0.01043,1.09349 -0.36688,1.61009 -1.618455,2.21597 -0.99497,0.48165 -2.04583,0.35618 -2.567112,-0.30653 -0.290318,-0.36907 -0.454384,-0.43224 -0.894283,-0.34425 -0.296305,0.0593 -0.701302,0.25728 -0.899993,0.44005 -0.470151,0.43245 -1.873558,0.89731 -2.704575,0.89583 -0.360412,0 -0.893419,-0.15879 -1.184461,-0.35142 -0.398601,-0.26385 -0.681492,-0.32089 -1.146528,-0.23114 -0.584674,0.11282 -0.976494,0.15577 -1.899765,0.20821 l -0.40046,0.0227 0.366785,0.71896 c 0.499144,0.9784 0.410991,1.64465 -0.227324,1.7181 l -0.485069,0.0558 z"
       id="path863"
       inkscape:connector-curvature="0"
       sodipodi:nodetypes="scccscccscccccccccccccs" />
  </g>
</svg>
