<?xml version="1.0" encoding="UTF-8" standalone="no"?>
<!-- Created with Inkscape (http://www.inkscape.org/) -->

<svg
   xmlns:dc="http://purl.org/dc/elements/1.1/"
   xmlns:cc="http://creativecommons.org/ns#"
   xmlns:rdf="http://www.w3.org/1999/02/22-rdf-syntax-ns#"
   xmlns:svg="http://www.w3.org/2000/svg"
   xmlns="http://www.w3.org/2000/svg"
   xmlns:sodipodi="http://sodipodi.sourceforge.net/DTD/sodipodi-0.dtd"
   xmlns:inkscape="http://www.inkscape.org/namespaces/inkscape"
   width="210mm"
   height="297mm"
   viewBox="0 0 210 297"
   version="1.1"
   id="svg884"
   inkscape:version="0.92.4 (5da689c313, 2019-01-14)"
   sodipodi:docname="shark.svg">
  <defs
     id="defs878" />
  <sodipodi:namedview
     id="base"
     pagecolor="#ffffff"
     bordercolor="#666666"
     borderopacity="1.0"
     inkscape:pageopacity="0.0"
     inkscape:pageshadow="2"
     inkscape:zoom="0.49497475"
     inkscape:cx="181.2017"
     inkscape:cy="543.6711"
     inkscape:document-units="mm"
     inkscape:current-layer="layer1"
     showgrid="false"
     inkscape:window-width="958"
     inkscape:window-height="1008"
     inkscape:window-x="-7"
     inkscape:window-y="0"
     inkscape:window-maximized="0" />
  <metadata
     id="metadata881">
    <rdf:RDF>
      <cc:Work
         rdf:about="">
        <dc:format>image/svg+xml</dc:format>
        <dc:type
           rdf:resource="http://purl.org/dc/dcmitype/StillImage" />
        <dc:title></dc:title>
      </cc:Work>
    </rdf:RDF>
  </metadata>
  <g
     inkscape:label="Ebene 1"
     inkscape:groupmode="layer"
     id="layer1">
    <path
       style="fill:#000000;stroke-width:0.17638889"
       d="m 55.731393,121.30061 c -0.555851,-0.29104 -0.908156,-0.644 -1.203071,-1.2053 -0.49942,-0.95054 -0.439044,-1.66321 0.275867,-3.25623 0.260809,-0.58116 0.450199,-1.19831 0.420867,-1.37146 -0.0302,-0.17824 0.171293,-0.50382 0.464489,-0.75051 0.284799,-0.23965 0.565411,-0.67369 0.623579,-0.96453 0.05817,-0.29083 0.544029,-1.25579 1.079685,-2.14433 1.049408,-1.74073 1.331506,-2.54473 1.756657,-5.00669 0.58651,-3.39626 0.816433,-4.20764 1.668674,-5.88851 1.241954,-2.449528 3.134818,-7.038858 3.265452,-7.917288 0.102552,-0.68958 0.07463,-0.76723 -0.331594,-0.92168 -0.520982,-0.19807 -0.589703,-0.53016 -0.109696,-0.53016 1.072991,0 0.460287,-1.76968 -3.040062,-8.78044 -1.863813,-3.73302 -2.359219,-4.58614 -3.966125,-6.82998 -0.908066,-1.268 -2.629659,-4.02584 -3.462089,-5.54597 -0.970917,-1.77301 -1.188558,-2.62699 -1.148932,-4.50819 0.04869,-2.31158 0.08237,-2.19696 -0.612532,-2.08419 -0.545389,0.0885 -0.643831,0.0382 -0.970652,-0.49616 -0.200039,-0.32706 -0.494871,-0.95184 -0.65518,-1.3884 -0.575543,-1.56734 -1.321571,-3.07157 -2.095271,-4.22476 -0.432975,-0.64533 -0.787227,-1.34504 -0.787227,-1.55489 0,-0.8906 1.580697,-0.94579 4.292221,-0.14986 0.792229,0.23255 2.331347,0.67579 3.420263,0.98497 1.088914,0.30919 2.598716,0.81927 3.355107,1.13351 1.734273,0.72051 6.50628,3.19642 7.127222,3.69788 3.752462,3.03047 6.043806,5.32918 7.761128,7.78606 0.406876,0.58209 1.068617,1.41635 1.470554,1.85392 0.735965,0.80121 2.013391,2.84349 2.485849,3.97426 0.140194,0.33551 0.295204,0.61002 0.344505,0.61002 0.04928,0 0.385551,-0.19372 0.747271,-0.43048 0.959979,-0.62834 3.433198,-1.4865 5.1556,-1.78889 0.824618,-0.14477 1.688871,-0.29668 1.920558,-0.33758 0.231669,-0.0409 1.303231,-0.40386 2.38125,-0.80658 1.078,-0.40273 2.180307,-0.81334 2.449565,-0.91247 0.570301,-0.20997 0.525745,-0.60471 -0.16092,-1.42608 -0.482529,-0.57716 -0.512004,-0.80313 -0.166475,-1.27567 0.220168,-0.30111 0.470094,-0.34199 2.072569,-0.33902 1.979136,0.004 3.380334,0.34958 3.945466,0.97405 0.44219,0.48861 1.461523,0.44426 4.314931,-0.18773 4.622484,-1.02382 10.801724,-1.75574 14.847994,-1.75871 0.84185,-5.3e-4 2.11185,-0.0793 2.82222,-0.17495 0.71037,-0.0956 3.15691,-0.25312 5.43673,-0.35003 2.27983,-0.0969 4.66108,-0.2505 5.29167,-0.3413 3.00286,-0.4324 4.42304,-0.54563 7.9375,-0.63284 9.35739,-0.23221 10.00465,-0.31192 10.95211,-1.34869 0.83324,-0.91179 2.21913,-3.56161 2.79477,-5.34357 0.41808,-1.29417 1.08592,-2.39307 1.45436,-2.39307 0.0795,0 0.14459,11.0713 0.14459,24.60289 v 24.602888 l -0.39687,0.0845 c -0.86648,0.18454 -7.54911,0.63602 -12.21767,0.82547 -3.69826,0.15005 -5.82085,0.14959 -8.46393,-0.002 -3.55815,-0.20387 -7.51101,-0.70211 -8.44197,-1.06408 -0.27746,-0.10788 -1.31967,-0.31059 -2.31604,-0.45045 -2.72779,-0.38292 -4.04797,-0.76946 -5.22397,-1.52953 -0.58191,-0.37612 -1.53922,-0.92675 -2.12734,-1.22363 -0.98792,-0.49871 -1.13153,-0.52545 -1.88694,-0.35135 -0.45595,0.10507 -1.83195,0.15737 -3.11069,0.11822 -2.75577,-0.0844 -2.47419,-0.0465 -2.8049,-0.37723 -0.24567,-0.24567 -0.36368,-0.21101 -1.20085,0.35278 -1.10079,0.74131 -1.90327,0.83642 -1.90327,0.22555 0,-0.21982 0.30585,-0.92308 0.67968,-1.56279 0.37383,-0.63972 0.77071,-1.424208 0.88194,-1.743308 0.27725,-0.7953 0.25372,-2.00323 -0.0533,-2.73808 -0.24966,-0.59756 -0.27924,-0.61179 -1.27882,-0.61552 -0.56277,-0.002 -2.138203,-0.15001 -3.500948,-0.32868 -2.445579,-0.32064 -3.81388,-0.73679 -4.280129,-1.30173 -0.209497,-0.25384 -0.312402,-0.23981 -1.083963,0.14772 -0.468859,0.2355 -0.932285,0.42818 -1.029828,0.42818 -0.09754,0 -0.601963,0.19766 -1.120916,0.43925 -1.744839,0.81226 -2.090085,0.55779 -2.090085,-1.54047 0,-0.77484 -0.08915,-1.41317 -0.220486,-1.5787 -0.183462,-0.23123 -0.877958,-0.29734 -4.135102,-0.39364 -3.650509,-0.10792 -3.925694,-0.0944 -4.078499,0.20009 -0.266295,0.51323 -0.436351,1.98023 -0.404654,3.49083 0.06523,3.10796 -1.459107,7.971728 -3.73544,11.918948 -1.411852,2.44817 -4.642185,6.46444 -6.882218,8.55664 -1.459865,1.36354 -3.642043,2.9376 -4.390584,3.16705 -0.223573,0.0685 -1.282471,0.58875 -2.353134,1.15605 l -1.946645,1.03143 -1.93391,0.10829 c -1.79817,0.10068 -1.989081,0.0794 -2.719943,-0.30325 z"
       id="path1503"
       inkscape:connector-curvature="0" />
  </g>
</svg>
