<?xml version="1.0" encoding="UTF-8" standalone="no"?>
<!-- Created with Inkscape (http://www.inkscape.org/) -->

<svg
   xmlns:dc="http://purl.org/dc/elements/1.1/"
   xmlns:cc="http://creativecommons.org/ns#"
   xmlns:rdf="http://www.w3.org/1999/02/22-rdf-syntax-ns#"
   xmlns:svg="http://www.w3.org/2000/svg"
   xmlns="http://www.w3.org/2000/svg"
   xmlns:sodipodi="http://sodipodi.sourceforge.net/DTD/sodipodi-0.dtd"
   xmlns:inkscape="http://www.inkscape.org/namespaces/inkscape"
   width="210mm"
   height="297mm"
   viewBox="0 0 210 297"
   version="1.1"
   id="svg884"
   inkscape:version="0.92.4 (5da689c313, 2019-01-14)"
   sodipodi:docname="sff.svg">
  <defs
     id="defs878" />
  <sodipodi:namedview
     id="base"
     pagecolor="#ffffff"
     bordercolor="#666666"
     borderopacity="1.0"
     inkscape:pageopacity="0.0"
     inkscape:pageshadow="2"
     inkscape:zoom="1.4"
     inkscape:cx="381.54608"
     inkscape:cy="-10.835254"
     inkscape:document-units="mm"
     inkscape:current-layer="layer1"
     showgrid="false"
     inkscape:window-width="958"
     inkscape:window-height="1008"
     inkscape:window-x="-7"
     inkscape:window-y="0"
     inkscape:window-maximized="0" />
  <metadata
     id="metadata881">
    <rdf:RDF>
      <cc:Work
         rdf:about="">
        <dc:format>image/svg+xml</dc:format>
        <dc:type
           rdf:resource="http://purl.org/dc/dcmitype/StillImage" />
        <dc:title></dc:title>
      </cc:Work>
    </rdf:RDF>
  </metadata>
  <g
     inkscape:label="Ebene 1"
     inkscape:groupmode="layer"
     id="layer1">
    <path
       style="fill:#000000;stroke-width:0.17638889"
       d="m 79.026659,275.91241 c -1.135415,-0.19794 -2.724589,-0.91851 -2.99669,-1.35878 -0.06022,-0.0974 -0.184157,-0.13103 -0.275403,-0.0746 -0.235038,0.14526 -1.079315,-0.55982 -1.34411,-1.12251 -0.251841,-0.53516 -0.618936,-1.13558 -0.774843,-1.26732 -0.0574,-0.0485 -0.24678,-0.46523 -0.420837,-0.92604 -0.174059,-0.46082 -0.405372,-0.83785 -0.514031,-0.83785 -0.108658,0 -0.299371,-0.25797 -0.423805,-0.57327 -0.608568,-1.54199 -1.009604,-2.16084 -1.361016,-2.1002 -1.759216,0.30356 -3.476706,0.0935 -4.955637,-0.60616 -1.116043,-0.52797 -1.691106,-1.10061 -2.58315,-2.57225 -0.915092,-1.50967 -0.842393,-2.42381 0.275817,-3.46825 0.242895,-0.22687 0.683156,-1.02062 0.978357,-1.76389 0.471687,-1.18763 0.52949,-1.5224 0.476986,-2.76251 -0.09013,-2.12878 -0.412483,-4.30855 -0.800374,-5.41216 -0.191008,-0.54346 -0.400114,-1.33398 -0.46468,-1.75672 -0.146092,-0.95653 -0.300832,-1.15671 -1.007461,-1.30334 -0.927287,-0.19242 -3.147234,-1.32477 -4.106555,-2.09467 -1.488105,-1.19426 -3.245493,-4.20113 -3.245493,-5.55299 0,-0.65763 0.270327,-0.86199 1.428607,-1.07998 0.523954,-0.0986 1.518976,-0.45838 2.211161,-0.79949 1.540205,-0.75901 3.345662,-1.15387 5.44426,-1.19068 1.342079,-0.0235 1.792017,0.0477 2.910417,0.46073 0.727604,0.26872 1.402291,0.48735 1.499305,0.48586 1.770261,-0.0272 2.154435,-0.10947 3.428311,-0.73387 0.747754,-0.36652 1.462784,-0.79078 1.588955,-0.9428 0.126171,-0.15203 0.321391,-0.27642 0.433821,-0.27642 0.178028,0 0.82145,-0.54743 2.574608,-2.19052 0.242534,-0.2273 0.877534,-0.68741 1.411111,-1.02246 0.533576,-0.33505 1.084215,-0.74757 1.223643,-0.91672 0.409866,-0.49723 2.649398,-1.51416 3.538857,-1.60692 0.574149,-0.0599 1.52966,-0.29093 2.116666,-0.51182 2.141838,-0.80599 3.065391,-0.9412 7.364041,-1.07808 2.138308,-0.0681 2.64544,-0.0297 3.632886,0.27534 1.418493,0.43812 2.118718,1.1402 1.88867,1.89367 -0.290786,0.95238 -0.593487,2.51536 -0.504404,2.60445 0.04993,0.0499 0.982003,-0.18864 2.071266,-0.53016 1.215675,-0.38115 2.332535,-0.61949 2.892135,-0.61718 0.85524,0.004 0.94138,0.0458 1.39187,0.68289 0.72815,1.02975 1.36964,4.76765 1.05398,6.14144 -0.15672,0.68208 -0.13632,0.76517 0.25001,1.0183 0.4569,0.29937 0.56683,1.07589 0.23903,1.6884 -0.13617,0.25443 -0.10772,0.45221 0.11366,0.79007 0.27621,0.42154 0.27607,0.53816 -0.002,1.80397 -0.16355,0.74431 -0.42915,1.49891 -0.59021,1.67689 -0.2756,0.30453 -0.2631,0.34731 0.21215,0.72627 0.34812,0.27758 0.45849,0.47794 0.35527,0.64494 -0.0824,0.13325 -0.16658,0.61731 -0.18717,1.07569 -0.0369,0.82095 -0.0311,0.83054 0.38737,0.63988 0.32328,-0.1473 0.53246,-0.13594 0.87525,0.0475 0.54528,0.29183 1.48682,1.5317 1.48682,1.95794 0,0.16919 0.0834,0.35913 0.18523,0.4221 0.20316,0.12556 0.19651,2.68983 -0.007,2.8158 -0.0677,0.0418 -0.38344,0.60496 -0.70167,1.2514 -0.33533,0.68115 -0.7177,1.21171 -0.90938,1.26184 -0.18192,0.0476 -0.33077,0.14191 -0.33077,0.20964 0,0.0677 -0.27781,0.25563 -0.61736,0.41755 -0.33954,0.16192 -0.61736,0.40625 -0.61736,0.54296 0,0.13671 -0.10904,0.29041 -0.24231,0.34155 -0.13327,0.0511 -0.29357,0.36624 -0.35623,0.70021 -0.15226,0.81163 -0.66421,1.24757 -1.43125,1.21873 -0.70504,-0.0265 -0.71872,-0.002 -0.3285,0.59374 0.63965,0.97622 0.14488,3.06045 -0.94489,3.98038 -0.27304,0.23048 -0.69324,0.8792 -0.93378,1.44159 -0.78484,1.835 -2.173793,3.12003 -3.737366,3.45773 -0.739082,0.15963 -1.433791,0.0854 -3.138172,-0.3354 -0.436563,-0.10778 -0.96841,-0.19271 -1.181883,-0.18874 -0.213473,0.004 -0.438822,-0.0748 -0.500774,-0.17502 -0.07001,-0.11329 -0.190129,-0.12065 -0.317422,-0.0195 -0.11263,0.0895 -0.442907,0.20488 -0.733949,0.25633 -0.291041,0.0514 -0.965729,0.22041 -1.499305,0.37548 -0.533577,0.15508 -1.196788,0.324 -1.473804,0.37539 -0.777744,0.14429 -1.189021,0.55157 -2.116344,2.09579 -0.886851,1.47682 -2.184334,2.70249 -3.397385,3.20934 -0.862651,0.36043 -2.435598,0.43673 -3.865376,0.18748 z"
       id="path1516"
       inkscape:connector-curvature="0"
       sodipodi:nodetypes="ccccccsccccccscsccscccccccscsccccccccccsccccccccscsccccscscccccscccccccccccc" />
  </g>
</svg>
