<?xml version="1.0" encoding="UTF-8" standalone="no"?>
<!-- Created with Inkscape (http://www.inkscape.org/) -->

<svg
   xmlns:dc="http://purl.org/dc/elements/1.1/"
   xmlns:cc="http://creativecommons.org/ns#"
   xmlns:rdf="http://www.w3.org/1999/02/22-rdf-syntax-ns#"
   xmlns:svg="http://www.w3.org/2000/svg"
   xmlns="http://www.w3.org/2000/svg"
   xmlns:sodipodi="http://sodipodi.sourceforge.net/DTD/sodipodi-0.dtd"
   xmlns:inkscape="http://www.inkscape.org/namespaces/inkscape"
   width="210mm"
   height="297mm"
   viewBox="0 0 210 297"
   version="1.1"
   id="svg8"
   inkscape:version="0.92.4 (5da689c313, 2019-01-14)"
   sodipodi:docname="turtle1.svg">
  <defs
     id="defs2" />
  <sodipodi:namedview
     id="base"
     pagecolor="#ffffff"
     bordercolor="#666666"
     borderopacity="1.0"
     inkscape:pageopacity="0.0"
     inkscape:pageshadow="2"
     inkscape:zoom="2.8"
     inkscape:cx="551.49672"
     inkscape:cy="481.89623"
     inkscape:document-units="mm"
     inkscape:current-layer="layer1"
     showgrid="false"
     inkscape:window-width="1920"
     inkscape:window-height="1017"
     inkscape:window-x="-8"
     inkscape:window-y="-8"
     inkscape:window-maximized="1" />
  <metadata
     id="metadata5">
    <rdf:RDF>
      <cc:Work
         rdf:about="">
        <dc:format>image/svg+xml</dc:format>
        <dc:type
           rdf:resource="http://purl.org/dc/dcmitype/StillImage" />
        <dc:title></dc:title>
      </cc:Work>
    </rdf:RDF>
  </metadata>
  <g
     inkscape:label="Ebene 1"
     inkscape:groupmode="layer"
     id="layer1">
    <path
       style="fill:#000000;stroke-width:0.17638889"
       d="m 181.68025,203.93059 c -0.2534,-0.30532 -0.11781,-1.06216 0.39628,-2.21203 0.19519,-0.43659 0.41098,-0.95256 0.47952,-1.14658 1.38698,-3.92619 1.43511,-4.18453 1.52816,-8.20209 0.13512,-5.83318 0.11751,-6.23149 -0.30722,-6.95136 -0.34235,-0.58024 -0.5168,-0.70999 -0.79223,-0.58926 -0.0553,0.0242 -0.17833,-0.0948 -0.27334,-0.26459 -0.095,-0.16977 -0.35505,-0.30868 -0.57786,-0.30868 -0.22281,0 -0.65335,-0.12384 -0.95675,-0.27519 -0.30341,-0.15136 -0.69263,-0.28156 -0.86495,-0.28934 -0.31269,-0.0141 -2.15605,0.61014 -2.73625,0.92663 -0.16846,0.0919 -0.50975,0.16707 -0.75842,0.16707 -0.24867,0 -0.67827,0.11695 -0.95468,0.25988 -0.27641,0.14294 -0.76856,0.25267 -1.09367,0.24385 -0.32511,-0.009 -1.2658,0.0801 -2.09042,0.19752 -0.94372,0.13443 -2.21829,0.17 -3.43958,0.096 -1.06716,-0.0647 -2.53559,-0.14525 -3.2632,-0.17906 -2.49944,-0.11617 -6.24528,-0.46774 -6.518,-0.61175 -0.15013,-0.0793 -1.06457,-0.35411 -2.03208,-0.61073 -1.95062,-0.51739 -2.78636,-0.94425 -4.07478,-2.08122 -0.47789,-0.42171 -1.10416,-0.91576 -1.39172,-1.0979 -0.76696,-0.48577 -2.32218,-2.00375 -3.02272,-2.95032 -0.46191,-0.62414 -1.03942,-1.06438 -2.37466,-1.81019 -0.97038,-0.54201 -2.24874,-1.33796 -2.8408,-1.76878 l -1.07649,-0.7833 -1.30581,1.06702 c -0.7182,0.58687 -2.39643,1.79362 -3.72941,2.68169 -1.33298,0.88806 -2.77849,1.9011 -3.21224,2.25119 -0.43376,0.35009 -1.31601,0.82262 -1.96057,1.05005 l -1.17193,0.41352 -0.72047,-0.47678 c -0.39626,-0.26224 -0.83152,-0.47679 -0.96724,-0.47679 -0.4648,0 -0.6365,-0.44149 -0.528,-1.35761 0.0898,-0.7579 0.0494,-0.94768 -0.26916,-1.26626 -0.40559,-0.40559 -0.4933,-0.98621 -0.17837,-1.18084 0.10801,-0.0668 0.35664,-0.48816 0.55252,-0.93646 0.19588,-0.44829 0.46643,-0.93414 0.60123,-1.07966 0.13479,-0.14552 0.40204,-0.47548 0.59389,-0.73324 0.40599,-0.54547 3.3837,-2.12252 4.95604,-2.62483 0.59587,-0.19035 1.43429,-0.3461 1.86315,-0.3461 h 0.77975 l -0.45781,-0.60021 c -0.25179,-0.33012 -0.63506,-0.6447 -0.85171,-0.69908 -1.12696,-0.28284 -2.37374,-2.9192 -2.12194,-4.48691 0.0732,-0.45561 0.12701,-0.9276 0.11963,-1.04887 -0.007,-0.12127 -0.0233,-0.41892 -0.0355,-0.66146 -0.0121,-0.24253 -0.0908,-0.44097 -0.17476,-0.44097 -0.084,0 -0.60706,0.43656 -1.16238,0.97014 -0.55532,0.53357 -1.10176,0.96876 -1.21431,0.96708 -0.34988,-0.005 -3.36045,-0.34879 -3.73241,-0.42595 -0.19402,-0.0402 -0.56663,-0.0792 -0.82801,-0.0867 -0.26138,-0.007 -0.68973,-0.198 -0.9519,-0.42351 l -0.47666,-0.41001 0.41189,-0.38374 c 0.22655,-0.21106 0.56422,-0.38374 0.75039,-0.38374 0.4173,0 3.86692,-1.51405 4.70711,-2.06597 0.33782,-0.22191 0.71896,-0.40347 0.84697,-0.40347 0.12802,0 0.7696,-0.27782 1.42573,-0.61737 0.65613,-0.33954 1.26718,-0.61775 1.35789,-0.61823 0.0907,-5.3e-4 0.42468,-0.55074 0.74216,-1.22279 0.57812,-1.2238 1.54643,-2.13135 1.98492,-1.86035 0.10303,0.0637 0.2933,0.0278 0.42283,-0.0797 0.12952,-0.10749 0.89995,-0.24424 1.71206,-0.30388 0.81211,-0.0596 1.56378,-0.17671 1.67037,-0.26016 0.1066,-0.0834 0.86066,-0.19175 1.6757,-0.24067 1.88123,-0.1129 3.52046,-0.38086 3.75312,-0.61352 0.0993,-0.0993 0.40561,-0.18058 0.68067,-0.18058 0.27505,0 0.68098,-0.11852 0.90206,-0.26338 1.04999,-0.68797 2.6105,-1.00155 5.39751,-1.08458 3.58949,-0.10694 4.44946,-0.0808 4.71978,0.14356 0.15525,0.12885 0.72419,0.13148 1.85752,0.009 2.60879,-0.28284 9.11172,0.083 10.69717,0.60179 0.42524,0.13915 0.81516,0.211 0.8665,0.15966 0.37816,-0.37816 -2.33321,-4.17533 -4.24424,-5.94391 -2.12073,-1.96263 -2.88097,-2.61758 -3.03842,-2.61758 -0.0706,0 -0.56865,-0.40238 -1.10675,-0.89418 -0.53811,-0.49181 -1.40252,-1.16551 -1.92092,-1.49712 -0.51839,-0.33161 -0.94253,-0.67794 -0.94253,-0.76962 0,-0.0917 -0.17859,-0.21983 -0.39687,-0.28478 -0.671,-0.19964 -1.54093,-0.8599 -1.5422,-1.17049 -7.1e-4,-0.17868 0.18973,-0.33634 0.48386,-0.40054 0.83687,-0.18267 4.66651,-0.14345 5.86493,0.06 3.68485,0.62571 7.34776,2.05671 8.78791,3.43321 0.7475,0.71446 1.97318,2.41212 2.8828,3.99291 0.50626,0.87983 1.33056,3.40333 1.46923,4.49792 0.0492,0.38806 0.15406,1.10445 0.2331,1.59198 0.079,0.48754 0.0841,1.10915 0.0113,1.38136 -0.1059,0.39595 -0.0413,0.59715 0.32307,1.00608 0.25049,0.28114 0.62239,0.56319 0.82643,0.62679 0.20404,0.0636 0.74407,0.42652 1.20006,0.8065 0.79205,0.66001 1.5632,1.96512 1.84882,3.12899 0.0613,0.24977 0.41651,1.22683 0.78935,2.17123 0.37285,0.94441 0.67911,1.85722 0.6806,2.02848 0.006,0.73572 0.26929,0.81456 1.0976,0.32913 2.07882,-1.21827 4.94855,-1.42729 7.45456,-0.54298 4.74959,1.67603 7.10286,2.72928 7.83191,3.50531 0.48119,0.51221 0.7507,1.94322 0.7295,3.87347 -0.0146,1.32985 -0.0977,1.74914 -0.5593,2.82223 -0.53257,1.23808 -0.55504,1.26179 -1.27351,1.34335 -1.17119,0.13295 -2.92112,0.0774 -4.34735,-0.13797 -0.72761,-0.10988 -1.64042,-0.23471 -2.02847,-0.2774 -1.25975,-0.13859 -2.42269,-0.4669 -2.92771,-0.8265 -1.46759,-1.04501 -3.46463,-1.56723 -4.71045,-1.23177 -0.6993,0.1883 -0.74699,0.24518 -1.01121,1.20592 -0.40745,1.4816 -1.11328,3.12305 -1.67832,3.90306 l -0.49649,0.68539 0.56139,0.0846 c 1.52685,0.22995 2.7345,0.52489 3.26265,0.79682 0.52924,0.27249 1.62028,1.63123 1.62028,2.01784 0,0.0864 0.19157,0.56887 0.42572,1.07219 1.14891,2.46965 1.54307,5.10256 1.31446,8.78043 -0.25069,4.03305 -1.28568,7.08489 -3.22973,9.52333 -1.34722,1.68983 -4.51809,3.02812 -5.20724,2.19775 z"
       id="path21"
       inkscape:connector-curvature="0" />
  </g>
</svg>
