<?xml version="1.0" encoding="UTF-8" standalone="no"?>
<!-- Created with Inkscape (http://www.inkscape.org/) -->

<svg
   xmlns:dc="http://purl.org/dc/elements/1.1/"
   xmlns:cc="http://creativecommons.org/ns#"
   xmlns:rdf="http://www.w3.org/1999/02/22-rdf-syntax-ns#"
   xmlns:svg="http://www.w3.org/2000/svg"
   xmlns="http://www.w3.org/2000/svg"
   xmlns:sodipodi="http://sodipodi.sourceforge.net/DTD/sodipodi-0.dtd"
   xmlns:inkscape="http://www.inkscape.org/namespaces/inkscape"
   width="210mm"
   height="297mm"
   viewBox="0 0 210 297"
   version="1.1"
   id="svg884"
   inkscape:version="0.92.4 (5da689c313, 2019-01-14)"
   sodipodi:docname="turtle.svg">
  <defs
     id="defs878" />
  <sodipodi:namedview
     id="base"
     pagecolor="#ffffff"
     bordercolor="#666666"
     borderopacity="1.0"
     inkscape:pageopacity="0.0"
     inkscape:pageshadow="2"
     inkscape:zoom="1.4"
     inkscape:cx="558.2741"
     inkscape:cy="443.79209"
     inkscape:document-units="mm"
     inkscape:current-layer="layer1"
     showgrid="false"
     inkscape:window-width="958"
     inkscape:window-height="1008"
     inkscape:window-x="-7"
     inkscape:window-y="0"
     inkscape:window-maximized="0" />
  <metadata
     id="metadata881">
    <rdf:RDF>
      <cc:Work
         rdf:about="">
        <dc:format>image/svg+xml</dc:format>
        <dc:type
           rdf:resource="http://purl.org/dc/dcmitype/StillImage" />
        <dc:title></dc:title>
      </cc:Work>
    </rdf:RDF>
  </metadata>
  <g
     inkscape:label="Ebene 1"
     inkscape:groupmode="layer"
     id="layer1">
    <path
       style="fill:#000000;stroke-width:0.17638889"
       d="m 151.89891,199.6371 c -0.8905,-0.82083 -1.3414,-2.00349 -1.42925,-3.74872 -0.0699,-1.3887 0.50355,-4.23128 1.02229,-5.06751 0.21163,-0.34116 0.38525,-0.66819 0.38581,-0.72675 0.002,-0.1803 0.67679,-1.08321 1.28071,-1.71302 0.55723,-0.58114 0.60706,-0.59637 1.69472,-0.51798 l 1.12061,0.0808 -0.23951,-0.79586 c -0.13174,-0.43772 -0.23952,-1.18208 -0.23952,-1.65413 0,-0.77178 -0.0489,-0.87779 -0.48507,-1.05187 -0.69117,-0.27584 -1.24158,-0.29313 -2.24896,-0.0706 -0.49043,0.10833 -1.23431,0.13965 -1.67569,0.0706 -0.43657,-0.0683 -1.13055,-0.13012 -1.5422,-0.13731 -0.41164,-0.007 -1.06237,-0.14908 -1.44606,-0.31531 -0.58609,-0.25391 -0.71513,-0.40584 -0.80711,-0.95027 -0.18343,-1.08571 0.4638,-2.96662 1.14656,-3.33202 0.56384,-0.30176 4.07144,-0.73674 5.08884,-0.63107 1.13742,0.11813 1.9306,0.47346 2.58756,1.15918 l 0.49189,0.51343 0.97125,-1.44761 c 1.20546,-1.7967 1.57586,-2.1474 2.68353,-2.54081 0.71434,-0.25371 0.8799,-0.38982 0.8799,-0.72339 0,-0.52276 0.81888,-2.32854 1.05595,-2.32854 0.0983,0 0.17878,-0.12594 0.17878,-0.27986 0,-0.56365 2.53824,-2.71875 3.2021,-2.71875 0.0821,0 0.14928,0.93693 0.14928,2.08206 v 2.08207 l -0.61736,0.59837 c -0.33954,0.3291 -0.61736,0.66217 -0.61736,0.74016 0,0.078 0.27782,0.14178 0.61736,0.14178 h 0.61736 v 8.55486 c 0,4.7914 -0.0681,8.55486 -0.15482,8.55486 -0.49307,0 -4.64687,-0.9669 -5.31323,-1.23679 -0.43656,-0.17681 -1.0188,-0.37095 -1.29385,-0.43142 -0.27506,-0.0605 -0.67194,-0.29233 -0.88195,-0.51525 -0.61577,-0.65361 -1.26781,-1.00289 -1.81314,-0.97125 -0.27994,0.0162 -0.58835,0.009 -0.68537,-0.0163 -0.41688,-0.10825 -0.79375,0.0155 -0.79375,0.26056 0,0.14552 -0.10891,0.26458 -0.24204,0.26458 -0.23184,0 -0.41393,0.67527 -0.56368,2.09036 -0.0344,0.32508 -0.13559,0.68226 -0.22487,0.79375 -0.42313,0.52838 -0.66313,4.95877 -0.31121,5.74494 0.14455,0.32292 0.13764,0.4448 -0.0284,0.50014 -0.12073,0.0402 -0.17465,0.14576 -0.11981,0.23449 0.0548,0.0887 -0.0655,0.16132 -0.26743,0.16132 -0.20192,0 -0.71172,-0.31763 -1.13288,-0.70585 z"
       id="path1594"
       inkscape:connector-curvature="0" />
  </g>
</svg>
