<?xml version="1.0" encoding="UTF-8" standalone="no"?>
<!-- Created with Inkscape (http://www.inkscape.org/) -->

<svg
   xmlns:dc="http://purl.org/dc/elements/1.1/"
   xmlns:cc="http://creativecommons.org/ns#"
   xmlns:rdf="http://www.w3.org/1999/02/22-rdf-syntax-ns#"
   xmlns:svg="http://www.w3.org/2000/svg"
   xmlns="http://www.w3.org/2000/svg"
   xmlns:sodipodi="http://sodipodi.sourceforge.net/DTD/sodipodi-0.dtd"
   xmlns:inkscape="http://www.inkscape.org/namespaces/inkscape"
   width="210mm"
   height="297mm"
   viewBox="0 0 210 297"
   version="1.1"
   id="svg884"
   inkscape:version="0.92.4 (5da689c313, 2019-01-14)"
   sodipodi:docname="ray1.svg">
  <defs
     id="defs878" />
  <sodipodi:namedview
     id="base"
     pagecolor="#ffffff"
     bordercolor="#666666"
     borderopacity="1.0"
     inkscape:pageopacity="0.0"
     inkscape:pageshadow="2"
     inkscape:zoom="1.4"
     inkscape:cx="447.31881"
     inkscape:cy="-41.645453"
     inkscape:document-units="mm"
     inkscape:current-layer="layer1"
     showgrid="false"
     inkscape:window-width="1920"
     inkscape:window-height="1017"
     inkscape:window-x="-8"
     inkscape:window-y="-8"
     inkscape:window-maximized="1" />
  <metadata
     id="metadata881">
    <rdf:RDF>
      <cc:Work
         rdf:about="">
        <dc:format>image/svg+xml</dc:format>
        <dc:type
           rdf:resource="http://purl.org/dc/dcmitype/StillImage" />
        <dc:title></dc:title>
      </cc:Work>
    </rdf:RDF>
  </metadata>
  <g
     inkscape:label="Ebene 1"
     inkscape:groupmode="layer"
     id="layer1">
    <path
       style="fill:#000000;stroke-width:0.17638889"
       d="m 58.268273,282.00521 c -3.453601,-1.26986 -7.057704,-4.73642 -7.369782,-7.08853 -0.08543,-0.6439 -0.01171,-0.94024 0.44532,-1.79003 0.571901,-1.06336 0.55876,-1.36387 -0.08294,-1.89642 -0.645881,-0.53605 0.240873,-3.03762 1.421837,-4.01105 0.634187,-0.52277 3.085072,-1.40311 4.986242,-1.79106 2.327321,-0.47489 2.556062,-0.20708 2.515258,2.94489 l -0.02118,1.6363 0.490461,-0.11269 c 0.269754,-0.062 0.807962,-0.3169 1.196017,-0.56649 1.223524,-0.78689 3.102053,-0.71776 4.211608,0.15503 0.242707,0.1909 0.808199,1.07463 1.256647,1.96382 0.783234,1.55302 0.816003,1.67968 0.83167,3.21473 0.02683,2.6289 -0.261414,3.61429 -1.490872,5.09668 -1.453376,1.75237 -2.568693,2.19368 -6.308358,2.49605 -0.874788,0.0707 -1.368227,0.0111 -2.08193,-0.25123 z"
       id="path1477"
       inkscape:connector-curvature="0" />
  </g>
</svg>
