<?xml version="1.0" encoding="UTF-8" standalone="no"?>
<!-- Created with Inkscape (http://www.inkscape.org/) -->

<svg
   xmlns:dc="http://purl.org/dc/elements/1.1/"
   xmlns:cc="http://creativecommons.org/ns#"
   xmlns:rdf="http://www.w3.org/1999/02/22-rdf-syntax-ns#"
   xmlns:svg="http://www.w3.org/2000/svg"
   xmlns="http://www.w3.org/2000/svg"
   xmlns:sodipodi="http://sodipodi.sourceforge.net/DTD/sodipodi-0.dtd"
   xmlns:inkscape="http://www.inkscape.org/namespaces/inkscape"
   width="210mm"
   height="297mm"
   viewBox="0 0 210 297"
   version="1.1"
   id="svg884"
   inkscape:version="0.92.4 (5da689c313, 2019-01-14)"
   sodipodi:docname="seahorse.svg">
  <defs
     id="defs878" />
  <sodipodi:namedview
     id="base"
     pagecolor="#ffffff"
     bordercolor="#666666"
     borderopacity="1.0"
     inkscape:pageopacity="0.0"
     inkscape:pageshadow="2"
     inkscape:zoom="1.979899"
     inkscape:cx="456.18119"
     inkscape:cy="392.77373"
     inkscape:document-units="mm"
     inkscape:current-layer="layer1"
     showgrid="false"
     inkscape:window-width="958"
     inkscape:window-height="1008"
     inkscape:window-x="-7"
     inkscape:window-y="0"
     inkscape:window-maximized="0" />
  <metadata
     id="metadata881">
    <rdf:RDF>
      <cc:Work
         rdf:about="">
        <dc:format>image/svg+xml</dc:format>
        <dc:type
           rdf:resource="http://purl.org/dc/dcmitype/StillImage" />
        <dc:title></dc:title>
      </cc:Work>
    </rdf:RDF>
  </metadata>
  <g
     inkscape:label="Ebene 1"
     inkscape:groupmode="layer"
     id="layer1">
    <path
       style="fill:#000000;stroke-width:0.17638889"
       d="m 150.34631,224.97154 c -0.38805,-0.1398 -0.72205,-0.25538 -0.74221,-0.25684 -0.0202,-0.001 -0.2327,-0.34 -0.47229,-0.75231 -0.37087,-0.6382 -0.41436,-0.86368 -0.29255,-1.51658 0.17507,-0.93834 0.45921,-1.24249 1.28612,-1.37668 0.48056,-0.078 0.76401,-0.0126 1.15644,0.26686 l 0.51986,0.37017 -0.40531,-1.0106 c -0.22292,-0.55583 -0.45999,-1.30826 -0.52683,-1.67206 -0.0909,-0.49506 -0.20752,-0.66146 -0.46342,-0.66146 -0.53008,0 -1.28566,-0.45579 -1.51017,-0.91099 -0.28144,-0.57065 -0.36728,-0.92827 -0.57122,-2.37992 -0.29375,-2.0909 0.14762,-3.65032 1.69708,-5.99606 l 0.60011,-0.90851 -0.30277,-0.6349 c -0.35069,-0.73542 -0.45903,-0.76606 -0.95501,-0.27009 -0.23075,0.23076 -0.54271,0.34615 -0.84895,0.31403 -0.2918,-0.0306 -0.6765,0.10052 -0.9683,0.33005 -0.26628,0.20945 -0.85659,0.51783 -1.3118,0.68526 -0.45522,0.16744 -0.90307,0.3707 -0.99523,0.45168 -0.2593,0.22783 -0.73689,0.17432 -0.97194,-0.10889 -0.29097,-0.3506 -0.0722,-0.93715 0.39888,-1.0696 1.07734,-0.30289 1.30511,-0.45887 1.23462,-0.84549 -0.0462,-0.2536 0.17657,-0.71284 0.64822,-1.33604 0.45794,-0.6051 0.68281,-1.06262 0.61982,-1.2611 -0.10711,-0.33748 0.71353,-1.12403 0.99273,-0.95148 0.0856,0.0529 0.15565,0.0121 0.15565,-0.0906 0,-0.10274 0.15875,-0.1868 0.35278,-0.1868 0.19403,0 0.35278,0.10701 0.35278,0.23779 0,0.13079 0.31287,0.37888 0.69527,0.55132 0.69665,0.31415 1.52242,1.01006 2.25222,1.89806 0.79363,0.96566 1.11791,1.8827 1.32681,3.75202 0.20566,1.84043 0.20722,1.84462 0.59231,1.59229 0.3422,-0.22421 0.41773,-0.21805 0.66412,0.0542 0.1529,0.16895 0.36359,0.7063 0.46821,1.1941 0.19865,0.92626 0.0967,1.4119 -0.43887,2.08992 -0.26083,0.33024 -0.29515,0.33222 -0.78127,0.0451 -0.45401,-0.26819 -0.51972,-0.27102 -0.61359,-0.0264 -0.0578,0.15068 -0.0215,0.64634 0.0807,1.10147 0.20848,0.92847 0.0976,1.83939 -0.25997,2.13617 -0.19961,0.16566 -0.19675,0.41643 0.0177,1.55222 0.14068,0.74505 0.3948,1.55708 0.56472,1.80452 0.68187,0.99296 0.79233,1.54115 0.47695,2.36696 -0.24569,0.64334 -0.44267,0.83798 -1.24635,1.2315 -1.07898,0.52832 -1.47139,0.55966 -2.47605,0.19772 z"
       id="path1490"
       inkscape:connector-curvature="0" />
  </g>
</svg>
