<?xml version="1.0" encoding="UTF-8" standalone="no"?>
<!-- Created with Inkscape (http://www.inkscape.org/) -->

<svg
   xmlns:dc="http://purl.org/dc/elements/1.1/"
   xmlns:cc="http://creativecommons.org/ns#"
   xmlns:rdf="http://www.w3.org/1999/02/22-rdf-syntax-ns#"
   xmlns:svg="http://www.w3.org/2000/svg"
   xmlns="http://www.w3.org/2000/svg"
   xmlns:sodipodi="http://sodipodi.sourceforge.net/DTD/sodipodi-0.dtd"
   xmlns:inkscape="http://www.inkscape.org/namespaces/inkscape"
   width="210mm"
   height="297mm"
   viewBox="0 0 210 297"
   version="1.1"
   id="svg884"
   inkscape:version="0.92.4 (5da689c313, 2019-01-14)"
   sodipodi:docname="surgeonfish2.svg">
  <defs
     id="defs878" />
  <sodipodi:namedview
     id="base"
     pagecolor="#ffffff"
     bordercolor="#666666"
     borderopacity="1.0"
     inkscape:pageopacity="0.0"
     inkscape:pageshadow="2"
     inkscape:zoom="1.979899"
     inkscape:cx="171.81073"
     inkscape:cy="334.47583"
     inkscape:document-units="mm"
     inkscape:current-layer="layer1"
     showgrid="false"
     inkscape:window-width="958"
     inkscape:window-height="1008"
     inkscape:window-x="-7"
     inkscape:window-y="0"
     inkscape:window-maximized="0" />
  <metadata
     id="metadata881">
    <rdf:RDF>
      <cc:Work
         rdf:about="">
        <dc:format>image/svg+xml</dc:format>
        <dc:type
           rdf:resource="http://purl.org/dc/dcmitype/StillImage" />
        <dc:title></dc:title>
      </cc:Work>
    </rdf:RDF>
  </metadata>
  <g
     inkscape:label="Ebene 1"
     inkscape:groupmode="layer"
     id="layer1">
    <path
       style="fill:#000000;stroke-width:0.17638889"
       d="m 50.409268,234.0368 c -0.656417,-0.12493 -1.34783,-0.36685 -1.536472,-0.53756 -0.280499,-0.25386 -0.4969,-0.28505 -1.187764,-0.17117 -0.940894,0.15508 -0.929346,0.1551 -1.874848,-0.005 -0.930829,-0.15726 -2.233124,-1.35583 -2.233124,-2.05526 0,-0.33281 -0.0908,-0.5067 -0.264584,-0.5067 -0.437818,0 -0.319584,-1.25476 0.286994,-3.04574 0.658359,-1.94384 1.04682,-2.74757 1.54632,-3.1993 0.232026,-0.20984 0.371548,-0.55036 0.371548,-0.90678 0,-0.72846 0.942946,-2.12244 1.867939,-2.76144 1.41364,-0.97656 3.499261,-1.57604 6.422339,-1.84597 1.432955,-0.13234 4.997444,0.24153 5.820833,0.61054 1.34596,0.60318 2.552919,1.87156 2.342349,2.46154 -0.116519,0.32648 0.195721,0.26783 0.704393,-0.13229 0.246666,-0.19403 0.520868,-0.35278 0.609336,-0.35278 0.08847,0 0.67126,-0.39617 1.295095,-0.88037 0.623834,-0.48419 1.278274,-0.88107 1.454312,-0.88195 0.451896,-0.002 1.245547,1.00006 1.384723,1.74874 0.06451,0.34701 0.198784,0.94844 0.298387,1.3365 0.0996,0.38805 0.225716,1.18907 0.280252,1.78004 0.146616,1.58883 0.133756,1.59555 -3.722173,1.94602 -1.40743,0.12791 -1.245381,-0.0659 -1.625698,1.94437 -0.09447,0.49937 -0.346892,1.17508 -0.560929,1.50161 -0.654336,0.99819 -2.674702,2.29036 -5.194075,3.32195 -1.776956,0.72761 -4.555901,0.99782 -6.485153,0.63059 z"
       id="path1555"
       inkscape:connector-curvature="0" />
  </g>
</svg>
