<?xml version="1.0" standalone="no"?>
<!DOCTYPE svg PUBLIC "-//W3C//DTD SVG 20010904//EN"
 "http://www.w3.org/TR/2001/REC-SVG-20010904/DTD/svg10.dtd">
<svg version="1.0" xmlns="http://www.w3.org/2000/svg"
 width="2000.000000pt" height="1200.000000pt" viewBox="0 0 2000.000000 1200.000000"
 preserveAspectRatio="xMidYMid meet">

<g transform="translate(0.000000,1200.000000) scale(0.100000,-0.100000)"
fill="#000000" stroke="none">
<path d="M8378 9605 c-5 -5 -1650 -20 -1828 -17 -36 1 -245 3 -465 4 -340 3
-409 1 -461 -13 -33 -8 -65 -19 -72 -23 -18 -11 -17 -2296 1 -2296 6 0 22 -3
35 -6 19 -5 22 -2 22 20 l0 26 2304 0 2303 0 7 293 c4 161 6 674 5 1139 l-2
846 -56 5 c-31 3 -85 10 -121 16 -42 6 -136 7 -265 2 -119 -5 -319 -4 -494 2
-214 8 -323 8 -400 -1 -72 -7 -153 -8 -251 -2 -172 11 -255 12 -262 5z m-1573
-250 c0 -99 -3 -232 -8 -295 -4 -63 -9 -234 -11 -380 -6 -393 -26 -1313 -29
-1317 -2 -1 -260 -4 -575 -5 l-572 -3 0 690 c-1 1108 0 1478 6 1487 3 4 272 7
597 6 l592 -3 0 -180z m3369 -103 c-2 -158 -3 -648 -3 -1089 l-1 -803 -344 0
c-304 0 -345 2 -350 16 -3 9 -6 70 -6 137 0 154 -28 582 -41 621 l-9 29 189
-7 c135 -5 192 -3 196 5 18 29 -20 32 -422 36 -330 3 -405 1 -395 -9 16 -16
129 -26 293 -27 l126 -1 1 -47 c1 -27 6 -185 11 -353 6 -168 11 -326 11 -352
l0 -48 -1315 0 -1315 0 5 138 c12 333 26 853 35 1297 9 471 18 708 25 733 4
10 340 12 1658 12 l1653 0 -2 -288z"/>
<path d="M6074 9251 c-38 -23 -59 -76 -45 -114 11 -28 47 -57 71 -57 13 0 15
-7 12 -31 -3 -24 -1 -30 9 -27 8 2 15 16 17 30 2 14 16 38 33 54 25 24 29 35
29 80 0 43 -4 56 -22 68 -30 21 -66 20 -104 -3z"/>
<path d="M6107 8818 c-9 -149 -9 -228 1 -228 27 1 32 24 38 178 7 158 7 162
-13 162 -18 0 -20 -9 -26 -112z"/>
<path d="M6459 8653 c-13 -15 -12 -15 11 -3 34 17 36 20 18 20 -9 0 -22 -7
-29 -17z"/>
<path d="M6482 8629 l-42 -18 6 -73 c9 -89 17 -121 32 -126 15 -5 32 39 32 86
0 20 7 46 15 56 16 21 21 82 8 89 -5 3 -27 -4 -51 -14z"/>
<path d="M6301 8596 c-26 -13 -39 -26 -33 -30 13 -8 92 30 92 44 0 14 -9 12
-59 -14z"/>
<path d="M6293 8538 c-5 -7 -15 -31 -22 -53 -7 -22 -23 -50 -34 -62 -33 -37
-87 -25 -87 19 0 19 -16 23 -38 9 -21 -13 10 -79 43 -91 73 -28 150 40 170
153 6 29 4 37 -8 37 -8 0 -19 -6 -24 -12z"/>
<path d="M6114 8506 c-10 -8 -16 -17 -13 -20 10 -10 39 5 39 20 0 17 -2 17
-26 0z"/>
<path d="M5747 8503 c-10 -9 -9 -83 1 -83 5 0 16 6 26 13 14 10 17 21 11 45
-6 30 -23 41 -38 25z"/>
<path d="M5754 8336 c-22 -17 -11 -35 13 -20 19 12 29 34 16 34 -5 0 -18 -6
-29 -14z"/>
<path d="M5762 8281 c-19 -12 -11 -55 11 -59 14 -3 17 4 17 32 0 37 -5 42 -28
27z"/>
<path d="M9425 8750 c-61 -30 -103 -108 -104 -192 -1 -34 -5 -48 -15 -48 -17
0 -27 -23 -17 -39 10 -15 72 -25 105 -17 32 8 36 45 6 53 -25 7 -26 48 -5 121
25 81 88 108 134 56 18 -20 25 -23 37 -14 21 18 17 34 -15 69 -35 37 -68 40
-126 11z"/>
<path d="M9125 8556 c-22 -16 -14 -46 13 -46 10 0 24 -11 30 -25 6 -14 18 -25
26 -25 18 0 31 77 15 96 -15 18 -60 18 -84 0z"/>
<path d="M9525 8536 c-12 -18 -13 -30 -6 -50 12 -30 41 -35 41 -7 0 16 8 20
37 23 28 2 39 8 41 22 5 24 -14 36 -60 36 -29 0 -41 -6 -53 -24z"/>
<path d="M7425 8360 c-25 -28 -26 -98 0 -116 25 -19 41 -18 63 4 16 18 18 18
53 0 76 -39 202 -45 373 -18 37 6 53 4 64 -6 20 -20 60 -17 72 5 17 33 12 116
-8 134 -26 24 -37 21 -65 -14 -23 -29 -30 -32 -133 -45 -209 -26 -313 -12
-346 46 -20 35 -47 39 -73 10z"/>
<path d="M9208 7979 c-33 -19 -20 -45 20 -40 11 2 16 -14 13 -49 -2 -24 16
-43 33 -37 12 5 16 20 16 56 0 40 -4 53 -22 65 -26 18 -36 19 -60 5z"/>
<path d="M9550 7971 c-12 -24 -13 -91 -1 -110 17 -27 41 -4 41 39 0 40 0 40
38 40 44 0 67 17 51 37 -7 8 -33 13 -65 13 -42 0 -55 -4 -64 -19z"/>
</g>
</svg>
