<?xml version="1.0" standalone="no"?>
<!DOCTYPE svg PUBLIC "-//W3C//DTD SVG 20010904//EN"
 "http://www.w3.org/TR/2001/REC-SVG-20010904/DTD/svg10.dtd">
<svg version="1.0" xmlns="http://www.w3.org/2000/svg"
 width="2000.000000pt" height="1200.000000pt" viewBox="0 0 2000.000000 1200.000000"
 preserveAspectRatio="xMidYMid meet">

<g transform="translate(0.000000,1200.000000) scale(0.100000,-0.100000)"
fill="#000000" stroke="none">
<path d="M5642 4843 c-4 -1 -28 -4 -53 -8 l-46 -6 -8 -247 c-5 -136 -8 -260
-7 -277 2 -16 5 -448 8 -959 3 -558 9 -938 15 -954 l10 -25 1252 8 c689 5
1290 8 1337 7 47 -1 1564 -4 3372 -6 l3287 -5 5 52 c21 206 27 510 12 588 -5
29 -12 38 -31 41 l-25 5 0 -308 0 -309 -3601 0 -3601 0 7 223 c3 122 10 312
16 422 5 110 9 261 9 336 0 155 -6 169 -75 169 -35 0 -37 1 -21 13 16 11 18
23 13 67 -9 79 -15 83 -153 82 -68 0 -121 -5 -127 -11 -6 -6 -11 -40 -12 -75
l0 -64 -92 -7 c-51 -4 -107 -5 -125 -2 -18 3 -96 -2 -173 -10 -77 -9 -169 -16
-204 -17 l-64 -1 -2 -80 c-1 -44 -9 -282 -18 -530 -9 -247 -17 -465 -17 -482
l0 -33 -270 0 c-250 0 -270 1 -270 18 0 9 -5 82 -10 162 -23 344 -35 1151 -28
1766 0 22 -3 71 -6 108 l-8 67 -164 -3 -164 -3 0 108 0 107 29 0 c17 0 33 5
36 10 4 7 289 9 863 6 471 -2 844 -2 827 0 -16 3 -79 14 -140 25 -100 18 -175
20 -843 27 -402 4 -735 6 -740 5z m1618 -1107 c0 -3 -4 -8 -10 -11 -5 -3 -10
-1 -10 4 0 6 5 11 10 11 6 0 10 -2 10 -4z m230 -22 c0 -8 -4 -12 -10 -9 -5 3
-10 10 -10 16 0 5 5 9 10 9 6 0 10 -7 10 -16z m-213 -66 c-3 -7 -5 -2 -5 12 0
14 2 19 5 13 2 -7 2 -19 0 -25z m216 -19 c-6 -6 -7 3 -4 23 4 28 6 29 9 9 2
-13 0 -27 -5 -32z m-148 31 c3 -5 1 -10 -4 -10 -6 0 -11 5 -11 10 0 6 2 10 4
10 3 0 8 -4 11 -10z m-90 -30 c3 -5 1 -10 -4 -10 -6 0 -11 5 -11 10 0 6 2 10
4 10 3 0 8 -4 11 -10z m123 -27 c-10 -2 -26 -2 -35 0 -10 3 -2 5 17 5 19 0 27
-2 18 -5z"/>
<path d="M7973 4836 c-5 -8 -36 -16 -78 -20 -38 -4 -106 -13 -150 -20 l-80
-13 55 -6 c30 -4 460 -9 955 -12 495 -3 986 -7 1090 -10 204 -5 912 -12 2095
-20 404 -3 854 -7 1000 -10 146 -3 632 -8 1080 -11 448 -3 819 -10 823 -14 5
-4 8 -133 8 -287 l-1 -279 35 4 35 4 0 335 c0 291 -2 334 -15 329 -43 -16
-206 -28 -337 -24 -120 3 -148 1 -148 -10 0 -11 -86 -12 -522 -7 -288 3 -1004
10 -1593 15 -588 5 -1248 12 -1465 15 -217 3 -633 7 -925 10 -1797 17 -1825
17 -1825 31 0 18 -27 18 -37 0z"/>
<path d="M13440 3400 c-7 -4 -10 -17 -7 -29 6 -26 -16 -45 -43 -36 -15 5 -20
2 -20 -10 0 -13 7 -16 30 -13 25 4 30 1 30 -17 0 -12 -9 -30 -21 -41 -41 -37
-47 -75 -14 -88 27 -10 115 24 126 48 11 23 1 104 -19 157 -11 28 -41 42 -62
29z"/>
</g>
</svg>
